<svg xmlns="http://www.w3.org/2000/svg" version="1.1" xmlns:xlink="http://www.w3.org/1999/xlink" width="42" height="42" x="0" y="0" viewBox="0 0 512 512" style="enable-background:new 0 0 512 512" xml:space="preserve" class=""><g><path fill="#41c47d" d="m423.968 154.582-11.285-13.999a12.846 12.846 0 0 1 1-17.228l2.647-2.599c11.385-11.181 9.124-30.106-4.573-38.29l-16.359-9.775a32.343 32.343 0 0 1-12.849-14.367l-4.352-9.561c-2.836-6.231-7.658-10.412-13.144-12.561-11.263-4.413-21.339 9.669-27.161 22.462l-3.523 3.523c-2.723 5.984-20.688 17.489-26.331 20.861l-4.758-2.365-13.376-7.992a32.354 32.354 0 0 1-12.849-14.367l-4.352-9.561c-2.838-6.235-7.648-10.427-13.139-12.575-11.261-4.406-20.035 7.677-25.855 20.467l-5.81 6.243c-2.723 5.984-17.845 16.655-23.488 20.027l-6.273-2.451-13.024-7.782a32.343 32.343 0 0 1-12.849-14.367l-4.352-9.561c-2.838-6.235-7.648-10.427-13.139-12.575-11.261-4.406-19.705 9.594-25.526 22.383l-6.552 7.232c-2.723 5.984-8.264 7.568-13.907 10.941L96.55 83.326c-13.698 8.185-15.144 22.936-3.759 34.117l2.647 2.599c4.715 4.63 4.987 18.159.84 23.304l-11.286 13.999c-8.279 10.27-5.526 18.205 4.512 26.764l26.918 28.495h65.722l15.992-13.635 15.992 13.635h72.805l16.344-13.935 16.344 13.935h5.318v4.534l18.461 15.74h25.247l52.159-44.471c10.04-8.56 11.442-23.555 3.162-33.825z" data-original="#41c47d"></path><path fill="#3cb372" d="m80.959 188.406 23.45 19.994h18.053l-23.45-19.994c-10.038-8.559-11.44-23.554-3.16-33.824l11.285-13.999a12.847 12.847 0 0 0-1-17.228l-2.647-2.599c-11.385-11.181-9.124-30.106 4.573-38.29l16.36-9.775a32.349 32.349 0 0 0 12.849-14.367l4.352-9.561c2.838-6.235 7.653-10.413 13.144-12.561-11.261-4.406-25.377-.228-31.198 12.561l-4.351 9.561a32.337 32.337 0 0 1-12.849 14.367l-16.36 9.775c-13.698 8.185-15.958 27.11-4.573 38.29l2.647 2.599a12.846 12.846 0 0 1 1 17.228l-11.285 13.999c-8.28 10.27-6.879 25.265 3.16 33.824z" data-original="#3cb372"></path><path fill="#3cb372" d="m120.065 141.014 14.438 12.651a10.302 10.302 0 0 1 3.512 7.748v51.19h15.453v-51.19c0-2.968 1.28-5.792 3.512-7.748l14.438-12.651a7.726 7.726 0 0 0 .56-11.079c-2.883-3.097-7.806-3.117-10.988-.329l-2.395 2.099c-1.998 1.751-5.128.332-5.128-2.324V95.887c0-4.231-3.26-7.92-7.489-8.047a7.727 7.727 0 0 0-7.964 7.723v33.817c0 2.656-3.13 4.075-5.127 2.324l-2.395-2.099c-3.182-2.788-8.105-2.768-10.987.329a7.728 7.728 0 0 0 .56 11.08zM185.749 188.406l23.45 19.994h18.053l-23.45-19.994c-10.038-8.559-11.439-23.554-3.16-33.824l11.285-13.999a12.846 12.846 0 0 0-1-17.228l-2.646-2.599c-11.385-11.181-9.125-30.106 4.573-38.29l16.359-9.775a32.343 32.343 0 0 0 12.849-14.367l4.352-9.561c2.838-6.235 7.653-10.413 13.144-12.561-11.261-4.406-25.376-.228-31.197 12.561l-4.352 9.561a32.337 32.337 0 0 1-12.849 14.367l-16.359 9.775c-13.698 8.185-15.959 27.11-4.573 38.29l2.647 2.599a12.846 12.846 0 0 1 1 17.228l-11.285 13.999c-8.28 10.27-6.879 25.265 3.159 33.824z" data-original="#3cb372"></path><path fill="#3cb372" d="m224.855 141.014 14.438 12.651a10.302 10.302 0 0 1 3.512 7.748v51.19h15.453v-51.19c0-2.968 1.28-5.792 3.512-7.748l14.438-12.651a7.726 7.726 0 0 0 .56-11.079c-2.882-3.097-7.806-3.117-10.987-.329l-2.395 2.099c-1.998 1.751-5.127.332-5.127-2.324V95.887c0-4.231-3.26-7.92-7.488-8.047a7.727 7.727 0 0 0-7.964 7.723v33.817c0 2.656-3.13 4.075-5.127 2.324l-2.395-2.099c-3.182-2.788-8.105-2.768-10.987.329a7.725 7.725 0 0 0 .557 11.08zM291.243 188.406l23.45 19.994h18.053l-23.45-19.994c-10.038-8.559-11.439-23.554-3.16-33.824l11.285-13.999a12.846 12.846 0 0 0-1-17.228l-2.646-2.599c-11.385-11.181-9.125-30.106 4.573-38.29l16.36-9.775a32.349 32.349 0 0 0 12.849-14.367l4.352-9.561c2.838-6.235 7.653-10.413 13.144-12.561-11.261-4.406-25.377-.228-31.197 12.561l-4.352 9.561a32.337 32.337 0 0 1-12.849 14.367l-16.36 9.775c-13.698 8.185-15.958 27.11-4.573 38.29l2.647 2.599a12.846 12.846 0 0 1 1 17.228l-11.285 13.999c-8.281 10.27-6.88 25.265 3.159 33.824z" data-original="#3cb372"></path><path fill="#3cb372" d="m330.349 141.014 14.438 12.651a10.302 10.302 0 0 1 3.512 7.748v71.464h15.453v-71.464c0-2.968 1.28-5.792 3.512-7.748l14.438-12.651a7.726 7.726 0 0 0 .56-11.079c-2.882-3.097-7.805-3.117-10.987-.329l-2.395 2.099c-1.998 1.751-5.127.332-5.127-2.324V95.887c0-4.231-3.26-7.92-7.488-8.047a7.727 7.727 0 0 0-7.964 7.723v33.817c0 2.656-3.13 4.075-5.127 2.324l-2.395-2.099c-3.182-2.788-8.105-2.768-10.987.329a7.725 7.725 0 0 0 .557 11.08z" data-original="#3cb372"></path><path fill="#ffdf74" d="M108.336 322.655h300.461v106.934H108.336zM285.135 186.89c-7.249 0-16.699 10.375-21.603 11.775-5.726 1.635-6.672-5.333-12.31.119-7.929-7.669-18.027-13.109-29.288-15.296-3.605-.7-7.348 1.293-11.158 1.293-12.645 0-23.332 9.295-32.868 15.553-2.313 1.518-5.496-3.526-7.54-1.55-7.882-7.623-17.906-13.043-29.085-15.257-3.668-.726-7.165 1.508-11.046 1.508-32.128 0-42.217 23.43-42.217 55.559s9.794 58.173 41.922 58.173c15.712 0 29.959-6.24 40.427-16.363 10.468 10.123 24.715 16.363 40.427 16.363s29.959-6.24 40.427-16.363c10.468 10.123 24.715 16.363 40.427 16.363 32.128 0 58.173-26.045 58.173-58.173 0-28.247-20.133-51.792-46.832-57.068-3.669-.725-13.975 3.364-17.856 3.364z" data-original="#ffdf74"></path><path fill="#f7ce5c" d="M95.763 252.904a58.389 58.389 0 0 1-1.315-12.31c0-28.247 20.135-51.783 46.833-57.06a58.434 58.434 0 0 0-11.34-1.113c-32.128 0-58.173 26.045-58.173 58.173 0 4.225.462 8.341 1.317 12.31zM182.63 268.851a57.881 57.881 0 0 1-7.328-28.257c0-28.247 20.135-51.783 46.834-57.06a58.442 58.442 0 0 0-11.34-1.113c-32.128 0-58.173 26.045-58.173 58.173a57.885 57.885 0 0 0 7.325 28.257zM262.491 266.997a57.888 57.888 0 0 1-6.335-26.403c0-28.247 20.135-51.783 46.833-57.06a58.442 58.442 0 0 0-11.34-1.113c-32.128 0-58.173 26.045-58.173 58.173a57.9 57.9 0 0 0 6.342 26.403z" data-original="#f7ce5c"></path><path fill="#ff6969" d="M81.738 415.439c-40.447-18.269-69.862-60.467-56.951-110.12l4.265-22.468c7.787-29.948 34.635-56.123 62.474-43.468.685.312 1.368.64 2.046.986l20.012 10.194a49.62 49.62 0 0 0 20.653 5.37l22.443.846c31.683 1.194 54.134 31.388 46.156 62.073l-7.816 30.06c-12.91 49.653-63.629 79.438-113.282 66.527z" data-original="#ff6969"></path><path fill="#ff415b" d="m31.721 306.45 7.816-30.06c6.279-24.15 28.872-38.841 51.983-36.993-27.838-12.652-60.707 2.753-68.493 32.7l-7.816 30.06C2.299 351.81 32.085 402.528 81.738 415.439a94.212 94.212 0 0 0 8.354 1.766c-44.698-16.074-70.558-63.886-58.371-110.755z" data-original="#ff415b"></path><path fill="#ff415b" d="M157.756 295.463a11.871 11.871 0 0 0-2.518-.362l-22.443-.845a86.668 86.668 0 0 1-6.633-.507c-2.529-.29-4.899 1.273-5.555 3.733l-8.353 31.301a7.73 7.73 0 0 1-9.422 5.534 7.726 7.726 0 0 1-5.533-9.422l8.321-31.182c.664-2.49-.651-5.053-3.034-6.034a87.446 87.446 0 0 1-6.408-2.943l-20.012-10.194a11.654 11.654 0 0 0-2.376-.911c-5.197-1.351-11.893 1.368-13.648 8.117l-7.816 30.06c-7.64 29.381 10.286 59.506 39.884 66.722 29.08 7.09 58.369-11.102 65.902-40.071l7.608-29.259c1.756-6.749-2.767-12.386-7.964-13.737z" data-original="#ff415b"></path><path fill="#ef2b55" d="m79.385 317.426-.492-.128a8.42 8.42 0 0 1-6.03-10.268l.128-.492a8.42 8.42 0 0 1 10.268-6.03l.492.128a8.42 8.42 0 0 1 6.03 10.268l-.128.492a8.42 8.42 0 0 1-10.268 6.03zM77.638 343.795l-.492-.128a8.42 8.42 0 0 1-6.03-10.268l.128-.492a8.42 8.42 0 0 1 10.268-6.03l.492.128a8.42 8.42 0 0 1 6.03 10.268l-.128.492a8.42 8.42 0 0 1-10.268 6.03zM131.537 330.986l.492.128a8.42 8.42 0 0 0 10.268-6.03l.128-.492a8.42 8.42 0 0 0-6.03-10.268l-.492-.128a8.42 8.42 0 0 0-10.268 6.03l-.128.492a8.419 8.419 0 0 0 6.03 10.268zM120.218 354.867l.492.128a8.42 8.42 0 0 0 10.268-6.03l.128-.492a8.42 8.42 0 0 0-6.03-10.268l-.492-.128a8.42 8.42 0 0 0-10.268 6.03l-.128.492a8.419 8.419 0 0 0 6.03 10.268zM95.089 363.086l.492.128a8.42 8.42 0 0 0 10.268-6.03l.128-.492a8.42 8.42 0 0 0-6.03-10.268l-.492-.128a8.42 8.42 0 0 0-10.268 6.03l-.128.492a8.42 8.42 0 0 0 6.03 10.268z" data-original="#ef2b55"></path><path fill="#41c47d" d="M355.557 335.367c0 45.266-36.695 81.961-81.961 81.961s-69.138-36.695-69.138-81.961 23.872-81.961 69.138-81.961 81.961 36.696 81.961 81.961z" data-original="#41c47d"></path><path fill="#3cb372" d="M209.683 335.367c0-42.215 31.919-76.962 72.937-81.456a82.748 82.748 0 0 0-9.024-.505c-45.266 0-81.961 36.695-81.961 81.961s36.695 81.961 81.961 81.961c3.051 0 6.06-.18 9.024-.505-41.018-4.494-72.937-39.241-72.937-81.456z" data-original="#3cb372"></path><circle cx="273.595" cy="335.367" r="49.303" fill="#fff3d7" data-original="#fff3d7"></circle><path fill="#41c47d" d="M273.85 324.756h-.508a8.42 8.42 0 0 1-8.42-8.42v-.508a8.42 8.42 0 0 1 8.42-8.42h.508a8.42 8.42 0 0 1 8.42 8.42v.508a8.42 8.42 0 0 1-8.42 8.42zM273.85 363.326h-.508a8.42 8.42 0 0 1-8.42-8.42v-.508a8.42 8.42 0 0 1 8.42-8.42h.508a8.42 8.42 0 0 1 8.42 8.42v.508a8.42 8.42 0 0 1-8.42 8.42zM284.206 335.622v-.508a8.42 8.42 0 0 1 8.42-8.42h.508a8.42 8.42 0 0 1 8.42 8.42v.508a8.42 8.42 0 0 1-8.42 8.42h-.508a8.42 8.42 0 0 1-8.42-8.42z" data-original="#41c47d"></path><path fill="#ffbe87" d="m463.123 401.56-33.865 15.599c-17.301 7.969-28.355-3.553-36.325-20.854l-61.069-136.108c-7.969-17.301 1.705-37.395 19.006-45.365l21.648-9.972c17.301-7.969 37.787-.404 45.757 16.897l61.745 134.046c7.969 17.302.404 37.788-16.897 45.757z" data-original="#ffbe87"></path><path fill="#ffb06b" d="m399.468 392.908-61.745-134.046c-7.969-17.301-.404-37.787 16.897-45.757l-15.966 7.354c-17.301 7.969-24.866 28.455-16.897 45.757l61.745 134.046c7.969 17.301 28.455 24.866 45.757 16.897l15.966-7.354c-17.302 7.969-37.788.404-45.757-16.897z" data-original="#ffb06b"></path><path fill="#ffa04d" d="m359.885 262.695-.462.213a8.419 8.419 0 0 1-11.17-4.125l-.213-.462a8.419 8.419 0 0 1 4.125-11.17l.462-.213a8.419 8.419 0 0 1 11.17 4.125l.213.462a8.419 8.419 0 0 1-4.125 11.17zM396.929 322.384l-.462.213a8.42 8.42 0 0 1-11.17-4.125l-.213-.462a8.419 8.419 0 0 1 4.125-11.17l.462-.213a8.419 8.419 0 0 1 11.17 4.125l.213.462a8.42 8.42 0 0 1-4.125 11.17zM421.138 387.984l-.462.213a8.419 8.419 0 0 1-11.17-4.125l-.213-.462a8.419 8.419 0 0 1 4.125-11.17l.462-.213a8.42 8.42 0 0 1 11.17 4.125l.213.462a8.419 8.419 0 0 1-4.125 11.17zM401.065 268.769l-.462.213a8.419 8.419 0 0 1-11.17-4.125l-.213-.462a8.419 8.419 0 0 1 4.125-11.17l.462-.213a8.419 8.419 0 0 1 11.17 4.125l.213.462a8.42 8.42 0 0 1-4.125 11.17zM430.845 345.29l-.462.213a8.419 8.419 0 0 1-11.17-4.125l-.213-.462a8.419 8.419 0 0 1 4.125-11.17l.462-.213a8.42 8.42 0 0 1 11.17 4.125l.213.462a8.42 8.42 0 0 1-4.125 11.17z" data-original="#ffa04d"></path><path fill="#41c47d" d="M245.636 335.622v-.508a8.42 8.42 0 0 1 8.42-8.42h.508a8.42 8.42 0 0 1 8.42 8.42v.508a8.42 8.42 0 0 1-8.42 8.42h-.508a8.42 8.42 0 0 1-8.42-8.42z" data-original="#41c47d"></path><path fill="#e9e9ff" d="M491.396 477.495H43.145c-11.379 0-21.433-9.225-21.433-20.604v-27.807c0-11.379 10.054-20.604 21.433-20.604h448.251c11.379 0 20.604 9.225 20.604 20.604v27.807c0 11.379-9.225 20.604-20.604 20.604z" data-original="#e9e9ff"></path><path fill="#d4d4e8" d="M27.691 456.891v-27.807c0-11.379 9.225-20.604 20.604-20.604H20.604C9.225 408.48 0 417.704 0 429.083v27.807c0 11.379 9.225 20.604 20.604 20.604h27.691c-11.379.001-20.604-9.224-20.604-20.603z" data-original="#d4d4e8"></path></g></svg>