<svg xmlns="http://www.w3.org/2000/svg" version="1.1" xmlns:xlink="http://www.w3.org/1999/xlink" width="42" height="42" x="0" y="0" viewBox="0 0 682.667 682.667" style="enable-background:new 0 0 512 512" xml:space="preserve" class=""><g><defs><clipPath id="a" clipPathUnits="userSpaceOnUse"><path d="M0 512h512V0H0Z" fill="#000000" data-original="#000000"></path></clipPath></defs><g clip-path="url(#a)" transform="matrix(1.33333 0 0 -1.33333 0 682.667)"><path d="M0 0c-3.532 7.873-2.603 17.384 3.163 24.536l10.954 13.589a12.468 12.468 0 0 1-.971 16.723l-2.568 2.523C-.474 68.224 1.72 86.594 15.017 94.539l15.88 9.489a31.402 31.402 0 0 1 12.473 13.946l4.224 9.281c8.405 18.468 34.637 18.468 43.042 0l4.224-9.281a31.396 31.396 0 0 1 12.473-13.946l12.642-7.554" style="stroke-width:15;stroke-linecap:round;stroke-linejoin:round;stroke-miterlimit:10;stroke-dasharray:none;stroke-opacity:1" transform="translate(79.857 329.905)" fill="none" stroke="#000000" stroke-width="15" stroke-linecap="round" stroke-linejoin="round" stroke-miterlimit="10" stroke-dasharray="none" stroke-opacity="" data-original="#000000" class=""></path><path d="M0 0v-86.421" style="stroke-width:15;stroke-linecap:round;stroke-linejoin:round;stroke-miterlimit:10;stroke-dasharray:none;stroke-opacity:1" transform="translate(148.972 411.731)" fill="none" stroke="#000000" stroke-width="15" stroke-linecap="round" stroke-linejoin="round" stroke-miterlimit="10" stroke-dasharray="none" stroke-opacity="" data-original="#000000" class=""></path><path d="m0 0-19.981-17.509L-39.962 0" style="stroke-width:15;stroke-linecap:round;stroke-linejoin:round;stroke-miterlimit:10;stroke-dasharray:none;stroke-opacity:1" transform="translate(168.953 373.252)" fill="none" stroke="#000000" stroke-width="15" stroke-linecap="round" stroke-linejoin="round" stroke-miterlimit="10" stroke-dasharray="none" stroke-opacity="" data-original="#000000" class=""></path><path d="M0 0a23.628 23.628 0 0 0 3.892 6.961l10.955 13.59a12.468 12.468 0 0 1-.971 16.722l-2.569 2.523C.255 50.649 2.45 69.02 15.746 76.965l15.88 9.489A31.396 31.396 0 0 1 44.099 100.4l4.224 9.281c8.405 18.467 34.637 18.467 43.042 0l4.224-9.281a31.396 31.396 0 0 1 12.473-13.946l12.984-7.758" style="stroke-width:15;stroke-linecap:round;stroke-linejoin:round;stroke-miterlimit:10;stroke-dasharray:none;stroke-opacity:1" transform="translate(180.848 347.48)" fill="none" stroke="#000000" stroke-width="15" stroke-linecap="round" stroke-linejoin="round" stroke-miterlimit="10" stroke-dasharray="none" stroke-opacity="" data-original="#000000" class=""></path><path d="M0 0v-96.331" style="stroke-width:15;stroke-linecap:round;stroke-linejoin:round;stroke-miterlimit:10;stroke-dasharray:none;stroke-opacity:1" transform="translate(250.692 411.731)" fill="none" stroke="#000000" stroke-width="15" stroke-linecap="round" stroke-linejoin="round" stroke-miterlimit="10" stroke-dasharray="none" stroke-opacity="" data-original="#000000" class=""></path><path d="m0 0-19.981-17.509L-39.962 0" style="stroke-width:15;stroke-linecap:round;stroke-linejoin:round;stroke-miterlimit:10;stroke-dasharray:none;stroke-opacity:1" transform="translate(270.673 373.252)" fill="none" stroke="#000000" stroke-width="15" stroke-linecap="round" stroke-linejoin="round" stroke-miterlimit="10" stroke-dasharray="none" stroke-opacity="" data-original="#000000" class=""></path><path d="M0 0a23.785 23.785 0 0 0 2.604 3.988l10.955 13.589a12.47 12.47 0 0 1-.971 16.723l-2.569 2.523c-11.052 10.853-8.857 29.223 4.439 37.168l15.88 9.489a31.396 31.396 0 0 1 12.473 13.946l4.224 9.282c8.405 18.467 34.637 18.467 43.043 0l4.224-9.282a31.394 31.394 0 0 1 12.472-13.946l15.88-9.489c13.297-7.945 15.492-26.315 4.44-37.168l-2.569-2.523a12.47 12.47 0 0 1-.971-16.723l10.955-13.589c8.036-9.969 6.677-24.525-3.068-32.833" style="stroke-width:15;stroke-linecap:round;stroke-linejoin:round;stroke-miterlimit:10;stroke-dasharray:none;stroke-opacity:1" transform="translate(284.539 350.453)" fill="none" stroke="#000000" stroke-width="15" stroke-linecap="round" stroke-linejoin="round" stroke-miterlimit="10" stroke-dasharray="none" stroke-opacity="" data-original="#000000" class=""></path><path d="M0 0v-113.47" style="stroke-width:15;stroke-linecap:round;stroke-linejoin:round;stroke-miterlimit:10;stroke-dasharray:none;stroke-opacity:1" transform="translate(353.095 411.731)" fill="none" stroke="#000000" stroke-width="15" stroke-linecap="round" stroke-linejoin="round" stroke-miterlimit="10" stroke-dasharray="none" stroke-opacity="" data-original="#000000" class=""></path><path d="m0 0-19.981-17.509L-39.962 0" style="stroke-width:15;stroke-linecap:round;stroke-linejoin:round;stroke-miterlimit:10;stroke-dasharray:none;stroke-opacity:1" transform="translate(373.076 373.252)" fill="none" stroke="#000000" stroke-width="15" stroke-linecap="round" stroke-linejoin="round" stroke-miterlimit="10" stroke-dasharray="none" stroke-opacity="" data-original="#000000" class=""></path><path d="M0 0c3.099 28.258 27.047 50.244 56.13 50.244 15.248 0 29.084-6.044 39.245-15.866" style="stroke-width:15;stroke-linecap:round;stroke-linejoin:round;stroke-miterlimit:10;stroke-dasharray:none;stroke-opacity:1" transform="translate(77.505 277.174)" fill="none" stroke="#000000" stroke-width="15" stroke-linecap="round" stroke-linejoin="round" stroke-miterlimit="10" stroke-dasharray="none" stroke-opacity="" data-original="#000000" class=""></path><path d="M0 0a56.517 56.517 0 0 0-2.055 15.147c0 31.187 25.282 56.469 56.469 56.469 15.248 0 29.085-6.043 39.245-15.866" style="stroke-width:15;stroke-linecap:round;stroke-linejoin:round;stroke-miterlimit:10;stroke-dasharray:none;stroke-opacity:1" transform="translate(157.706 255.802)" fill="none" stroke="#000000" stroke-width="15" stroke-linecap="round" stroke-linejoin="round" stroke-miterlimit="10" stroke-dasharray="none" stroke-opacity="" data-original="#000000" class=""></path><path d="M0 0a56.316 56.316 0 0 0-3.864 20.571c0 31.187 25.282 56.469 56.469 56.469 23.225 0 43.175-14.02 51.848-34.06" style="stroke-width:15;stroke-linecap:round;stroke-linejoin:round;stroke-miterlimit:10;stroke-dasharray:none;stroke-opacity:1" transform="translate(238 250.378)" fill="none" stroke="#000000" stroke-width="15" stroke-linecap="round" stroke-linejoin="round" stroke-miterlimit="10" stroke-dasharray="none" stroke-opacity="" data-original="#000000" class=""></path><path d="M0 0c-37.135 18.695-57.522 61.343-46.636 103.211l7.588 29.18c7.745 29.786 41.055 44.767 68.479 30.798l19.426-9.895a48.18 48.18 0 0 1 20.048-5.212l21.786-.822c9.443-.355 18.041-3.365 25.199-8.228" style="stroke-width:15;stroke-linecap:round;stroke-linejoin:round;stroke-miterlimit:10;stroke-dasharray:none;stroke-opacity:1" transform="translate(68.9 107.978)" fill="none" stroke="#000000" stroke-width="15" stroke-linecap="round" stroke-linejoin="round" stroke-miterlimit="10" stroke-dasharray="none" stroke-opacity="" data-original="#000000" class=""></path><path d="M0 0c-7.69-23.527-24.33-41.946-45.095-52.425" style="stroke-width:15;stroke-linecap:round;stroke-linejoin:round;stroke-miterlimit:10;stroke-dasharray:none;stroke-opacity:1" transform="translate(195.224 160.4)" fill="none" stroke="#000000" stroke-width="15" stroke-linecap="round" stroke-linejoin="round" stroke-miterlimit="10" stroke-dasharray="none" stroke-opacity="" data-original="#000000" class=""></path><path d="M0 0c-28.255 7.347-45.265 36.312-37.918 64.566l7.587 29.18c1.704 6.552 8.203 9.191 13.248 7.879a11.282 11.282 0 0 0 2.306-.884l19.425-9.895a85.529 85.529 0 0 1 17.27-6.554 85.496 85.496 0 0 1 18.275-2.688l21.785-.821a11.45 11.45 0 0 0 2.444-.351c5.045-1.312 9.436-6.783 7.732-13.334l-7.587-29.18C57.22 9.663 28.255-7.347 0 0Z" style="stroke-width:15;stroke-linecap:round;stroke-linejoin:round;stroke-miterlimit:10;stroke-dasharray:none;stroke-opacity:1" transform="translate(96.212 137.255)" fill="none" stroke="#000000" stroke-width="15" stroke-linecap="round" stroke-linejoin="round" stroke-miterlimit="10" stroke-dasharray="none" stroke-opacity="" data-original="#000000" class=""></path><path d="m0 0-8.923-34.315" style="stroke-width:15;stroke-linecap:round;stroke-linejoin:round;stroke-miterlimit:10;stroke-dasharray:none;stroke-opacity:1" transform="translate(118.13 221.547)" fill="none" stroke="#000000" stroke-width="15" stroke-linecap="round" stroke-linejoin="round" stroke-miterlimit="10" stroke-dasharray="none" stroke-opacity="" data-original="#000000" class=""></path><path d="M0 0a8.42 8.42 0 1 0 4.24 16.3A8.42 8.42 0 0 0 0 0" style="fill-opacity:1;fill-rule:nonzero;stroke:none" transform="translate(84.32 196.43)" fill="#000000" data-original="#000000"></path><path d="M0 0a8.42 8.42 0 1 0 4.238 16.297A8.42 8.42 0 0 0 0 0" style="fill-opacity:1;fill-rule:nonzero;stroke:none" transform="translate(82.625 170.833)" fill="#000000" data-original="#000000"></path><path d="M0 0a8.42 8.42 0 1 1 4.238 16.298A8.42 8.42 0 0 1 0 0" style="fill-opacity:1;fill-rule:nonzero;stroke:none" transform="translate(135.422 183.143)" fill="#000000" data-original="#000000"></path><path d="M0 0a8.42 8.42 0 1 1 4.236 16.297A8.42 8.42 0 0 1 0 0" style="fill-opacity:1;fill-rule:nonzero;stroke:none" transform="translate(124.435 159.962)" fill="#000000" data-original="#000000"></path><path d="M0 0a8.42 8.42 0 1 1 4.238 16.298A8.42 8.42 0 0 1 0 0" style="fill-opacity:1;fill-rule:nonzero;stroke:none" transform="translate(100.041 151.984)" fill="#000000" data-original="#000000"></path><path d="M0 0c0-26.432-21.427-47.859-47.859-47.859-26.432 0-47.859 21.427-47.859 47.859 0 26.432 21.427 47.859 47.859 47.859C-21.427 47.859 0 26.432 0 0Z" style="stroke-width:15;stroke-linecap:round;stroke-linejoin:round;stroke-miterlimit:10;stroke-dasharray:none;stroke-opacity:1" transform="translate(320.939 178.952)" fill="none" stroke="#000000" stroke-width="15" stroke-linecap="round" stroke-linejoin="round" stroke-miterlimit="10" stroke-dasharray="none" stroke-opacity="" data-original="#000000" class=""></path><path d="M0 0c-25.86 13.135-43.58 39.988-43.58 70.979 0 43.939 35.621 79.56 79.56 79.56 5.228 0 10.338-.505 15.284-1.467" style="stroke-width:15;stroke-linecap:round;stroke-linejoin:round;stroke-miterlimit:10;stroke-dasharray:none;stroke-opacity:1" transform="translate(237.1 107.974)" fill="none" stroke="#000000" stroke-width="15" stroke-linecap="round" stroke-linejoin="round" stroke-miterlimit="10" stroke-dasharray="none" stroke-opacity="" data-original="#000000" class=""></path><path d="M0 0c-1.431-29.309-18.721-54.451-43.47-67.028" style="stroke-width:15;stroke-linecap:round;stroke-linejoin:round;stroke-miterlimit:10;stroke-dasharray:none;stroke-opacity:1" transform="translate(352.544 175.008)" fill="none" stroke="#000000" stroke-width="15" stroke-linecap="round" stroke-linejoin="round" stroke-miterlimit="10" stroke-dasharray="none" stroke-opacity="" data-original="#000000" class=""></path><path d="M0 0a8.42 8.42 0 1 0 0 16.84A8.42 8.42 0 0 0 0 0" style="fill-opacity:1;fill-rule:nonzero;stroke:none" transform="translate(273.08 189.252)" fill="#000000" data-original="#000000"></path><path d="M0 0a8.42 8.42 0 1 0 0 16.84A8.42 8.42 0 0 0 0 0" style="fill-opacity:1;fill-rule:nonzero;stroke:none" transform="translate(273.08 151.812)" fill="#000000" data-original="#000000"></path><path d="M0 0a8.42 8.42 0 1 0 16.84 0A8.42 8.42 0 0 0 0 0" style="fill-opacity:1;fill-rule:nonzero;stroke:none" transform="translate(283.38 178.952)" fill="#000000" data-original="#000000"></path><path d="m0 0-63.565 138.096c-7.736 16.794-.393 36.68 16.401 44.416l32.873 15.142c16.795 7.736 36.681.392 44.416-16.402L90.061 51.133c7.736-16.794.393-36.68-16.402-44.416L60.84 0" style="stroke-width:15;stroke-linecap:round;stroke-linejoin:round;stroke-miterlimit:10;stroke-dasharray:none;stroke-opacity:1" transform="translate(383.396 107.981)" fill="none" stroke="#000000" stroke-width="15" stroke-linecap="round" stroke-linejoin="round" stroke-miterlimit="10" stroke-dasharray="none" stroke-opacity="" data-original="#000000" class=""></path><path d="M0 0a8.42 8.42 0 0 0-11.17 4.125 8.419 8.419 0 0 0 4.125 11.17A8.42 8.42 0 0 0 0 0" style="fill-opacity:1;fill-rule:nonzero;stroke:none" transform="translate(356.618 249.392)" fill="#000000" data-original="#000000"></path><path d="M0 0a8.42 8.42 0 0 0-11.17 4.125 8.419 8.419 0 0 0 4.125 11.17 8.419 8.419 0 0 0 11.17-4.125A8.42 8.42 0 0 0 0 0" style="fill-opacity:1;fill-rule:nonzero;stroke:none" transform="translate(392.576 191.452)" fill="#000000" data-original="#000000"></path><path d="M0 0a8.419 8.419 0 0 0-11.17 4.125 8.419 8.419 0 0 0 4.125 11.17 8.419 8.419 0 0 0 11.17-4.125A8.419 8.419 0 0 0 0 0" style="fill-opacity:1;fill-rule:nonzero;stroke:none" transform="translate(416.076 127.774)" fill="#000000" data-original="#000000"></path><path d="M0 0a8.42 8.42 0 0 0-11.17 4.125 8.419 8.419 0 0 0 4.125 11.17A8.42 8.42 0 0 0 0 0" style="fill-opacity:1;fill-rule:nonzero;stroke:none" transform="translate(396.59 243.496)" fill="#000000" data-original="#000000"></path><path d="M0 0a8.42 8.42 0 0 0-11.17 4.125 8.419 8.419 0 0 0 4.125 11.17A8.42 8.42 0 0 0 0 0" style="fill-opacity:1;fill-rule:nonzero;stroke:none" transform="translate(425.499 169.217)" fill="#000000" data-original="#000000"></path><path d="M0 0a8.42 8.42 0 1 0 16.84 0A8.42 8.42 0 0 0 0 0" style="fill-opacity:1;fill-rule:nonzero;stroke:none" transform="translate(245.94 178.952)" fill="#000000" data-original="#000000"></path><path d="M0 0h-457c-11.046 0-20 8.955-20 20v26.993c0 11.046 8.954 20 20 20H0c11.046 0 20-8.954 20-20V20C20 8.955 11.046 0 0 0Z" style="stroke-width:15;stroke-linecap:round;stroke-linejoin:round;stroke-miterlimit:10;stroke-dasharray:none;stroke-opacity:1" transform="translate(484.5 40.989)" fill="none" stroke="#000000" stroke-width="15" stroke-linecap="round" stroke-linejoin="round" stroke-miterlimit="10" stroke-dasharray="none" stroke-opacity="" data-original="#000000" class=""></path></g></g></svg>