<svg xmlns="http://www.w3.org/2000/svg" version="1.1" xmlns:xlink="http://www.w3.org/1999/xlink" width="42" height="42" x="0" y="0" viewBox="0 0 58 59" style="enable-background:new 0 0 512 512" xml:space="preserve" class=""><g><g fill="none" fill-rule="nonzero"><path fill="#a56a43" d="M54.05 40.95C56.56 42.72 58 44.79 58 47c0 6.63-12.98 12-29 12S0 53.63 0 47c0-2.21 1.44-4.28 3.95-6.05z" data-original="#a56a43"></path><path fill="#f0c419" d="M12 15 3 44c0 4.971 11.641 9 26 9s26-4.029 26-9l-9-29" data-original="#f0c419"></path><path fill="#df4d60" d="M35.61 9.47C41.71 10.38 46 12.52 46 15c0 3.31-7.61 6-17 6s-17-2.69-17-6c0-2.58 4.62-4.78 11.09-5.63z" data-original="#df4d60"></path><path fill="#802f34" d="M31.421 16.845a7.756 7.756 0 0 0 4.167-4.834 3.7 3.7 0 0 0 .087-.449c.35-1.988-.44-3.9-2.151-4.345a4.288 4.288 0 0 0-3.467.623 4.308 4.308 0 0 0-2.721-2.24c-1.841-.473-3.58 1.046-4.134 3.18a7.476 7.476 0 0 0 .285 4.368v.01a9 9 0 0 0 2.76 3.795z" data-original="#802f34"></path><path fill="#c03a2b" d="M27.99 18a28.28 28.28 0 0 1-4.373-.292 1 1 0 0 1 .335-1.972c3.929.484 7.911.295 11.776-.559a1 1 0 1 1 .419 1.955A39 39 0 0 1 27.99 18z" data-original="#c03a2b"></path><path fill="#24ae5f" d="M30.246 8.552a1 1 0 0 1-1-.978 7.547 7.547 0 0 1 4.19-6.782 8.085 8.085 0 0 1 8.1.655 1 1 0 0 1-1.168 1.624 6.117 6.117 0 0 0-6.049-.486 5.587 5.587 0 0 0-3.076 4.944 1 1 0 0 1-.977 1.022z" data-original="#24ae5f" class=""></path><path fill="#c03a2b" d="M46.86 30.93c.15 1.65 1.43 2.94 1.52 4.6a2.1 2.1 0 0 1-3.19 2.11 7.2 7.2 0 0 1-2.1-2.05 8.162 8.162 0 0 0-1.74-1.96 2.65 2.65 0 0 0-2.47-.47 2.99 2.99 0 0 0-1.5 3.15c.172.987.485 1.943.93 2.84.54 1.27 1.12 2.74.66 4.13a3.228 3.228 0 0 1-1.74 1.9 3.267 3.267 0 0 1-3.29-.32 4.356 4.356 0 0 1-1.36-1.96c-.7-1.92-.45-4.64-2.52-5.77a2.272 2.272 0 0 0-1.9-.18 2.22 2.22 0 0 0-1.23 2.16c-.16 2.46 0 5.43-2.6 6.73a3.1 3.1 0 0 1-3.4-.35 3.235 3.235 0 0 1-.96-2.06 7.046 7.046 0 0 1 .54-2.99 23.1 23.1 0 0 0 1-2.9 4.245 4.245 0 0 0-.29-2.98 2.382 2.382 0 0 0-3.96-.41c-1.15 1.3-1.2 3.11-2 4.59a2.616 2.616 0 0 1-1.84 1.47c-2.45.28-2.93-3.17-2.71-4.86.29-2.27 1.39-4.41 1.35-6.73-.04-1.76-1.17-3.94-3.02-4.08L12 15c0 3.31 7.61 6 17 6s17-2.69 17-6l3.79 12.21a3.423 3.423 0 0 0-2.93 3.72z" data-original="#c03a2b"></path></g></g></svg>