<svg xmlns="http://www.w3.org/2000/svg" version="1.1" xmlns:xlink="http://www.w3.org/1999/xlink" width="42" height="42" x="0" y="0" viewBox="0 0 60 60" style="enable-background:new 0 0 512 512" xml:space="preserve" class=""><g><path fill="#000000" fill-rule="nonzero" d="m55.916 40.355-7.935-25.569c-.2-2.806-4.215-5.149-10.638-6.208A4.1 4.1 0 0 0 32.414 6.2a5.676 5.676 0 0 1 2.908-3.614 6.117 6.117 0 0 1 6.049.486 1 1 0 0 0 1.168-1.624A7.784 7.784 0 0 0 30.494 5.61c-2.964-2.393-6.331-.536-7.243 2.872-5.445.819-10.987 2.859-11.227 6.29l-7.94 25.583C1.419 42.325 0 44.614 0 47c0 7.29 13.178 13 30 13s30-5.71 30-13c0-2.386-1.419-4.675-4.084-6.645zM10.693 25.808a3.659 3.659 0 0 1 1.367 2.829c.037 2.112-1.044 4.248-1.341 6.584-.151 1.156-.07 3.713 1.315 5.119 1.348 1.367 3.777 1.3 5.106-1.125.821-1.518.926-3.336 1.872-4.405a1.382 1.382 0 0 1 2.336.24c1.252 2.227-1.665 5.207-1.373 8.484a3.914 3.914 0 0 0 5.8 3.2c4.478-2.239 2.236-8.279 3.75-8.854.353-.11.736-.063 1.053.128 2.2 1.2.826 5.408 3.754 7.647a4.3 4.3 0 0 0 6.585-2.061c.922-2.783-1.288-5.267-1.545-7.394a2.067 2.067 0 0 1 .873-2.11 1.694 1.694 0 0 1 1.519.352c1.245.894 1.9 2.909 3.928 4.066a3.09 3.09 0 0 0 4.685-3.032c-.1-1.811-1.405-3.33-1.523-4.638a2.508 2.508 0 0 1 .834-2.079c.138-.11.287-.203.446-.28L55 44.137C54.751 47.885 44.555 52 30 52S5.249 47.885 5.005 44.137zm36.082-8.159 2.759 8.892a4.429 4.429 0 0 0-2.67 4.48c.168 1.85 1.443 3.2 1.517 4.558.051 1.031-.7 1.763-1.694 1.192-1.557-.886-2.159-2.807-3.741-3.943a3.624 3.624 0 0 0-3.437-.6 3.962 3.962 0 0 0-2.122 4.2c.3 2.468 2.247 4.678 1.634 6.533a2.3 2.3 0 0 1-3.473 1.1c-2.152-1.644-.72-6.017-4.005-7.811a3.269 3.269 0 0 0-2.738-.238c-3.526 1.339-.41 7.173-3.922 8.929a2.1 2.1 0 0 1-2.279-.193c-1.708-1.559.395-4.78.882-7 1.1-4.989-3.6-6.972-5.975-4.267a7.874 7.874 0 0 0-1.483 3.058c-.266.864-.753 2.563-1.721 2.67a.942.942 0 0 1-.848-.279 4.849 4.849 0 0 1-.757-3.46c.286-2.232 1.4-4.333 1.358-6.88a5.444 5.444 0 0 0-2.768-4.72l1.933-6.228c5.622 5.736 27.839 5.828 33.55.007zM28.082 6.569a3.3 3.3 0 0 1 2.059 1.67 1.006 1.006 0 0 0 1.518.4 3.284 3.284 0 0 1 2.616-.453c1.379.355 1.7 2.187 1.346 3.57a6.694 6.694 0 0 1-3.5 4.107 36.613 36.613 0 0 1-4.468.108c-4.671-4.164-2.304-10.101.429-9.402zm-5.061 3.97a8.876 8.876 0 0 0 1.727 5.206.99.99 0 0 0-.131 1.966c4.179.525 8.417.33 12.53-.576a1 1 0 1 0-.419-1.955c-.267.058-.528.105-.79.156a7.415 7.415 0 0 0 1.814-4.659C43.17 11.685 46 13.561 46 15c0 2.088-6.087 5-16 5s-16-2.912-16-5c0-1.5 3.152-3.5 9.021-4.461zM30 58C14.822 58 2 52.962 2 47a4.861 4.861 0 0 1 1.012-2.824C3.263 50.557 17.031 54 30 54s26.737-3.443 26.988-9.824c.627.811.98 1.8 1.012 2.824 0 5.962-12.822 11-28 11z" data-original="#000000" class=""></path></g></svg>