<svg xmlns="http://www.w3.org/2000/svg" version="1.1" xmlns:xlink="http://www.w3.org/1999/xlink" width="42" height="42" x="0" y="0" viewBox="0 0 490.369 490.369" style="enable-background:new 0 0 512 512" xml:space="preserve" class=""><g><path fill="#ffe5c2" d="M383.148 118.315c-6.6 7.34-16.88 9.14-25.28 5.38-.01 0-.01 0-.02-.01-.21-.1-.41-.2-.61-.3l.003-.005a21.816 21.816 0 0 1-5.933-4.205l-.03-.03a2.924 2.924 0 0 0-4.11.01l-79.47 79.47-10.8-10.79v-.01l-14.69-14.69 79.47-79.47a2.91 2.91 0 0 0 0-4.12l-.02-.02c-8.84-8.84-8.56-23.36.86-31.84 1.2-1.08 2.49-1.99 3.85-2.75 8.25-4.64 18.99-3.5 26.02 3.28 5.73 5.52 7.79 13.36 6.2 20.55-.45 2.06 1.43 3.93 3.48 3.48 7.2-1.59 15.04.47 20.56 6.2 7.89 8.19 8.14 21.42.52 29.87z" data-original="#ffe5c2"></path><g fill="#fed2a4"><path d="M351.278 119.145a2.924 2.924 0 0 0-4.11.01l-79.47 79.47-10.8-10.79v-.01l72.98-73.13c4.89-4.89 12.86-4.77 17.61.26 1.05 1.12 3.49 3.85 3.79 4.19zM383.148 118.315c-6.6 7.34-16.88 9.14-25.28 5.38-.01 0-.01 0-.02-.01-.21-.1-.41-.2-.61-.3.78-1.12 1.78-2.4 3.14-3.81 8.1-8.37 9.07-21.6 1.39-30.35-5.73-6.53-14.32-8.8-22.04-6.79-1.75.45-3.34-1.17-2.89-2.92 1.91-7.39-.09-15.59-6.02-21.3-1.35-1.31-2.86-2.39-4.45-3.28 8.25-4.64 18.99-3.5 26.02 3.28 5.73 5.52 7.79 13.36 6.2 20.55-.45 2.06 1.43 3.93 3.48 3.48 7.2-1.59 15.04.47 20.56 6.2 7.89 8.19 8.14 21.42.52 29.87z" fill="#fed2a4" data-original="#fed2a4"></path></g><path fill="#ffe5c2" d="M484.81 161.612c-6.6 7.34-16.88 9.14-25.28 5.38-.01 0-.01 0-.02-.01-.21-.1-.41-.2-.61-.3l.003-.005a21.816 21.816 0 0 1-5.933-4.205l-.03-.03a2.924 2.924 0 0 0-4.11.01l-79.47 79.47-10.8-10.79v-.01l-14.69-14.69 79.47-79.47a2.91 2.91 0 0 0 0-4.12l-.02-.02c-8.84-8.84-8.56-23.36.86-31.84 1.2-1.08 2.49-1.99 3.85-2.75 8.25-4.64 18.99-3.5 26.02 3.28 5.73 5.52 7.79 13.36 6.2 20.55-.45 2.06 1.43 3.93 3.48 3.48 7.2-1.59 15.04.47 20.56 6.2 7.89 8.19 8.14 21.42.52 29.87z" data-original="#ffe5c2"></path><g fill="#fed2a4"><path d="M452.94 162.442a2.924 2.924 0 0 0-4.11.01l-79.47 79.47-10.8-10.79v-.01l72.98-73.13c4.89-4.89 12.86-4.77 17.61.26 1.05 1.12 3.49 3.85 3.79 4.19zM484.81 161.612c-6.6 7.34-16.88 9.14-25.28 5.38-.01 0-.01 0-.02-.01-.21-.1-.41-.2-.61-.3.78-1.12 1.78-2.4 3.14-3.81 8.1-8.37 9.07-21.6 1.39-30.35-5.73-6.53-14.32-8.8-22.04-6.79-1.75.45-3.34-1.17-2.89-2.92 1.91-7.39-.09-15.59-6.02-21.3-1.35-1.31-2.86-2.39-4.45-3.28 8.25-4.64 18.99-3.5 26.02 3.28 5.73 5.52 7.79 13.36 6.2 20.55-.45 2.06 1.43 3.93 3.48 3.48 7.2-1.59 15.04.47 20.56 6.2 7.89 8.19 8.14 21.42.52 29.87z" fill="#fed2a4" data-original="#fed2a4"></path></g><path fill="#c57a44" d="m314.589 201.976-49.4 55.55c-5.85 6.58-12.85 11.5-20.41 14.74-21.08 9.06-46.57 5.08-63.93-12.28-23.59-23.59-22.46-62.17 2.46-84.34l55.55-49.4c13.2-11.74 33.26-11.15 45.74 1.34l28.65 28.65c3.45 3.45 5.99 7.47 7.6 11.77 4.279 11.27 2.24 24.41-6.26 33.97z" data-original="#c57a44"></path><path fill="#b26c3d" d="m314.589 201.976-49.4 55.55c-5.85 6.58-12.85 11.5-20.41 14.74-3.3-19.06 2.98-39.4 18.6-53.29l55.55-49.4a27.5 27.5 0 0 1 1.92-1.57c4.279 11.27 2.24 24.41-6.26 33.97z" data-original="#b26c3d"></path><path fill="#b26c3d" d="m313.253 156.234-28.651-28.651c-9.257-9.257-22.671-11.967-34.369-7.972a33.203 33.203 0 0 1 12.798 7.972l28.651 28.651c12.487 12.487 13.074 32.545 1.337 45.741l-49.404 55.548a57.678 57.678 0 0 1-32.542 18.433c19.291 3.627 40.017-2.585 54.112-18.433l49.404-55.548c11.738-13.196 11.151-33.254-1.336-45.741z" data-original="#b26c3d"></path><path fill="#c57a44" d="M408.058 294.015c0 16.3-6.61 31.05-17.28 41.73-10.68 10.67-25.43 17.28-41.73 17.28l-12.47 1.68v.01l-109.3 14.77-149.93-16.46-15.2-58.67c-13.98-53.99 26.77-106.65 82.54-106.65h40.09c15.75 0 31.2 4.24 44.74 12.28l33.13 19.66 5.19 3.08a87.612 87.612 0 0 0 44.74 12.28h36.47c15.67 0 29.91 6.11 40.48 16.07 11.41 10.76 18.53 26.02 18.53 42.94z" data-original="#c57a44"></path><path fill="#b26c3d" d="M408.058 294.015c0 16.3-6.61 31.05-17.28 41.73-10.68 10.67-25.43 17.28-41.73 17.28l-12.47 1.68-9.1-1.68c16.29 0 31.05-6.61 41.72-17.28 10.68-10.68 17.28-25.43 17.28-41.73 0-11.03-3.03-21.35-8.3-30.18l-32.93 37.01c-22.17 24.93-60.75 26.06-84.34 2.47-18.3-18.3-21.71-45.59-10.7-67.27 2.43-4.77.75-10.54-3.85-13.26l-.09-.06-38.32-22.74a87.612 87.612 0 0 0-44.74-12.28h21.57c15.75 0 31.2 4.24 44.74 12.28l33.13 19.66 5.19 3.08a87.612 87.612 0 0 0 44.74 12.28h36.47c15.67 0 29.91 6.11 40.48 16.07 11.41 10.76 18.53 26.02 18.53 42.94z" data-original="#b26c3d"></path><path fill="#c57a44" d="M282.48 303.315c-23.59-23.59-22.461-62.169 2.466-84.34l55.548-49.404c13.196-11.736 33.253-11.15 45.741 1.338l28.651 28.651c12.487 12.487 13.074 32.545 1.338 45.741l-49.404 55.548c-22.17 24.927-60.75 26.055-84.34 2.466z" data-original="#c57a44"></path><path fill="#b26c3d" d="m414.887 199.56-28.651-28.651c-9.257-9.257-22.671-11.967-34.369-7.972a33.203 33.203 0 0 1 12.798 7.972l28.651 28.651c12.487 12.487 13.074 32.545 1.338 45.741l-49.404 55.548a57.678 57.678 0 0 1-32.542 18.433c19.291 3.627 40.017-2.585 54.112-18.433l49.404-55.548c11.737-13.197 11.15-33.254-1.337-45.741z" data-original="#b26c3d"></path><path fill="#ffe07d" d="m152.108 353.025-62.87 13.648-62.87-13.648c0-14.75 5.08-28.31 13.58-39.03 3.11-3.93 6.69-7.49 10.65-10.57a62.636 62.636 0 0 1 38.64-13.27c14.75 0 28.31 5.08 39.03 13.58 3.94 3.12 7.48 6.69 10.57 10.65a62.636 62.636 0 0 1 13.27 38.64z" data-original="#ffe07d"></path><path fill="#ffd064" d="M89.236 290.151c-3.68 0-7.279.334-10.785.941 29.582 5.117 52.088 30.888 52.088 61.932l3.953 3.826 17.617-3.826c0-34.724-28.149-62.873-62.873-62.873z" data-original="#ffd064"></path><path fill="#ffd064" d="m138.838 314.385-38.64 38.64-5.3 5.3c-1.47 1.47-3.39 2.2-5.31 2.2s-3.84-.73-5.3-2.2l-5.3-5.3-39.04-39.03c3.11-3.93 6.69-7.49 10.65-10.57l38.99 38.99 38.68-38.68c3.94 3.12 7.48 6.69 10.57 10.65z" data-original="#ffd064"></path><path fill="#ffa9a9" d="M81.393 106.334a7.5 7.5 0 0 1-6.765-10.731l2.928-6.138a21.261 21.261 0 0 0 .001-18.394l-2.929-6.139a7.502 7.502 0 0 1 3.54-9.999 7.503 7.503 0 0 1 9.999 3.541l2.928 6.138c4.748 9.949 4.748 21.362-.001 31.312l-2.927 6.137a7.5 7.5 0 0 1-6.774 4.273z" data-original="#f9f3f1" class=""></path><path fill="#1bb3ae" d="M116.12 129.595a7.502 7.502 0 0 1-6.765-10.731l2.928-6.138a21.261 21.261 0 0 0 .001-18.394l-2.929-6.139a7.502 7.502 0 0 1 3.54-9.999 7.502 7.502 0 0 1 9.999 3.541l2.928 6.138c4.748 9.949 4.748 21.362-.001 31.312l-2.927 6.136a7.5 7.5 0 0 1-6.774 4.274z" data-original="#ede4e0" class=""></path><path fill="#ffa9a9" d="M158.115 96.703a7.5 7.5 0 0 1-6.764-10.732l2.929-6.138a21.268 21.268 0 0 0-.001-18.394l-2.928-6.137a7.5 7.5 0 0 1 13.537-6.46l2.929 6.138c4.747 9.95 4.747 21.363 0 31.312l-2.929 6.138a7.499 7.499 0 0 1-6.773 4.273z" data-original="#f9f3f1" class=""></path><path fill="#b3e59f" d="M159.608 360.508a7.495 7.495 0 0 1-1.931-.254 7.49 7.49 0 0 1-5.568-7.23c0-.594.066-14.741 5.846-30.932 7.863-22.033 22.54-37.368 42.442-44.348a7.5 7.5 0 0 1 4.965 14.154c-15.578 5.463-26.726 17.181-33.133 34.826a79.241 79.241 0 0 0-1.067 3.14c9.332-6.846 22.408-12.865 39.542-12.865 4.143 0 7.5 3.358 7.5 7.5s-3.357 7.5-7.5 7.5c-29.964 0-43.999 23.732-44.582 24.743a7.53 7.53 0 0 1-6.514 3.766z" data-original="#b3e59f" class=""></path><path fill="#9e9797" d="m445.322 394.086-200.053-10.519-200.054 10.519 39.436 39.934a39.612 39.612 0 0 0 28.184 11.778h264.866a39.61 39.61 0 0 0 28.184-11.778z" data-original="#9e9797" class=""></path><path fill="#807777" d="m423.752 394.086-39.436 39.934a39.612 39.612 0 0 1-28.184 11.778h21.57a39.61 39.61 0 0 0 28.184-11.778l39.436-39.934-18.136-.954z" data-original="#807777" class=""></path><path fill="#dad8db" d="M463.456 394.086H25.626a21.323 21.323 0 0 1-20.182-14.442L.497 365.135c-2.025-5.94 2.39-12.111 8.667-12.111h471.111c6.36 0 10.783 6.324 8.601 12.298l-5.391 14.757a21.325 21.325 0 0 1-20.029 14.007z" data-original="#dad8db"></path><path fill="#c8c5c9" d="M463.225 353.023a8.054 8.054 0 0 1 4.8 10.328l-6.111 16.728a21.324 21.324 0 0 1-20.029 14.007h21.571a21.321 21.321 0 0 0 20.028-14.007l5.391-14.757c2.182-5.974-2.241-12.298-8.601-12.298h-17.049z" data-original="#c8c5c9"></path></g></svg>