<svg xmlns="http://www.w3.org/2000/svg" version="1.1" xmlns:xlink="http://www.w3.org/1999/xlink" width="42" height="42" x="0" y="0" viewBox="0 0 682.667 682.667" style="enable-background:new 0 0 512 512" xml:space="preserve" class=""><g><defs><clipPath id="a" clipPathUnits="userSpaceOnUse"><path d="M0 512h512V0H0Z" fill="#000000" data-original="#000000"></path></clipPath></defs><g clip-path="url(#a)" transform="matrix(1.33333 0 0 -1.33333 0 682.667)"><path d="M0 0h-323.188a21.323 21.323 0 0 0-20.182 14.442l-9.076 26.621h497l-9.884-27.056A21.321 21.321 0 0 0 114.642 0H35.041" style="stroke-width:15;stroke-linecap:round;stroke-linejoin:round;stroke-miterlimit:10;stroke-dasharray:none;stroke-opacity:1" transform="translate(359.946 110.85)" fill="none" stroke="#000000" stroke-width="15" stroke-linecap="round" stroke-linejoin="round" stroke-miterlimit="10" stroke-dasharray="none" stroke-opacity="" data-original="#000000" class=""></path><path d="m0 0 39.436-39.934A39.61 39.61 0 0 1 67.62-51.712h264.866a39.608 39.608 0 0 1 28.184 11.778L400.106 0" style="stroke-width:15;stroke-linecap:round;stroke-linejoin:round;stroke-miterlimit:10;stroke-dasharray:none;stroke-opacity:1" transform="translate(56.348 110.85)" fill="none" stroke="#000000" stroke-width="15" stroke-linecap="round" stroke-linejoin="round" stroke-miterlimit="10" stroke-dasharray="none" stroke-opacity="" data-original="#000000" class=""></path><path d="m0 0-.439 1.71C-14.42 55.7 26.33 108.36 82.101 108.36h40.089c15.75 0 31.2-4.24 44.74-12.28l38.32-22.74c3-1.78 6.09-3.37 9.25-4.78" style="stroke-width:15;stroke-linecap:round;stroke-linejoin:round;stroke-miterlimit:10;stroke-dasharray:none;stroke-opacity:1" transform="translate(73.72 208.87)" fill="none" stroke="#000000" stroke-width="15" stroke-linecap="round" stroke-linejoin="round" stroke-miterlimit="10" stroke-dasharray="none" stroke-opacity="" data-original="#000000" class=""></path><path d="M0 0h271.7c16.3 0 31.04 6.6 41.72 17.28 10.681 10.68 17.28 25.44 17.28 41.73 0 11.03-3.03 21.36-8.3 30.19" style="stroke-width:15;stroke-linecap:round;stroke-linejoin:round;stroke-miterlimit:10;stroke-dasharray:none;stroke-opacity:1" transform="translate(88.48 151.91)" fill="none" stroke="#000000" stroke-width="15" stroke-linecap="round" stroke-linejoin="round" stroke-miterlimit="10" stroke-dasharray="none" stroke-opacity="" data-original="#000000" class=""></path><path d="M0 0v0c-23.589 23.589-22.461 62.169 2.467 84.34l55.548 49.404c13.196 11.736 33.254 11.15 45.741-1.338l28.65-28.651c12.488-12.487 13.074-32.545 1.338-45.74L84.34 2.466C62.169-22.461 23.59-23.589 0 0Z" style="stroke-width:15;stroke-linecap:round;stroke-linejoin:round;stroke-miterlimit:10;stroke-dasharray:none;stroke-opacity:1" transform="translate(293.612 201.62)" fill="none" stroke="#000000" stroke-width="15" stroke-linecap="round" stroke-linejoin="round" stroke-miterlimit="10" stroke-dasharray="none" stroke-opacity="" data-original="#000000" class=""></path><path d="m0 0 13 13c.59-.78 1.23-1.52 1.94-2.23 8.56-8.57 22.46-8.57 31.02 0 8.57 8.57 8.57 22.46 0 31.03-6.97 6.97-17.47 8.27-25.76 3.89 4.38 8.28 3.08 18.79-3.889 25.76-8.571 8.57-22.46 8.57-31.031 0-8.56-8.57-8.56-22.46 0-31.02.71-.71 1.45-1.35 2.23-1.94L-50.189.79" style="stroke-width:15;stroke-linecap:round;stroke-linejoin:round;stroke-miterlimit:10;stroke-dasharray:none;stroke-opacity:1" transform="translate(449.14 331.66)" fill="none" stroke="#000000" stroke-width="15" stroke-linecap="round" stroke-linejoin="round" stroke-miterlimit="10" stroke-dasharray="none" stroke-opacity="" data-original="#000000" class=""></path><path d="m0 0 39.436 35.021C52.635 46.76 72.695 46.17 85.175 33.68l28.65-28.65c7.95-7.949 11.08-18.96 9.28-29.32" style="stroke-width:15;stroke-linecap:round;stroke-linejoin:round;stroke-miterlimit:10;stroke-dasharray:none;stroke-opacity:1" transform="translate(210.556 343.669)" fill="none" stroke="#000000" stroke-width="15" stroke-linecap="round" stroke-linejoin="round" stroke-miterlimit="10" stroke-dasharray="none" stroke-opacity="" data-original="#000000" class=""></path><path d="m0 0 37.7 37.7c.59-.77 1.24-1.52 1.94-2.22 8.57-8.57 22.46-8.57 31.03 0s8.57 22.46 0 31.02c-6.98 6.98-17.48 8.28-25.76 3.89 4.38 8.29 3.08 18.79-3.889 25.77-8.571 8.56-22.461 8.57-31.031 0s-8.57-22.46 0-31.03c.71-.71 1.45-1.35 2.22-1.94l-37.7-37.7" style="stroke-width:15;stroke-linecap:round;stroke-linejoin:round;stroke-miterlimit:10;stroke-dasharray:none;stroke-opacity:1" transform="translate(322.8 350.28)" fill="none" stroke="#000000" stroke-width="15" stroke-linecap="round" stroke-linejoin="round" stroke-miterlimit="10" stroke-dasharray="none" stroke-opacity="" data-original="#000000" class=""></path><path d="M0 0c0 34.724-28.149 62.873-62.873 62.873S-125.745 34.724-125.745 0Z" style="stroke-width:15;stroke-linecap:round;stroke-linejoin:round;stroke-miterlimit:10;stroke-dasharray:none;stroke-opacity:1" transform="translate(163.241 151.912)" fill="none" stroke="#000000" stroke-width="15" stroke-linecap="round" stroke-linejoin="round" stroke-miterlimit="10" stroke-dasharray="none" stroke-opacity="" data-original="#000000" class=""></path><path d="m0 0 44.634-44.634L88.915-.354" style="stroke-width:15;stroke-linecap:round;stroke-linejoin:round;stroke-miterlimit:10;stroke-dasharray:none;stroke-opacity:1" transform="translate(56.088 196.545)" fill="none" stroke="#000000" stroke-width="15" stroke-linecap="round" stroke-linejoin="round" stroke-miterlimit="10" stroke-dasharray="none" stroke-opacity="" data-original="#000000" class=""></path><path d="m0 0 2.928-6.138a28.851 28.851 0 0 0 0-24.853L0-37.129" style="stroke-width:15;stroke-linecap:round;stroke-linejoin:round;stroke-miterlimit:10;stroke-dasharray:none;stroke-opacity:1" transform="translate(92.53 443.232)" fill="none" stroke="#000000" stroke-width="15" stroke-linecap="round" stroke-linejoin="round" stroke-miterlimit="10" stroke-dasharray="none" stroke-opacity="" data-original="#000000" class=""></path><path d="m0 0 2.928-6.138a28.851 28.851 0 0 0 0-24.853L0-37.128" style="stroke-width:15;stroke-linecap:round;stroke-linejoin:round;stroke-miterlimit:10;stroke-dasharray:none;stroke-opacity:1" transform="translate(127.257 419.97)" fill="none" stroke="#000000" stroke-width="15" stroke-linecap="round" stroke-linejoin="round" stroke-miterlimit="10" stroke-dasharray="none" stroke-opacity="" data-original="#000000" class=""></path><path d="m0 0 2.929-6.138a28.858 28.858 0 0 0 0-24.853L0-37.128" style="stroke-width:15;stroke-linecap:round;stroke-linejoin:round;stroke-miterlimit:10;stroke-dasharray:none;stroke-opacity:1" transform="translate(169.252 452.862)" fill="none" stroke="#000000" stroke-width="15" stroke-linecap="round" stroke-linejoin="round" stroke-miterlimit="10" stroke-dasharray="none" stroke-opacity="" data-original="#000000" class=""></path><path d="M0 0c-43.271-15.176-43.271-68.203-43.271-68.203s16.126 28.524 51.095 28.524" style="stroke-width:15;stroke-linecap:round;stroke-linejoin:round;stroke-miterlimit:10;stroke-dasharray:none;stroke-opacity:1" transform="translate(206.512 220.114)" fill="none" stroke="#000000" stroke-width="15" stroke-linecap="round" stroke-linejoin="round" stroke-miterlimit="10" stroke-dasharray="none" stroke-opacity="" data-original="#000000" class=""></path></g></g></svg>