<svg xmlns="http://www.w3.org/2000/svg" version="1.1" xmlns:xlink="http://www.w3.org/1999/xlink" width="42" height="42" x="0" y="0" viewBox="0 0 512.001 512.001" style="enable-background:new 0 0 512 512" xml:space="preserve" class=""><g><path d="M288.273 116.102a32.843 32.843 0 0 1-.086-8.382 7.5 7.5 0 0 0-14.897-1.762 47.867 47.867 0 0 0 .125 12.213 7.5 7.5 0 0 0 12.729 4.273 7.488 7.488 0 0 0 2.129-6.342zM172.953 178.912a7.5 7.5 0 0 0-10.534-1.246 47.842 47.842 0 0 0-8.548 8.725 7.499 7.499 0 0 0 5.979 12.021 7.491 7.491 0 0 0 5.99-2.979 32.837 32.837 0 0 1 5.867-5.988 7.5 7.5 0 0 0 1.246-10.533zM159.283 214.98c0-1.406.091-2.82.271-4.206a7.5 7.5 0 0 0-6.475-8.401c-4.105-.536-7.87 2.367-8.402 6.475a47.869 47.869 0 0 0-.007 12.215 7.506 7.506 0 0 0 8.397 6.483 7.5 7.5 0 0 0 6.483-8.395 32.738 32.738 0 0 1-.267-4.171zM229.732 186.429a47.785 47.785 0 0 0-8.54-8.734 7.5 7.5 0 1 0-9.297 11.771 32.795 32.795 0 0 1 5.859 5.994 7.487 7.487 0 0 0 5.995 2.985 7.501 7.501 0 0 0 5.983-12.016zM238.901 208.896a7.504 7.504 0 0 0-8.396-6.483 7.5 7.5 0 0 0-6.483 8.395 32.737 32.737 0 0 1-.005 8.377 7.5 7.5 0 0 0 14.877 1.926 47.869 47.869 0 0 0 .007-12.215zM422.797 150.849h-30.001c-12.407 0-22.501 10.094-22.501 22.501 0 12.406 10.095 22.5 22.501 22.5 4.143 0 7.5-3.357 7.5-7.5s-3.357-7.5-7.5-7.5c-4.136 0-7.5-3.364-7.5-7.5s3.364-7.501 7.5-7.501h30.001c4.136 0 7.5 3.365 7.5 7.501s-3.364 7.5-7.5 7.5c-4.143 0-7.5 3.357-7.5 7.5s3.357 7.5 7.5 7.5c12.407 0 22.501-10.094 22.501-22.5 0-12.407-10.094-22.501-22.501-22.501z" fill="#000000" data-original="#000000"></path><path d="M463.596 119.115c-1.201 0-15.946 4.354-24.001-5-19.824-21.897-58.79-17.619-73.383 8.521 0 .01 0 .01-.01.02-3.296 5.81-9.545 8.842-15.982 8.092l-73.749-73.746a7.503 7.503 0 0 0-10.608 0c-8.663 10.327-15.147 15.99-20.061 33.772l-.001.004c-12.184-3.897-25.241-2.906-36.072 2.694l-16.639-16.64c-8.772-8.771-23.048-8.771-31.822 0-4.956 4.956-7.108 11.667-6.464 18.151-17.081-.102-33.789 9.022-42.017 24.392-1.305 2.438-2.875 4.525-4.666 6.204a7.5 7.5 0 0 0 10.26 10.944c2.984-2.799 5.552-6.186 7.631-10.068 7.215-13.48 24.935-19.99 39.496-14.507 7.513 2.817 13.623-6.646 7.945-12.324l-1.577-1.576c-2.925-2.925-2.925-7.684-.001-10.607 2.925-2.924 7.683-2.924 10.608 0 22.925 22.924 23.393 22.35 23.393 26.517 0 6.732-8.136 9.953-12.785 5.304a7.5 7.5 0 0 0-10.608 10.605c4.237 4.238 9.888 6.572 15.911 6.572a22.425 22.425 0 0 0 22.482-22.481 22.54 22.54 0 0 0-1.597-8.345c7.355-2.871 16.07-2.89 23.926.14a77.38 77.38 0 0 0 43.403 75.54c-2.435 4.135-6.48 6.799-10.56 7.532l-.09.021a43.496 43.496 0 0 0-10.109 3.339c-9.759-31.641-39.26-54.705-74.062-54.705-34.024 0-62.975 22.045-73.375 52.594a7.45 7.45 0 0 0-2.113-4.24c-4.238-4.237-9.889-6.571-15.911-6.571-6.023 0-11.673 2.334-15.91 6.571l-21.216 21.214c-8.772 8.773-8.772 23.048.001 31.82 1.465 1.464 3.385 2.196 5.304 2.196s3.839-.732 5.304-2.196a7.5 7.5 0 0 0 0-10.607c-2.925-2.924-2.925-7.683-.002-10.606l21.216-21.214a7.445 7.445 0 0 1 5.303-2.178c2.015 0 3.898.773 5.303 2.179a7.502 7.502 0 0 0 10.607 0c.115-.115.218-.237.323-.358a77.376 77.376 0 0 0-2.34 18.897 76.918 76.918 0 0 0 4.962 27.213H53.722c-11.043-4.552-16.226-14.887-15.087-24.754.84-7.116-1.259-17.373-16.041-25.842-2.986-1.698-5.394-4.296-6.634-7.188-4.333-9.866 6.895-18.685 17.23-16.323 12.144 2.672 22.44.016 28.942-7.409 7.936-8.833 24.611-7.024 30.529 3.631a7.496 7.496 0 0 0 10.198 2.916 7.5 7.5 0 0 0 2.917-10.197c-10.879-19.595-39.914-22.942-54.864-6.304-3.584 4.091-9.861 3.734-14.447 2.725-11.255-2.561-23.218 1.457-30.464 10.231-11.299 13.684-5.742 32.472 9.158 40.945 9.258 5.304 8.748 9.634 8.578 11.075-1.149 9.952 1.772 20.174 7.876 28.065-7.362 2.223-13.896 6.738-18.722 13.115-7.151 9.446-9.405 21.408-6.186 32.82 13.221 46.862 48.939 87.723 100.78 115.436 1.099 13.813 7.2 26.62 17.346 36.289 10.67 10.169 24.63 15.769 39.308 15.769H341.47c14.677 0 28.637-5.6 39.308-15.769 10.143-9.667 16.245-22.47 17.345-36.276 51.768-27.67 87.463-68.47 100.729-115.269 3.256-11.486 1.008-23.52-6.167-33.012-7.051-9.326-17.758-14.675-29.375-14.675H315.334c5.572-19.292 23.236-32.997 44.028-32.997h.04c14.17 0 27.341 6.44 36.131 17.66a7.467 7.467 0 0 0 5.92 2.88c1.68 0 3.279-.55 4.609-1.59 3.261-2.55 3.841-7.271 1.29-10.53-11.14-14.267-28.533-23.42-47.951-23.42a60.81 60.81 0 0 0-40.952 15.85c-9.449 8.602-15.888 19.835-18.551 32.147h-45.379c-2.363-9.69.336-19.758 6.379-27.377 12.317-15.543 22.865-7.164 35.191-21.14 2.137-2.423 3.637-4.85 4.717-7.157 2.123-4.536 2.623-9.72 3.062-14.708 1.531-17.412 20.274-32.353 39.574-27.175 18.396 5.346 33.748-8.108 35.871-14.69 9.738-17.383 36.435-19.903 49.153-5.77 3.33 3.77 7.59 6.71 12.34 8.52 10.32 3.944 23.096 2.082 26.122 1.04 8.577-1.926 17.168.681 23.011 5.81 12.646 11.117 6.66 26.863-5.52 33.721l-.01.01c-13.28 7.582-23.392 18.731-21.401 33.76 1.597 14.339-4.686 17.43-2.16 23.21 2.68 6.083 11.433 5.944 13.861-.31 5.228-13.495 3.09-25.266 3.09-26.36.03-3.3 1.1-6 3.57-9.04 2.29-2.8 5.9-5.64 10.43-8.21l.01-.01c7.771-4.42 13.901-11.11 17.261-18.83 1.95-4.43 2.931-9 2.931-13.59-.002-22.926-24.495-40.29-48.405-34.782zm-271.81 33.364c29.807 0 54.785 20.979 60.996 48.942a48.692 48.692 0 0 0-3.646 4.084c-6.74 8.52-10.46 19.039-10.47 29.63 0 2.381.192 4.735.561 7.057h-8.704c3.748-8.091-7.398-14.8-12.791-7.666a32.804 32.804 0 0 1-5.867 5.988 7.507 7.507 0 0 0-1.563 1.678h-11.017v-.761c11.529-3.273 20.001-13.889 20.001-26.452 0-4.143-3.357-7.5-7.5-7.5s-7.5 3.357-7.5 7.5c0 6.893-5.608 12.5-12.5 12.5-6.893 0-12.501-5.607-12.501-12.5s5.608-12.5 12.501-12.5a7.5 7.5 0 0 0 7.362-6.081c.045.018.093.03.138.048v-21.467a7.5 7.5 0 0 0-15 0v13.548c-11.529 3.274-20.001 13.889-20.001 26.452 0 12.563 8.472 23.178 20.001 26.452v.761h-11.035a7.494 7.494 0 0 0-1.573-1.7 32.8 32.8 0 0 1-5.86-5.994c-5.401-7.164-16.579-.401-12.782 7.693h-17.49a62.018 62.018 0 0 1-6.263-27.213c0-34.461 28.038-62.499 62.503-62.499zm271.521 104.713c6.875 0 13.22 3.179 17.409 8.721 4.315 5.708 5.665 12.952 3.701 19.876-12.316 43.447-46.185 81.463-95.446 107.217h-244.17c-4.13 0-7.5 3.359-7.5 7.5 0 4.13 3.371 7.5 7.5 7.5h237.822c-3.569 19.315-20.909 34.187-41.156 34.187h-177.33c-22.264 0-41.018-17.979-41.806-40.082-.062-1.689.188-3.73-1.487-6.041-.606-.839-1.571-1.698-2.625-2.242-50.197-25.804-84.673-64.229-97.079-108.2-1.932-6.851-.581-14.028 3.709-19.695 4.204-5.554 10.563-8.739 17.448-8.739 20.879-.002 400.003-.002 421.01-.002zM303.335 141.637c-.966-4.38-3.892-4.055-8.658-10.243a7.5 7.5 0 0 0-10.52-1.362c-3.282 2.524-3.891 7.238-1.362 10.519a47.898 47.898 0 0 0 8.634 8.642 7.466 7.466 0 0 0 4.307 1.555c-2.911 4.548-5.035 9.512-6.158 15.16-33.657-19.079-41.508-63.352-18.307-92.891l25.154 25.153a27.335 27.335 0 0 0-3.485 13.408c0 7.346 2.861 14.252 8.054 19.446a7.5 7.5 0 1 0 10.608-10.607 12.416 12.416 0 0 1-3.661-8.839c0-.594.056-1.178.137-1.756l19.457 19.456c-8.607 1.594-16.871 5.595-24.2 12.359z" fill="#000000" data-original="#000000"></path></g></svg>