<svg xmlns="http://www.w3.org/2000/svg" version="1.1" xmlns:xlink="http://www.w3.org/1999/xlink" width="42" height="42" x="0" y="0" viewBox="0 0 512 512" style="enable-background:new 0 0 512 512" xml:space="preserve" class=""><g><path d="M427.528 233.746c1.1 4.918 1.969 9.911 2.653 15.265l15.871-2.031c-.749-5.85-1.7-11.321-2.911-16.728Z" fill="#000000" data-original="#000000" class=""></path><path d="M452.06 136a24.027 24.027 0 0 0-24-24h-16.74a47.9 47.9 0 0 0 4.531-16.917c1.664-21.374-10.919-40.3-29.041-45.6a32.457 32.457 0 0 0-26.475-38.459l-3.6-.6a32.663 32.663 0 0 0-35.471 19.961l-.18.451a32.837 32.837 0 0 0-3.346-6.2 32.192 32.192 0 0 0-21.4-13.612l-3.6-.6a32.664 32.664 0 0 0-35.471 19.961l-7.084 17.708c-.3-.013-.606-.032-.908-.039L242.2 30.381a32.646 32.646 0 0 0-35.471-19.961l-3.6.6a32.444 32.444 0 0 0-26.573 37.906 37.03 37.03 0 0 0-5.323 1.608l-4.492-11.229a32.65 32.65 0 0 0-35.47-19.961l-3.605.6a32.458 32.458 0 0 0-26.474 38.463l.3 1.461A38.7 38.7 0 0 0 84.3 77.179a46.134 46.134 0 0 0-3.291 32.646c.2.759.417 1.509.648 2.253A24.027 24.027 0 0 0 59.5 136v24a24.027 24.027 0 0 0 24 24h.771a759.96 759.96 0 0 1-3.068 6.384c-12.432 25.637-25.289 52.146-20.782 116.255a378.65 378.65 0 0 0 27.414 117.01L70.777 457a26.354 26.354 0 0 0 1.208 26.309C79.783 495.644 93.64 496 95.194 496a7.965 7.965 0 0 0 1.461-.135 875.839 875.839 0 0 1 158.368-14.689h1.17a875.783 875.783 0 0 1 159.56 14.69 7.965 7.965 0 0 0 1.461.135 27.218 27.218 0 0 0 23.42-13.029 26.4 26.4 0 0 0 1-25.97l-17.2-33.626a448.8 448.8 0 0 0 23.211-125.442c.51-12.737.477-23.982-.1-34.378l-15.975.887c.549 9.883.578 20.629.09 32.853a432.962 432.962 0 0 1-23.452 124.095 8 8 0 0 0 .438 6.254l18.74 36.644a10.367 10.367 0 0 1-.4 10.335 11.3 11.3 0 0 1-9.128 5.362 891.7 891.7 0 0 0-161.665-14.809H255a891.869 891.869 0 0 0-160.339 14.786c-1.669-.159-6.481-.979-9.151-5.2a10.359 10.359 0 0 1-.486-10.475l18.74-36.644a8 8 0 0 0 .252-6.742 362.957 362.957 0 0 1-27.634-115.384c-4.207-59.849 7.172-83.312 19.218-108.152 2.091-4.311 4.233-8.731 6.3-13.365H128V168H83.5a8.009 8.009 0 0 1-8-8v-24a8.009 8.009 0 0 1 8-8h344.56a8.009 8.009 0 0 1 8 8v24a8.009 8.009 0 0 1-8 8H176v16h234.122c1.951 5.32 3.916 10.231 5.831 15.019 2.636 6.588 5.125 12.811 7.338 19.492l15.189-5.029c-2.366-7.145-4.943-13.586-7.672-20.406a788.544 788.544 0 0 1-3.586-9.075h.837a24.027 24.027 0 0 0 24-24ZM399.9 93.841A30.8 30.8 0 0 1 392.31 112h-11.051c-6.712-18.228.634-36.277 5.525-45.292 8.536 4.786 14.033 15.361 13.116 27.133ZM358.813 112a29.541 29.541 0 0 1-6.839-18.159c.063-1.2.088-2.387.063-3.566 0-.053 0-.106.008-.159.931-11.955 8.205-21.672 17.587-24.936-5.145 11.374-10.032 28.48-5.174 46.82Zm-63.944 0a29.643 29.643 0 0 1-6.856-18.84c.024-.653.032-1.3.03-1.95.016-.365.028-.729.056-1.094 1.2-15.393 12.909-27.082 26.1-26.054 12.134.945 21.355 12.321 21.828 26.116a48.696 48.696 0 0 0-.058 3.393c-.006.09-.008.18-.015.27A30.789 30.789 0 0 1 328.365 112ZM256 112V80h-16v32h-9.168a29.678 29.678 0 0 1-6.818-18.839c.024-.636.031-1.268.03-1.9.016-.367.028-.734.056-1.1a30.168 30.168 0 0 1 8.894-19.51 22.223 22.223 0 0 1 17.206-6.546c12.323.959 21.647 12.677 21.848 26.763a46.997 46.997 0 0 0-.027 1.838c-.016.392-.035.784-.066 1.178A30.808 30.808 0 0 1 264.4 112Zm-90.616 0 .869-.692a31.227 31.227 0 0 1 2.74-40.658 22.22 22.22 0 0 1 17.207-6.545c12.331.96 21.66 12.692 21.849 26.79a47.618 47.618 0 0 0-.028 1.811c-.016.392-.035.784-.066 1.178A30.808 30.808 0 0 1 200.4 112ZM354.1 26.2l3.6.6a16.457 16.457 0 0 1 13.423 19.5l-.441 2.176a40.334 40.334 0 0 0-26.339 17.09 40.433 40.433 0 0 0-14.611-13.3l6.379-15.947A16.549 16.549 0 0 1 354.1 26.2Zm-64 0 3.6.6a16.457 16.457 0 0 1 13.423 19.5l-.443 2.186a40.339 40.339 0 0 0-26.32 17.146 40.433 40.433 0 0 0-14.636-13.325l6.393-15.982A16.549 16.549 0 0 1 290.1 26.2Zm-95.2 7.5a16.32 16.32 0 0 1 10.851-6.9l3.6-.6a16.542 16.542 0 0 1 17.985 10.121l6 15a40.44 40.44 0 0 0-11.45 7.8 43.287 43.287 0 0 0-1.589 1.618l-4.462-22.31-15.689 3.139 2.216 11.081A36.86 36.86 0 0 0 192.88 49l-.547-2.7a16.321 16.321 0 0 1 2.573-12.595Zm-75.456 8.93a16.318 16.318 0 0 1 10.849-6.9l3.605-.6a16.549 16.549 0 0 1 17.984 10.121l5.683 14.207a44.406 44.406 0 0 0-8.559 11.812c-8.136-9.747-19.848-15.521-31.976-15.247l-.16-.791a16.32 16.32 0 0 1 2.574-12.602Zm-20.9 41.83a22.22 22.22 0 0 1 14.138-11.792c12.8-3.334 26.387 6.123 30.269 21.065a31.021 31.021 0 0 1-.72 18.267h-12.093C120.406 105.576 120 88.157 120 87.975L112 88h-8a58.774 58.774 0 0 0 5.754 24H98.825a32.349 32.349 0 0 1-2.33-6.2 30.161 30.161 0 0 1 2.052-21.34Z" fill="#000000" data-original="#000000" class=""></path><path d="M144 168h16v16h-16zM281.884 386.119q1.254 0 2.527-.075a47.246 47.246 0 0 0 43.516-43.516 37.544 37.544 0 0 0-40.456-40.456 46.143 46.143 0 0 0-29.814 13.7c-17.155 17.156-18.424 43.8-2.828 59.4a37.723 37.723 0 0 0 27.055 10.947Zm30.071-44.531a31.268 31.268 0 0 1-28.484 28.484 24.7 24.7 0 0 1-7.073-.583 42.961 42.961 0 0 0 14.3-20.072c2.8-8.412 11.911-15.919 18.625-20.332a23.275 23.275 0 0 1 2.632 12.503Zm-42.984-14.5a30.167 30.167 0 0 1 19.44-9.044c.521-.03 1.036-.045 1.55-.045a24.075 24.075 0 0 1 6.191.807c-7.671 5.7-16.938 14.479-20.629 25.552-2.589 7.766-8.461 12.557-12.706 15.136-5.473-9.55-3.217-23.032 6.154-32.406ZM186.946 236.826c-15.6 15.6-14.327 42.241 2.828 59.4a46.143 46.143 0 0 0 29.814 13.7q1.273.075 2.527.075a37.473 37.473 0 0 0 37.929-40.531 47.25 47.25 0 0 0-43.516-43.517 38 38 0 0 0-29.582 10.873Zm33.583 57.128a30.17 30.17 0 0 1-19.44-9.043c-7.768-7.769-10.646-18.359-8.291-27.2 5.7 7.675 14.482 16.95 25.561 20.643 7.767 2.589 12.559 8.462 15.137 12.707a23.2 23.2 0 0 1-12.967 2.893Zm23.544-23.545a24.711 24.711 0 0 1-.583 7.076 42.955 42.955 0 0 0-20.073-14.306c-8.408-2.8-15.912-11.9-20.326-18.617a22.907 22.907 0 0 1 10.947-2.682c.513 0 1.03.016 1.55.046a30.165 30.165 0 0 1 19.44 9.043 30.166 30.166 0 0 1 9.045 19.44ZM112 312h-8c0 2.037.191 50.271 16.845 83.578l14.311-7.156C120.209 358.529 120 312.459 120 312Z" fill="#000000" data-original="#000000" class=""></path></g></svg>