<svg xmlns="http://www.w3.org/2000/svg" version="1.1" xmlns:xlink="http://www.w3.org/1999/xlink" width="42" height="42" x="0" y="0" viewBox="0 0 512 512" style="enable-background:new 0 0 512 512" xml:space="preserve" class=""><g><path fill="#aa6c54" d="m361.869 103.329 17.1-55.435a24.457 24.457 0 0 0-19.949-28.982l-3.6-.6a24.457 24.457 0 0 0-26.728 15.041L307.92 80.671z" data-original="#aa6c54"></path><path fill="#67261e" d="m306.629 88 8.34-40.106a24.457 24.457 0 0 0-19.949-28.982l-3.6-.6a24.457 24.457 0 0 0-26.728 15.041l-23.215 56.961z" data-original="#67261e"></path><path fill="#aa6c54" d="m243.463 55.075-8.689-21.723a24.457 24.457 0 0 0-26.728-15.041l-3.6.6a24.457 24.457 0 0 0-19.949 28.982L186.135 56l13.5 40.845L243.463 80z" data-original="#aa6c54"></path><path fill="#dda174" d="m200.237 41.61 15.696-3.136 11.362 56.87-15.696 3.135z" data-original="#dda174"></path><path fill="#67261e" d="m168 64-8.689-21.723a24.457 24.457 0 0 0-26.728-15.041l-3.6.6a24.457 24.457 0 0 0-19.953 28.983l1.643 8.106L125.228 106 168 104z" data-original="#67261e"></path><path fill="#3a1513" d="M128 92h249.25v28H128z" data-original="#3a1513"></path><path fill="#dda174" d="M415.767 176c12.322 35.789 26.664 52.094 23.884 121.613A441.256 441.256 0 0 1 415.767 424l18.74 36.644c6.428 12.568-2.92 27.356-17.293 27.356a881.749 881.749 0 0 0-322.019 0c-.6 0-10.893-.179-16.447-8.965a18.383 18.383 0 0 1-.847-18.391L96.641 424A371.7 371.7 0 0 1 68.4 306.078C63.034 229.726 82.8 209.238 96.641 176z" data-original="#dda174"></path><ellipse cx="285.941" cy="344.058" fill="#9a5a45" rx="36" ry="32" transform="rotate(-45 285.9 344.137)" data-original="#9a5a45"></ellipse><ellipse cx="218.059" cy="267.94" fill="#9a5a45" rx="32" ry="36" transform="rotate(-45 218.027 268)" data-original="#9a5a45"></ellipse><path fill="#9a5a45" d="M94.2 120c1.8 0-4.277-7.688-5.445-12.184-5-19.244 4.816-38.446 21.921-42.889s35.024 7.555 40.023 26.8A38.071 38.071 0 0 1 147.334 120z" data-original="#9a5a45"></path><path fill="#9a5a45" d="M160 120c-5.588-7.012-8.672-20.239-7.876-30.462 1.543-19.822 17.078-34.78 34.7-33.408s30.653 18.553 29.11 38.375A38.1 38.1 0 0 1 203.7 120z" data-original="#9a5a45"></path><path fill="#77362a" d="M227.438 120c-7.72-7.132-12.261-18.3-11.314-30.462 1.543-19.822 17.078-34.78 34.7-33.408s30.653 18.553 29.11 38.375A38.1 38.1 0 0 1 267.7 120z" data-original="#77362a"></path><path fill="#9a5a45" d="M291.483 120c-7.748-7.13-12.307-18.318-11.359-30.5 1.543-19.822 17.078-34.78 34.7-33.408s30.653 18.553 29.11 38.375A38.092 38.092 0 0 1 331.655 120z" data-original="#9a5a45"></path><path fill="#77362a" d="M355.43 120c-7.749-7.13-12.31-18.319-11.361-30.505 1.543-19.822 17.078-34.78 34.7-33.408s30.653 18.553 29.11 38.375A38.092 38.092 0 0 1 395.6 120z" data-original="#77362a"></path><path fill="#9a5a45" d="M120.845 395.578C104.191 362.271 104 314.037 104 312h16c0 .462.209 46.532 15.155 76.425zM240 80h16v40h-16z" data-original="#9a5a45"></path><rect width="376.56" height="56" x="67.5" y="120" fill="#fbc493" rx="16" data-original="#fbc493"></rect><path fill="#67261e" d="M311.4 318.6a28.691 28.691 0 0 0-7.118-5.195c-7.271 4.287-23.552 15.34-28.756 30.95-4.27 12.809-17.482 17.537-17.567 17.566a7.988 7.988 0 0 0-.976.4L255.6 363a28.679 28.679 0 0 0 12.4 11.914c6.59-3.391 17.892-11.069 22.7-25.5 3.753-11.26 18.8-20.9 24.272-23.659l.136-.069 1.153-.6a28.689 28.689 0 0 0-4.861-6.486zM248.915 285.879c-3.391-6.589-11.07-17.891-25.5-22.7-11.26-3.753-20.9-18.8-23.659-24.272a7.81 7.81 0 0 0-.367-.657l-.372-.6a28.647 28.647 0 0 0-11.609 11.95c4.288 7.271 15.34 23.552 30.95 28.756 12.81 4.27 17.537 17.481 17.566 17.566a8.015 8.015 0 0 0 .8 1.7l.373.6a28.683 28.683 0 0 0 11.817-12.347z" data-original="#67261e"></path><path fill="#9a5a45" d="M378.766 56.087a28.71 28.71 0 0 0-4.381 0C368.053 66.644 355.657 92.682 367.2 120h17.757l-1.8-3.579C369.621 89.354 390.2 61.065 390.4 60.8q.173-.231.329-.474L391 59.9a28.873 28.873 0 0 0-12.234-3.813z" data-original="#9a5a45"></path><path fill="#77362a" d="M132.391 113.313a7.99 7.99 0 0 0-.812-.468C120.438 107.274 120 88.166 120 87.975L112 88h-8c0 .963.163 19.65 11.148 32h24.417a33.782 33.782 0 0 0-7.174-6.687z" data-original="#77362a"></path><path fill="#ffffff" d="M112 216h48v56h-48z" opacity=".4" data-original="#ffffff"></path><path fill="#ffffff" d="M68.4 306.078A371.7 371.7 0 0 0 96.641 424L77.9 460.644a18.382 18.382 0 0 0 .847 18.391c.193.306.394.6.6.885l50.775-55.852a56.043 56.043 0 0 0 12.978-51.19C120.408 281.579 160 176 160 176H96.641C82.8 209.238 63.034 229.726 68.4 306.078z" opacity=".2" data-original="#ffffff"></path><path fill="#67261e" d="M368.9 372.878a56.043 56.043 0 0 0 12.983 51.189l50.775 55.853c.2-.286.4-.579.6-.885a5.259 5.259 0 0 1 1.087-1.172 18.338 18.338 0 0 0 .167-17.219L415.767 424a441.255 441.255 0 0 0 23.883-126.387c2.78-69.519-11.562-85.824-23.884-121.613H352s39.592 105.579 16.9 196.878z" opacity=".3" data-original="#67261e"></path><path fill="#67261e" d="M424.959 200c-3-7.542-6.155-15.179-9.192-24H96.641c-3.518 8.448-7.418 16.073-11.191 24z" opacity=".3" data-original="#67261e"></path><g fill="#fff"><path d="M67.5 136v8h376.56v-8a16 16 0 0 0-16-16H83.5a16 16 0 0 0-16 16zM397.116 64.532a29.571 29.571 0 0 0-18.35-8.444c-17.62-1.372-33.154 13.585-34.7 33.408a39.753 39.753 0 0 0 1.454 14.232c32.795-6.037 46.407-27.173 51.596-39.196zM131.778 67.427a29.7 29.7 0 0 0-21.105-2.5c-15.483 4.02-24.991 20.134-22.949 37.426 26.027-6.79 38.446-23.534 44.054-34.926zM205.119 64.525a29.564 29.564 0 0 0-18.3-8.4c-17.62-1.372-33.155 13.585-34.7 33.408a51.891 51.891 0 0 0 1.045 14.252c33.059-5.944 46.749-27.194 51.955-39.26zM269.119 64.525a29.564 29.564 0 0 0-18.3-8.4c-17.62-1.372-33.155 13.585-34.7 33.408a39.752 39.752 0 0 0 1.439 14.182c32.775-6.042 46.376-27.172 51.561-39.19zM333.132 64.495a29.566 29.566 0 0 0-18.31-8.407c-17.62-1.372-33.155 13.585-34.7 33.408a39.747 39.747 0 0 0 1.451 14.222c32.791-6.055 46.384-27.212 51.559-39.223z" opacity=".2" fill="#ffffff" data-original="#ffffff"></path></g></g></svg>