<svg xmlns="http://www.w3.org/2000/svg" version="1.1" xmlns:xlink="http://www.w3.org/1999/xlink" width="42" height="42" x="0" y="0" viewBox="0 0 59 59" style="enable-background:new 0 0 512 512" xml:space="preserve" class=""><g><g fill="none" fill-rule="nonzero" transform="translate(-1)"><path fill="#e64c3c" d="m14.3 6.06.01.01a5.925 5.925 0 0 1 3.91 1.74A15.387 15.387 0 0 1 21.55 14l-5.15 5.74a15.44 15.44 0 0 1-6.66-3.45A5.884 5.884 0 0 1 8 12.38l1.38-4.92z" data-original="#e64c3c"></path><path fill="#4fba6f" d="M15.77 2.1a5.967 5.967 0 0 1-1.44 3.94c-.01.01-.02.02-.03.02-1.76 1.74-4.92 1.4-4.92 1.4s-.34-3.2 1.42-4.95a5.967 5.967 0 0 1 3.94-1.44.993.993 0 0 1 1.03 1.03zM8 12.38l-.03.03a5.953 5.953 0 0 1-3.94 1.43A.993.993 0 0 1 3 12.81a5.915 5.915 0 0 1 1.44-3.94c1.75-1.76 4.94-1.41 4.94-1.41s.35 3.15-1.38 4.92z" data-original="#4fba6f"></path><path fill="#4c8056" d="M9.385 8.461a1 1 0 0 1-.716-.3C5.411 4.815 4.013 4.564 4 4.563a.965.965 0 0 1-.959-1c.018-.56.48-1.004 1.041-1 .452 0 2.225.3 6.02 4.2a1 1 0 0 1-.717 1.7z" data-original="#4c8056"></path><circle cx="16" cy="11" r="1" fill="#f0c419" data-original="#f0c419"></circle><circle cx="13" cy="14" r="1" fill="#f0c419" data-original="#f0c419"></circle><path fill="#e64c3c" d="M20.69 57.68a6.707 6.707 0 0 1-5.37 1.15 5.54 5.54 0 0 1-1.33-.54 5.786 5.786 0 0 1-1.34.54c-4.29 1.1-9.22-3.18-11.01-9.58-1.79-6.4.26-12.48 4.56-13.58a6.571 6.571 0 0 1 5.23 1.06c1.56.99 3.55.99 5.11 0a9.19 9.19 0 0 1 1.66-.83L22 46c.02.16-1.38 11.54-1.31 11.68z" data-original="#e64c3c"></path><path fill="#ffffff" d="M5.5 49.177a1 1 0 0 1-.963-.732c-1.023-3.672-.42-6.655.486-8.222a3.213 3.213 0 0 1 1.921-1.649 1 1 0 0 1 .5 1.938c-.306.148-.55.4-.687.711a9.2 9.2 0 0 0-.291 6.685 1 1 0 0 1-.966 1.269z" data-original="#ffffff"></path><path fill="#4fba6f" d="M14.58 34.29c-.36 1.43-2.68 2.09-5.2 1.47-1.74-.43-4.26-2.42-5.64-3.6a.663.663 0 0 1 .3-1.16c1.76-.36 4.89-.87 6.63-.44 2.52.62 4.27 2.29 3.91 3.73z" data-original="#4fba6f"></path><path fill="#f29c1f" d="M43.25 57.85A2.01 2.01 0 0 1 41.44 59H22.56a1.97 1.97 0 0 1-1.87-1.32 1.42 1.42 0 0 1-.12-.46L18.2 35.9l-1.38-12.44L20 25.05a8.938 8.938 0 0 0 8 0 8.959 8.959 0 0 1 7.99 0l.01.01a8.981 8.981 0 0 0 7.99 0l3.19-1.6-1.87 16.83z" data-original="#f29c1f"></path><path fill="#9fc9d3" d="m47.99 16.22-.81 7.24-3.19 1.6a8.981 8.981 0 0 1-7.99 0l-.01-.01a8.959 8.959 0 0 0-7.99 0 8.938 8.938 0 0 1-8 0l-3.18-1.59h-.01l-.41-3.72-.39-3.52A2.005 2.005 0 0 1 18 14h28a2.005 2.005 0 0 1 1.99 2.22z" data-original="#9fc9d3"></path><path fill="#ff5364" d="M25 55a1 1 0 0 1-.938-1.347l17-46a1 1 0 0 1 .365-.472l10-7a1 1 0 0 1 1.146 1.638L42.83 8.64 25.938 54.347A1 1 0 0 1 25 55z" data-original="#ff5364"></path><g fill="#d25627"><circle cx="24.5" cy="32.5" r="2.5" fill="#d25627" data-original="#d25627"></circle><circle cx="23" cy="40" r="1" fill="#d25627" data-original="#d25627"></circle><circle cx="24" cy="45" r="1" fill="#d25627" data-original="#d25627"></circle></g><path fill="#f0c419" d="M58.83 55.37a14.855 14.855 0 0 1-9.8 3.63A15.023 15.023 0 0 1 34 43.97a14.855 14.855 0 0 1 3.63-9.8 1 1 0 0 1 1.48-.08l2.1 2.1c-4.272 4.314-4.254 11.269.038 15.562 4.293 4.292 11.248 4.31 15.562.038l2.1 2.1a1 1 0 0 1-.08 1.48z" data-original="#f0c419"></path><path fill="#f3d55b" d="M56.81 51.79A10.867 10.867 0 0 1 51 54.82c-.652.129-1.315.192-1.98.19H49a10.979 10.979 0 0 1-7.02-2.57 8.94 8.94 0 0 1-1.42-1.42A10.979 10.979 0 0 1 37.99 44v-.02c-.002-.665.061-1.328.19-1.98a10.867 10.867 0 0 1 3.03-5.81z" data-original="#f3d55b"></path><path fill="#f29c1f" d="M51 54.82c-.652.129-1.315.192-1.98.19H49l-.01-9.59-7.01 7.02a8.94 8.94 0 0 1-1.42-1.42l7.02-7.01-9.59-.01v-.02c-.002-.665.061-1.328.19-1.98l8.85.01 3.96 3.96z" data-original="#f29c1f"></path><path fill="#805333" d="M13.99 40.99a1 1 0 0 1-1-1v-2c0-5.1 2.552-7.44 4.074-8.381a1 1 0 0 1 1.052 1.7c-1.168.721-3.126 2.547-3.126 6.679v2a1 1 0 0 1-1 1.002z" data-original="#805333"></path><path fill="#df4d60" d="m40.85 14-4.19 11.35c-.22-.09-.44-.18-.66-.29l-.01-.01a7.487 7.487 0 0 0-1.18-.48L38.71 14z" data-original="#df4d60"></path><path fill="#c03a2b" d="M36 25.06c.22.11.44.2.66.29l-10.72 29A1 1 0 0 1 25 55c-.12 0-.237-.02-.35-.06a1.012 1.012 0 0 1-.59-1.29l10.75-29.08c.406.126.801.287 1.18.48z" data-original="#c03a2b"></path></g></g></svg>