<svg xmlns="http://www.w3.org/2000/svg" version="1.1" xmlns:xlink="http://www.w3.org/1999/xlink" width="42" height="42" x="0" y="0" viewBox="0 0 512 512" style="enable-background:new 0 0 512 512" xml:space="preserve" class=""><g><path d="m123.38 374.628-45.559 87.214a17.277 17.277 0 0 1-23.344 7.376 17.57 17.57 0 0 1-9.372-15.447 17.817 17.817 0 0 1 1.996-7.984l45.906-87.995a208.496 208.496 0 0 0 30.373 16.836zM457.482 469.565a17.817 17.817 0 0 1-7.984 1.996 17.437 17.437 0 0 1-15.36-9.372l-45.733-87.561a209.535 209.535 0 0 0 20.22-10.327v-.087c3.471-2.083 6.856-4.165 10.066-6.422l46.167 88.342c4.415 8.509 1.117 18.986-7.376 23.431z" style="" fill="#a5a5a4" data-original="#a5a5a4"></path><path d="M498.963 213.478c0-42.956-108.735-77.755-242.983-77.755-134.161 0-242.896 34.799-242.896 77.755 0 0-4.773 95.892 79.924 152.993a208.532 208.532 0 0 0 30.373 16.835 305.91 305.91 0 0 0 115.243 24.212h34.712a318.062 318.062 0 0 0 104.049-19.612c3.818-1.475 7.463-2.951 11.021-4.599a209.535 209.535 0 0 0 20.22-10.327v-.087c3.471-2.083 6.856-4.165 10.066-6.422 80.532-53.89 80.445-142.926 80.184-152.212a2.39 2.39 0 0 0 .087-.781z" style="" fill="#cc4b4c" data-original="#cc4b4c" class=""></path><path d="M498.963 213.478c.014.263-.015.527-.087.781-1.215 42.609-109.429 76.974-242.896 76.974-134.161 0-242.896-34.799-242.896-77.755s108.735-77.755 242.896-77.755c134.248.001 242.983 34.8 242.983 77.755z" style="" fill="#802f34" data-original="#802f34" class=""></path><path d="M114.59 176.102a8.674 8.674 0 0 0-12.272 0l-43.39 43.39a8.678 8.678 0 1 0 12.271 12.271l43.39-43.39a8.673 8.673 0 0 0 .001-12.271zM175.335 167.424a8.674 8.674 0 0 0-12.272 0L93.64 236.848a8.678 8.678 0 1 0 12.271 12.271l69.424-69.424a8.673 8.673 0 0 0 0-12.271zM236.081 158.747a8.674 8.674 0 0 0-12.272 0l-86.78 86.78a8.678 8.678 0 1 0 12.271 12.271l86.78-86.78a8.673 8.673 0 0 0 .001-12.271zM288.149 158.747a8.674 8.674 0 0 0-12.272 0l-95.458 95.458a8.678 8.678 0 1 0 12.271 12.271l95.458-95.458a8.673 8.673 0 0 0 .001-12.271zM331.539 167.424a8.674 8.674 0 0 0-12.272 0l-86.78 86.78a8.678 8.678 0 1 0 12.271 12.271l86.78-86.78a8.673 8.673 0 0 0 .001-12.271zM374.928 176.102a8.674 8.674 0 0 0-12.272 0l-78.102 78.102a8.678 8.678 0 1 0 12.271 12.271l78.102-78.102a8.673 8.673 0 0 0 .001-12.271zM426.996 176.102a8.674 8.674 0 0 0-12.272 0L345.3 245.526a8.678 8.678 0 1 0 12.271 12.271l69.424-69.424a8.673 8.673 0 0 0 .001-12.271zM440.76 202.136l-34.712 34.712a8.677 8.677 0 1 0 12.271 12.271l34.712-34.712a8.677 8.677 0 1 0-12.271-12.271z" style="" fill="#fb7b76" data-original="#fb7b76" class=""></path><path d="m215.437 3.111-20.835 24.915c-10.685 12.752-10.747 31.312-.148 44.136l.165.203a17.174 17.174 0 0 1 .004 22.042l-3.483 4.161a8.677 8.677 0 0 0 5.157 14.113 8.677 8.677 0 0 0 8.148-2.977l3.487-4.161c10.68-12.75 10.744-31.304.153-44.127l-.169-.212a17.159 17.159 0 0 1 0-22.042l20.835-24.915a8.679 8.679 0 0 0-13.314-11.136zM267.505 3.111 246.67 28.026c-10.685 12.752-10.747 31.312-.148 44.136l.165.203a17.174 17.174 0 0 1 .004 22.042l-3.483 4.161a8.677 8.677 0 0 0 5.157 14.113 8.677 8.677 0 0 0 8.148-2.977l3.487-4.161c10.68-12.75 10.744-31.304.153-44.127l-.169-.212a17.159 17.159 0 0 1 0-22.042l20.835-24.915a8.68 8.68 0 0 0-13.314-11.136zM332.886 14.246A8.68 8.68 0 0 0 319.572 3.11l-20.835 24.915c-10.685 12.752-10.747 31.312-.148 44.136l.165.203a17.174 17.174 0 0 1 .004 22.042l-3.483 4.161a8.675 8.675 0 1 0 13.305 11.135l3.487-4.161c10.68-12.75 10.744-31.304.153-44.127l-.169-.212a17.159 17.159 0 0 1 0-22.042l20.835-24.914z" style="" fill="#cbb292" data-original="#cbb292" class=""></path><path d="M255.98 364.475c9.585 0 17.356 7.771 17.356 17.356v112.814c0 9.585-7.771 17.356-17.356 17.356s-17.356-7.771-17.356-17.356V381.831c0-9.585 7.77-17.356 17.356-17.356z" style="" fill="#a5a5a4" data-original="#a5a5a4"></path></g></svg>