<svg xmlns="http://www.w3.org/2000/svg" version="1.1" xmlns:xlink="http://www.w3.org/1999/xlink" width="42" height="42" x="0" y="0" viewBox="0 0 512.001 512.001" style="enable-background:new 0 0 512 512" xml:space="preserve" class=""><g><path d="M503.388 210.691c.005-.252.054-.495.054-.748 0-55.2-127.487-84.984-247.442-84.984S8.559 154.742 8.559 209.942c0 .095.02.186.02.281A192.135 192.135 0 0 0 57.78 338.984a184.387 184.387 0 0 0 26.931 24.036l-41.76 80.047A25.532 25.532 0 0 0 53.892 477.5a25.312 25.312 0 0 0 11.742 2.883 25.585 25.585 0 0 0 22.717-13.758l41.158-78.788a312.406 312.406 0 0 0 100.867 20.97V486.4c0 14.138 11.461 25.6 25.6 25.6 14.138 0 25.6-11.461 25.6-25.6v-77.595a316.594 316.594 0 0 0 96.808-19.38c1.299-.492 2.561-1.13 3.854-1.649l41.383 79.233a25.633 25.633 0 0 0 22.646 13.758 26.23 26.23 0 0 0 11.858-2.958c12.442-6.613 17.258-21.998 10.808-34.525l-41.892-80.162a188.93 188.93 0 0 0 76.347-152.431zM256 142.025c135.7 0 230.283 35.757 230.371 67.872-.001.155-.075.289-.067.445l.009.274c-1.307 31.95-95.497 67.243-230.314 67.243-135.763 0-230.375-35.792-230.375-67.917S120.238 142.025 256 142.025zM73.217 458.734a8.486 8.486 0 0 1-11.392 3.658 8.462 8.462 0 0 1-3.679-11.55l40.842-78.284a209.02 209.02 0 0 0 14.943 8.244l-40.714 77.932zm191.292 27.667a8.533 8.533 0 0 1-8.533 8.533 8.533 8.533 0 0 1-8.533-8.533V375.467a8.533 8.533 0 0 1 8.533-8.533 8.533 8.533 0 0 1 8.533 8.533v110.934zm189.295-35.225a8.493 8.493 0 0 1-3.483 11.458 8.316 8.316 0 0 1-11.596-3.567l-40.891-78.289c4.229-2.108 8.448-4.253 12.541-6.636a8.22 8.22 0 0 0 .967-.667c.482-.285.922-.59 1.398-.877l41.064 78.578zm-52.041-91.867a8.75 8.75 0 0 0-.912.625 198.815 198.815 0 0 1-28.587 13.558 299.24 299.24 0 0 1-90.688 18.229v-16.254c0-14.138-11.462-25.6-25.6-25.6-14.138 0-25.6 11.461-25.6 25.6v16.108c-70.624-4.135-124.493-25.498-159.842-63.933a172.464 172.464 0 0 1-41.094-81.885c40.973 32.142 135.897 49.168 226.56 49.168 90.657 0 185.574-17.023 226.552-49.161a168.796 168.796 0 0 1-80.789 113.545z" fill="#000000" data-original="#000000" class=""></path><path d="M66.013 230.152a8.533 8.533 0 0 0 8.262-2.251l42.667-42.667a8.529 8.529 0 0 0 0-12.066 8.529 8.529 0 0 0-12.066 0l-42.667 42.667a8.533 8.533 0 0 0 3.804 14.317zM94.091 241.163a8.533 8.533 0 0 0 14.317 3.804l68.267-68.267a8.529 8.529 0 0 0 0-12.066 8.529 8.529 0 0 0-12.066 0l-68.267 68.267a8.533 8.533 0 0 0-2.251 8.262zM136.757 249.696a8.533 8.533 0 0 0 14.317 3.804l85.333-85.333a8.529 8.529 0 0 0 0-12.066 8.529 8.529 0 0 0-12.066 0l-85.333 85.333a8.533 8.533 0 0 0-2.251 8.262zM179.424 258.23a8.533 8.533 0 0 0 14.317 3.804l93.867-93.867a8.529 8.529 0 0 0 0-12.066 8.529 8.529 0 0 0-12.066 0l-93.867 93.867a8.532 8.532 0 0 0-2.251 8.262zM230.624 258.23a8.533 8.533 0 0 0 14.317 3.804l85.333-85.333a8.529 8.529 0 0 0 0-12.066 8.529 8.529 0 0 0-12.066 0l-85.333 85.333a8.532 8.532 0 0 0-2.251 8.262zM281.824 258.23a8.533 8.533 0 0 0 14.317 3.804l76.8-76.8a8.529 8.529 0 0 0 0-12.066 8.529 8.529 0 0 0-12.066 0l-76.8 76.8a8.532 8.532 0 0 0-2.251 8.262zM341.557 249.696a8.533 8.533 0 0 0 14.317 3.804l68.267-68.267a8.529 8.529 0 0 0 0-12.066 8.529 8.529 0 0 0-12.066 0l-68.267 68.267a8.533 8.533 0 0 0-2.251 8.262zM401.272 241.172a8.532 8.532 0 0 0 14.336 3.795l34.133-34.133a8.532 8.532 0 1 0-12.066-12.066l-34.133 34.133a8.534 8.534 0 0 0-2.27 8.271zM195.637 71.159a16.888 16.888 0 0 1 .004 21.675l-3.425 4.092a8.53 8.53 0 1 0 13.083 10.95l3.429-4.092c10.502-12.537 10.565-30.782.15-43.392l-.167-.208a16.873 16.873 0 0 1 0-21.675l20.488-24.5a8.534 8.534 0 0 0-13.091-10.95l-20.487 24.5c-10.507 12.539-10.568 30.791-.146 43.4l.162.2zM246.837 71.159a16.888 16.888 0 0 1 .004 21.675l-3.425 4.092a8.53 8.53 0 1 0 13.083 10.95l3.429-4.092c10.502-12.537 10.565-30.782.15-43.392l-.167-.208a16.873 16.873 0 0 1 0-21.675l20.488-24.5a8.534 8.534 0 0 0-13.092-10.95l-20.487 24.5c-10.507 12.539-10.568 30.791-.146 43.4l.163.2zM298.037 71.159a16.888 16.888 0 0 1 .004 21.675l-3.425 4.092a8.53 8.53 0 1 0 13.084 10.95l3.429-4.092c10.502-12.537 10.565-30.782.15-43.392l-.167-.208a16.873 16.873 0 0 1 0-21.675l20.488-24.5a8.534 8.534 0 0 0-13.092-10.95l-20.487 24.5c-10.507 12.539-10.568 30.791-.146 43.4l.162.2z" fill="#000000" data-original="#000000" class=""></path></g></svg>