<svg xmlns="http://www.w3.org/2000/svg" version="1.1" xmlns:xlink="http://www.w3.org/1999/xlink" width="42" height="42" x="0" y="0" viewBox="0 0 512 512" style="enable-background:new 0 0 512 512" xml:space="preserve" class=""><g><path d="M248.563 238.333c-.404-4.311-4.226-7.466-8.537-7.078-33.911 3.169-65.742 16.341-92.053 38.092-25.985 21.482-44.821 49.809-54.471 81.922a7.84 7.84 0 0 0 7.512 10.1 7.845 7.845 0 0 0 7.507-5.587c8.756-29.137 25.853-54.847 49.444-74.347 23.875-19.738 52.756-31.69 83.521-34.564a7.843 7.843 0 0 0 7.077-8.538zM353.598 261.379c-21.561-15.188-46.716-25.236-72.747-29.058a7.843 7.843 0 0 0-2.279 15.518c23.611 3.465 46.431 12.582 65.993 26.362a7.804 7.804 0 0 0 4.509 1.431 7.83 7.83 0 0 0 6.417-3.327 7.84 7.84 0 0 0-1.893-10.926zM399.447 309.543a170.726 170.726 0 0 0-17.622-23.179 7.842 7.842 0 0 0-11.628 10.523 155.016 155.016 0 0 1 15.999 21.045 7.834 7.834 0 0 0 10.819 2.431 7.842 7.842 0 0 0 2.432-10.82zM103.827 394.665H87.934c-4.331 0-7.842 3.51-7.842 7.842s3.511 7.842 7.842 7.842h15.893c4.331 0 7.842-3.51 7.842-7.842s-3.511-7.842-7.842-7.842z" fill="#000000" data-original="#000000" class=""></path><path d="M511.983 417.765c-.491-13.002-11.588-23.101-24.599-23.101h-3.449c-1.012-59.422-24.613-115.138-66.744-157.269-34.223-34.223-77.411-56.212-124.264-63.81a23.875 23.875 0 0 0 2.844-11.326c0-8.5-4.438-15.979-11.117-20.25-3.314-2.119-7.222-3.12-11.156-3.121h-1.367c-.905 0-1.359-1.095-.72-1.736l20.701-20.747c10.189-10.294 10.405-27.223.486-37.781l-.29-.349a14.048 14.048 0 0 0-.786-.865c-5.111-5.166-12.161-8.129-19.342-8.129-5.526 0-10.839 1.722-15.243 4.897a1.684 1.684 0 0 1-1.984 0c-4.405-3.176-9.718-4.898-15.244-4.898-7.179 0-14.229 2.963-19.337 8.125-.282.284-.551.583-.806.89l-.275.331c-9.915 10.548-9.69 27.495.548 37.84l20.727 20.677c.642.641.188 1.738-.719 1.738h-1.446c-3.928-.001-7.829.996-11.141 3.106-6.7 4.267-11.153 11.757-11.153 20.272 0 4.093 1.032 7.949 2.844 11.326-46.854 7.598-90.042 29.588-124.264 63.81-42.131 42.131-65.733 97.847-66.745 157.269H24.62c-13.012 0-24.108 10.099-24.599 23.101-.516 13.669 10.453 24.953 24.01 24.953h463.946c13.552.001 24.521-11.283 24.006-24.953zM230.949 105.4c-4.338-4.384-4.434-11.583-.215-16.052l.837-.965c2.182-2.174 5.143-3.42 8.135-3.42 2.609 0 5.087.948 6.978 2.672l6.514 5.935a4.076 4.076 0 0 0 5.491 0l6.513-5.935c1.89-1.722 4.368-2.671 6.977-2.671 2.993 0 5.951 1.242 8.137 3.42l.838.965c4.219 4.467 4.134 11.655-.167 16.002l-22.409 22.459a3.648 3.648 0 0 1-5.158.006L230.949 105.4zm9.181 48.515h31.612c4.601 0 8.344 3.743 8.344 8.343s-3.743 8.343-8.344 8.343H240.13c-4.6 0-8.343-3.743-8.343-8.343s3.742-8.343 8.343-8.343zm247.842 273.121H24.027c-4.6 0-8.344-3.743-8.344-8.343s3.743-8.343 8.344-8.343h39.494a7.841 7.841 0 1 0 0-15.683H43.623c2.134-115.265 96.548-208.379 212.313-208.379s210.179 93.114 212.312 208.379H135.614c-4.331 0-7.841 3.51-7.841 7.842s3.511 7.841 7.841 7.841h352.358c4.601 0 8.344 3.743 8.344 8.343.001 4.6-3.742 8.343-8.344 8.343z" fill="#000000" data-original="#000000" class=""></path></g></svg>