<svg xmlns="http://www.w3.org/2000/svg" version="1.1" xmlns:xlink="http://www.w3.org/1999/xlink" width="42" height="42" x="0" y="0" viewBox="0 0 512 512" style="enable-background:new 0 0 512 512" xml:space="preserve" class=""><g><path d="M24.027 434.878c-8.925 0-16.186-7.26-16.186-16.185 0-8.925 7.26-16.185 16.186-16.185h463.946c8.925 0 16.186 7.26 16.186 16.185 0 8.925-7.261 16.185-16.186 16.185H24.027z" style="" fill="#6dc0a7" data-original="#6dc0a7" class=""></path><path d="M24.027 402.507c-8.925 0-16.186 7.26-16.186 16.185 0 1.006.105 1.987.281 2.942h447.925c10.745 0 19.519-8.5 20.008-19.127H24.027z" style="" fill="#aae4d5" data-original="#aae4d5"></path><path d="M256.004 139.036a5.869 5.869 0 0 1-4.171-1.725l-26.458-26.396c-7.289-7.367-7.432-19.445-.342-26.951l.13-.138.436-.525c.105-.125.22-.253.34-.374 3.651-3.69 8.669-5.805 13.769-5.805 4.567 0 8.921 1.675 12.259 4.716l3.977 3.624 3.977-3.624c3.338-3.041 7.692-4.716 12.259-4.716 5.101 0 10.12 2.115 13.768 5.803.121.122.232.245.337.37l.443.532.129.136c7.09 7.506 6.947 19.584-.318 26.924L260.185 137.3a5.864 5.864 0 0 1-4.181 1.736z" style="" fill="#dd5587" data-original="#dd5587"></path><path d="M256.004 146.878a13.658 13.658 0 0 1-9.708-4.014l-26.459-26.397c-10.238-10.347-10.463-27.293-.548-37.84l.275-.331c.256-.306.525-.604.806-.89 5.107-5.162 12.158-8.125 19.337-8.125 5.535 0 10.857 1.727 15.265 4.914a1.648 1.648 0 0 0 1.942 0c4.408-3.185 9.73-4.913 15.265-4.913 7.182 0 14.232 2.963 19.342 8.129.279.282.539.57.786.865l.29.349c9.918 10.558 9.702 27.486-.486 37.781l-26.375 26.433a13.659 13.659 0 0 1-9.732 4.039zm-24.433-58.495-.837.965c-4.219 4.468-4.123 11.668.215 16.052l22.644 22.59a3.4 3.4 0 0 0 4.809-.005l22.584-22.634c4.301-4.346 4.386-11.534.167-16.002l-.837-.965c-2.186-2.177-5.144-3.42-8.137-3.42-2.609 0-5.087.948-6.977 2.671l-6.513 5.934a4.076 4.076 0 0 1-5.491 0l-6.514-5.934c-1.891-1.723-4.369-2.672-6.978-2.672-2.992.001-5.952 1.247-8.135 3.42z" style="" fill="#e8a3c2" data-original="#e8a3c2"></path><path d="m292.597 78.625-.29-.349a14.048 14.048 0 0 0-.786-.865c-5.111-5.166-12.161-8.129-19.342-8.129-5.535 0-10.856 1.728-15.265 4.913-.291.21-.627.315-.965.316v20.122a4.06 4.06 0 0 0 2.739-1.062l6.513-5.934c1.89-1.722 4.368-2.671 6.977-2.671 2.993 0 5.951 1.242 8.137 3.42l.837.965c4.219 4.467 4.134 11.655-.167 16.002l-22.584 22.634a3.383 3.383 0 0 1-2.454.994v17.896c.019 0 .037.003.054.003a13.65 13.65 0 0 0 9.732-4.038l26.375-26.433c10.19-10.298 10.407-27.226.489-37.784z" style="" fill="#e27da4" data-original="#e27da4"></path><path d="M35.745 402.507c.005-2.433.018-5.182.036-7.788.975-57.263 23.863-111.194 64.448-151.777 32.898-32.899 74.357-54.2 119.894-61.602 9.865-1.386 24.866-2.782 36.227-2.782 17.482 0 35.182 2.748 35.359 2.775 45.531 7.385 87.018 28.69 119.936 61.609 40.584 40.583 63.473 94.513 64.449 151.857l.003.109c.046 1.495.095 4.546.037 7.599H35.745z" style="" fill="#aae4d5" data-original="#aae4d5"></path><path d="m476.096 394.907-.003-.109c-.977-57.344-23.864-111.275-64.449-151.857-32.918-32.919-74.405-54.225-119.936-61.609-.177-.027-17.877-2.775-35.359-2.775-11.362 0-26.363 1.396-36.227 2.782l-.381.063c-11.616 1.915-13.995 17.534-3.5 22.87 20.472 10.41 39.333 24.095 55.998 40.761 13.831 13.831 25.607 29.212 35.16 45.752 23.08 39.955-6.217 89.91-52.358 89.91H50.022c-7.727 0-14.104 6.158-14.241 13.883l-.002.141c-.018 2.607-.03 5.355-.036 7.788h440.388c.06-3.054.011-6.105-.035-7.6z" style="" fill="#6dc0a7" data-original="#6dc0a7" class=""></path><path d="M237.104 179.637c-1.085 0-2.03-.166-2.809-.496-6.152-2.592-10.197-8.853-10.334-15.973.132-6.856 3.976-13.027 9.818-15.745 1.016-.473 2.211-.724 3.456-.724l36.932.006c1.735.001 3.369.387 4.725 1.115 5.447 2.924 8.895 8.798 9.022 15.346-.136 7.105-4.171 13.361-10.303 15.961-.78.329-1.727.498-2.818.499l-37.689.011z" style="" fill="#6dc0a7" data-original="#6dc0a7" class=""></path><path d="M237.233 146.702c-1.244 0-2.439.25-3.456.724-5.841 2.717-9.686 8.888-9.818 15.745.002.124.015.247.02.371l37.546-.008c1.091-.001 2.038-.168 2.818-.499 6.132-2.6 10.167-8.856 10.303-15.961-.002-.114-.014-.225-.018-.338-.156-.006-.306-.026-.463-.026l-36.932-.008z" style="" fill="#aae4d5" data-original="#aae4d5"></path><path d="M98.753 361.037a7.818 7.818 0 0 0 2.26.334 7.845 7.845 0 0 0 7.507-5.587c8.756-29.137 25.853-54.847 49.444-74.347 23.875-19.738 52.756-31.69 83.521-34.564a7.842 7.842 0 0 0 7.078-8.538c-.404-4.311-4.226-7.466-8.537-7.078-33.911 3.169-65.742 16.341-92.053 38.092-25.985 21.482-44.821 49.809-54.471 81.922a7.838 7.838 0 0 0 5.251 9.766zM278.572 247.839c23.611 3.465 46.431 12.582 65.993 26.362a7.804 7.804 0 0 0 4.509 1.431 7.84 7.84 0 0 0 4.523-14.254c-21.561-15.188-46.716-25.236-72.748-29.058a7.844 7.844 0 0 0-8.898 6.619 7.845 7.845 0 0 0 6.621 8.9zM386.195 317.932a7.834 7.834 0 0 0 10.819 2.431 7.842 7.842 0 0 0 2.432-10.82 170.8 170.8 0 0 0-17.621-23.179 7.842 7.842 0 0 0-11.628 10.523 155.071 155.071 0 0 1 15.998 21.045zM103.827 394.665H87.934a7.841 7.841 0 0 0-7.842 7.842 7.841 7.841 0 0 0 7.842 7.842h15.893a7.842 7.842 0 0 0 0-15.684z" fill="#000000" data-original="#000000" class=""></path><path d="M511.983 417.765c-.491-13.002-11.588-23.101-24.599-23.101h-3.449c-1.012-59.422-24.613-115.138-66.744-157.269-34.223-34.223-77.411-56.212-124.264-63.81a23.875 23.875 0 0 0 2.844-11.326c0-8.5-4.438-15.979-11.117-20.25-3.314-2.119-7.222-3.12-11.156-3.121h-1.367c-.905 0-1.359-1.095-.72-1.736l20.701-20.747c10.189-10.294 10.405-27.223.486-37.781l-.29-.349a14.048 14.048 0 0 0-.786-.865c-5.111-5.166-12.161-8.129-19.342-8.129-5.526 0-10.839 1.722-15.243 4.897a1.684 1.684 0 0 1-1.984 0c-4.405-3.176-9.718-4.898-15.244-4.898-7.179 0-14.229 2.963-19.337 8.125-.282.284-.551.583-.806.89l-.275.331c-9.915 10.548-9.69 27.495.548 37.84l20.727 20.677c.642.641.188 1.738-.719 1.738h-1.446c-3.928-.001-7.829.996-11.141 3.106-6.7 4.267-11.153 11.757-11.153 20.272 0 4.093 1.032 7.949 2.844 11.326-46.854 7.598-90.042 29.588-124.264 63.81-42.131 42.131-65.733 97.847-66.745 157.269H24.62c-13.012 0-24.108 10.099-24.599 23.101-.516 13.669 10.453 24.953 24.01 24.953h463.946c13.552.001 24.521-11.283 24.006-24.953zM230.733 89.348l.837-.965c2.182-2.174 5.143-3.42 8.135-3.42 2.609 0 5.087.948 6.978 2.672l6.514 5.934a4.076 4.076 0 0 0 5.491 0l6.513-5.934c1.89-1.722 4.368-2.671 6.977-2.671 2.993 0 5.951 1.242 8.137 3.42l.837.965c4.219 4.467 4.134 11.655-.167 16.002l-22.409 22.459a3.648 3.648 0 0 1-5.158.006L230.949 105.4c-4.338-4.384-4.434-11.583-.216-16.052zm9.397 64.567h31.612c4.601 0 8.344 3.743 8.344 8.343s-3.743 8.343-8.344 8.343H240.13c-4.6 0-8.343-3.743-8.343-8.343-.001-4.6 3.742-8.343 8.343-8.343zm247.842 273.121H24.027c-4.6 0-8.344-3.743-8.344-8.343s3.743-8.343 8.344-8.343h39.494c4.331 0 7.842-3.51 7.842-7.842s-3.511-7.842-7.842-7.842H43.623c2.134-115.265 96.548-208.379 212.313-208.379s210.179 93.114 212.312 208.379H135.614c-4.331 0-7.842 3.51-7.842 7.842s3.511 7.842 7.842 7.842h352.358c4.601 0 8.344 3.743 8.344 8.343.001 4.6-3.742 8.343-8.344 8.343z" fill="#000000" data-original="#000000" class=""></path></g></svg>