<svg xmlns="http://www.w3.org/2000/svg" version="1.1" xmlns:xlink="http://www.w3.org/1999/xlink" width="42" height="42" x="0" y="0" viewBox="0 0 62 62" style="enable-background:new 0 0 512 512" xml:space="preserve" class=""><g><path fill="#dfb28b" d="M61 36c0 13.81-11.19 25-25 25H26C12.19 61 1 49.81 1 36c0 6.08 13.43 11 30 11s30-4.92 30-11z" data-original="#dfb28b" class=""></path><path fill="#ecc19c" d="M61 32v4c0 6.08-13.43 11-30 11S1 42.08 1 36v-4c0 .68.17 1.34.5 1.99C4.04 39.12 16.28 43 31 43s26.96-3.88 29.5-9.01c.33-.65.5-1.31.5-1.99z" data-original="#ecc19c" class=""></path><path fill="#ecc19c" d="M42.96 25.91c.03-.3.04-.6.04-.91 0-.61-.09-1.19-.26-1.74l1.19-1.19C54.03 23.84 61 27.62 61 32c0 .68-.17 1.34-.5 1.99-1.83-3.64-8.54-6.64-17.53-8.08zM22.48 21.45c2.5-.27 5.15-.43 7.88-.45a11.996 11.996 0 0 0-3.91 4.28 7.005 7.005 0 0 0-2.53-3.08c-.45-.3-.93-.55-1.44-.74zM15 22.69c.2-.04.4-.09.6-.13a6.935 6.935 0 0 0-2.55 4.63C7.13 28.81 2.9 31.21 1.5 33.99 1.17 33.34 1 32.68 1 32c0-3.92 5.58-7.36 14-9.31z" data-original="#ecc19c" class=""></path><path fill="#ffeaa7" d="M20.38 40.38c.38-.38.62-.92.62-1.5 0-.56-.22-1.1-.62-1.5l-1.76-1.76c-.4-.4-.94-.62-1.5-.62-.58 0-1.12.24-1.5.62s-.62.92-.62 1.5c0 .56.22 1.1.62 1.5l1.76 1.76c.4.4.94.62 1.5.62.58 0 1.12-.24 1.5-.62zM21 31v2c0 1.1.9 2 2 2h4c1.1 0 2-.9 2-2h4.25c-.16.29-.25.62-.25.96V37c0 1.1.9 2 2 2h4c2.21 0 4-1.79 4-4v-2.3c0-1.03-.43-1.97-1.11-2.64.59-1.28.97-2.67 1.07-4.15h.01c8.99 1.44 15.7 4.44 17.53 8.08C57.96 39.12 45.72 43 31 43S4.04 39.12 1.5 33.99c1.4-2.78 5.63-5.18 11.55-6.8-.03.27-.05.54-.05.81v2c0 .55.45 1 1 1z" data-original="#ffeaa7" class=""></path><path fill="#b4dd7f" d="M20.38 37.38c.4.4.62.94.62 1.5 0 .58-.24 1.12-.62 1.5s-.92.62-1.5.62c-.56 0-1.1-.22-1.5-.62l-1.76-1.76c-.4-.4-.62-.94-.62-1.5 0-.58.24-1.12.62-1.5s.92-.62 1.5-.62c.56 0 1.1.22 1.5.62zM26.45 25.28c-.62 1.14-1.06 2.39-1.28 3.72H23c-1.1 0-2 .9-2 2h-7c-.55 0-1-.45-1-1v-2c0-.27.02-.54.05-.81a6.935 6.935 0 0 1 2.55-4.63C16.8 21.58 18.32 21 20 21c.87 0 1.71.16 2.48.46.51.19.99.44 1.44.74 1.11.75 2 1.82 2.53 3.08zM43 32.7V35c0 2.21-1.79 4-4 4h-4c-1.1 0-2-.9-2-2v-3.04c0-.34.09-.67.25-.96.12-.23.29-.43.5-.6l3.24-2.59c.22-.18.46-.32.71-.44.5-.24 1.04-.37 1.6-.37 1.01 0 1.91.41 2.59 1.06A3.71 3.71 0 0 1 43 32.7z" data-original="#b4dd7f" class=""></path><path fill="#b4dd7f" d="M29 31v2c0 1.1-.9 2-2 2h-4c-1.1 0-2-.9-2-2v-2c0-1.1.9-2 2-2h4c1.1 0 2 .9 2 2z" data-original="#b4dd7f" class=""></path><path fill="#ccd1d9" d="M42.74 23.26c.17.55.26 1.13.26 1.74 0 .31-.01.61-.04.91-.1 1.48-.48 2.87-1.07 4.15-.68-.65-1.58-1.06-2.59-1.06-.56 0-1.1.13-1.6.37v-.01c.82-1.25 1.3-2.75 1.3-4.36 0-1.1-.9-2-2-2-4.41 0-8 3.59-8 8 0-1.1-.9-2-2-2h-1.83a11.996 11.996 0 0 1 5.19-8c1.9-1.26 4.18-2 6.64-2 .61 0 1.19.09 1.74.26L56.41 1.59c.38-.38.89-.59 1.42-.59C59.58 1 61 2.42 61 4.17c0 .53-.21 1.04-.59 1.42L43.93 22.07z" data-original="#ccd1d9" class=""></path><path fill="#aab2bd" d="M29 31c0-4.41 3.59-8 8-8 1.1 0 2 .9 2 2 0 1.61-.48 3.11-1.3 4.36v.01c-.25.12-.49.26-.71.44l-3.24 2.59c-.21.17-.38.37-.5.6H29z" data-original="#aab2bd"></path><path d="M45.968 21.446 61.121 6.293c.567-.566.879-1.32.879-2.122C62 1.871 60.129 0 57.829 0c-.801 0-1.555.312-2.122.879l-17.27 17.27A7.018 7.018 0 0 0 37 18c-2.548 0-4.933.737-6.952 2.012-2.54.029-5.05.171-7.472.427A7.98 7.98 0 0 0 20 20a7.939 7.939 0 0 0-4.098 1.142A4.003 4.003 0 0 0 12 18H8c-1.103 0-2-.897-2-2H4c0 2.206 1.794 4 4 4h4c1.073 0 1.944.851 1.991 1.912C5.204 24.088 0 27.811 0 32v4c0 14.336 11.664 26 26 26h10c14.336 0 26-11.664 26-26v-4c0-4.519-6.093-8.491-16.032-10.554zM35.762 60H32V47.991c5.611-.066 10.804-.679 15.236-1.715C45.612 52.217 41.464 57.302 35.762 60zM14.764 46.275c4.432 1.036 9.625 1.649 15.236 1.715V60h-3.762c-5.702-2.698-9.85-7.783-11.474-13.725zM14 32h6v1c0 1.654 1.346 3 3 3h4a2.996 2.996 0 0 0 2.816-2H32v3c0 1.654 1.346 3 3 3h4c2.757 0 5-2.243 5-5v-2.298a4.657 4.657 0 0 0-.967-2.824c.369-.907.63-1.844.784-2.806 7.818 1.381 13.631 3.977 15.527 6.929C56.674 38.155 45.957 42 31 42c-3.69 0-7.118-.236-10.236-.651a3.104 3.104 0 0 0 .322-4.677l-1.758-1.758A3.101 3.101 0 0 0 17.121 34 3.124 3.124 0 0 0 14 37.121c0 .834.325 1.618.914 2.207l1.229 1.229C9.12 39.064 4.313 36.589 2.65 33.992c1.34-2.072 4.675-4.014 9.35-5.457V30c0 1.103.897 2 2 2zm12.484-8.654a7.846 7.846 0 0 0-.984-1.141 78.335 78.335 0 0 1 2.023-.111 12.87 12.87 0 0 0-1.039 1.252zM27 30c.551 0 1 .449 1 1v2c0 .551-.449 1-1 1h-4c-.551 0-1-.449-1-1v-2c0-.551.449-1 1-1zm15 2.702V35c0 1.654-1.346 3-3 3h-4c-.551 0-1-.449-1-1v-3.039c0-.305.137-.59.375-.781l3.236-2.588A2.71 2.71 0 0 1 39.298 30 2.705 2.705 0 0 1 42 32.702zm-5.026-4.081a4.692 4.692 0 0 0-.612.409l-3.237 2.589a3.039 3.039 0 0 0-.38.381H30v-1c0-3.86 3.14-7 7-7 .551 0 1 .449 1 1a6.955 6.955 0 0 1-1.026 3.621zm-20.646 9.293a1.122 1.122 0 0 1 1.586-1.586l1.758 1.758a1.122 1.122 0 0 1-1.586 1.586zm-4.296 3.639c.025.671.078 1.336.16 1.996-6.163-1.873-9.871-4.571-10.167-7.208 2.039 2.091 5.522 3.886 10.007 5.212zm2.023.548c4.584 1.14 10.031 1.82 15.945 1.89v2c-6.048-.07-11.373-.769-15.709-1.86-.111-.67-.19-1.346-.236-2.03zM32 45.991v-2c5.915-.069 11.361-.75 15.945-1.89-.046.684-.125 1.36-.236 2.03-4.336 1.09-9.661 1.79-15.709 1.86zm17.968-4.438c4.485-1.326 7.968-3.12 10.006-5.212-.296 2.637-4.004 5.336-10.167 7.208.083-.66.136-1.325.161-1.996zm9.988-9.947c-2.841-2.889-8.533-5.24-15.96-6.532 0-.025.004-.049.004-.074 0-.482-.05-.964-.149-1.437l.411-.411c9.085 1.676 15.252 5.01 15.694 8.454zm-21.505-11.39.574.174L57.121 2.293A.996.996 0 0 1 57.829 2C59.026 2 60 2.974 60 4.171a.996.996 0 0 1-.293.708L41.61 22.975l.174.574c.143.472.216.961.216 1.451 0 1.217-.194 2.4-.578 3.531a4.636 4.636 0 0 0-1.965-.514A8.973 8.973 0 0 0 40 25c0-1.654-1.346-3-3-3-4.044 0-7.473 2.682-8.604 6.361A2.957 2.957 0 0 0 27 28h-.58c1.319-4.699 5.59-8 10.58-8 .49 0 .979.073 1.451.216zm-13.124 5.056A12.973 12.973 0 0 0 24.358 28H23a2.996 2.996 0 0 0-2.816 2H14v-2c0-3.309 2.691-6 6-6a5.978 5.978 0 0 1 5.327 3.272zM12.933 24.26a7.922 7.922 0 0 0-.772 2.141c-4.616 1.336-8.096 3.133-10.12 5.199.364-2.769 4.472-5.512 10.892-7.34zM2.48 40.784c2.169 1.982 5.662 3.674 10.073 4.92a23.53 23.53 0 0 0 9.12 13.897C12.056 57.843 4.421 50.338 2.48 40.784zm37.846 18.818a23.521 23.521 0 0 0 9.12-13.897c4.412-1.247 7.904-2.939 10.073-4.92-1.94 9.553-9.575 17.058-19.193 18.817z" fill="#000000" data-original="#000000" class=""></path><circle cx="17" cy="27" r="1" fill="#000000" data-original="#000000" class=""></circle><circle cx="21" cy="25" r="1" fill="#000000" data-original="#000000" class=""></circle><path d="m48.284 32.295 2-2 1.414 1.414-2 2zM7.288 35.29l2-2 1.414 1.414-2 2zM7 14h3c1.103 0 2 .897 2 2h2c0-2.206-1.794-4-4-4H7c-2.757 0-5-2.243-5-5s2.243-5 5-5h4c1.654 0 3 1.346 3 3s-1.346 3-3 3c-.551 0-1-.449-1-1s.449-1 1-1h1V4h-1C9.346 4 8 5.346 8 7s1.346 3 3 3c2.757 0 5-2.243 5-5s-2.243-5-5-5H7C3.14 0 0 3.14 0 7s3.14 7 7 7zM19 14h2c.551 0 1 .449 1 1s-.449 1-1 1h-1v2h1c1.654 0 3-1.346 3-3s-1.346-3-3-3h-2c-.551 0-1-.449-1-1s.449-1 1-1h3V8h-3c-1.654 0-3 1.346-3 3s1.346 3 3 3zM30 5c0 .939-.449 1.837-1.2 2.4l-1.067.8A4.355 4.355 0 0 0 26 11.667 4.338 4.338 0 0 0 30.333 16H34v-2h-3.667A2.336 2.336 0 0 1 28 11.667c0-.73.349-1.428.934-1.867L30 9a5.025 5.025 0 0 0 2-4c0-2.757-2.243-5-5-5h-7v2h7c1.654 0 3 1.346 3 3z" fill="#000000" data-original="#000000" class=""></path><circle cx="25" cy="53" r="1" fill="#000000" data-original="#000000" class=""></circle><circle cx="9" cy="49" r="1" fill="#000000" data-original="#000000" class=""></circle><circle cx="37" cy="53" r="1" fill="#000000" data-original="#000000" class=""></circle><circle cx="53" cy="49" r="1" fill="#000000" data-original="#000000" class=""></circle></g></svg>