<svg xmlns="http://www.w3.org/2000/svg" version="1.1" xmlns:xlink="http://www.w3.org/1999/xlink" width="24" height="24" x="0" y="0" viewBox="0 0 512 512" style="enable-background:new 0 0 512 512" xml:space="preserve" class=""><g><g data-name="Layer 2"><path d="M256 35a221.07 221.07 0 0 1 86 424.65 221.07 221.07 0 0 1-172-407.3A219.64 219.64 0 0 1 256 35m0-35C114.62 0 0 114.62 0 256s114.62 256 256 256 256-114.62 256-256S397.38 0 256 0z" fill="#ffffff" data-original="#000000" class=""></path><path d="M383.38 247.19 307.15 171a12.34 12.34 0 0 0-21.07 8.71l-.08 39.64H137.34A12.35 12.35 0 0 0 125 231.7v47.05a12.34 12.34 0 0 0 12.34 12.34h148.58v41.22A12.34 12.34 0 0 0 307 341l76.39-76.39a12.33 12.33 0 0 0-.01-17.42z" fill="#ffffff" data-original="#000000" class=""></path></g></g></svg>