<svg xmlns="http://www.w3.org/2000/svg" version="1.1" xmlns:xlink="http://www.w3.org/1999/xlink" xmlns:svgjs="http://svgjs.com/svgjs" width="24" height="24" x="0" y="0" viewBox="0 0 50 50" style="enable-background:new 0 0 512 512" xml:space="preserve" class=""><g><path d="m45.47 36.17-1.94 1.88.46 2.66c.03.19-.04.38-.2.49a.465.465 0 0 1-.52.04l-2.4-1.26-2.39 1.26a.506.506 0 0 1-.73-.53l.46-2.66-1.94-1.88c-.14-.13-.19-.33-.13-.51s.22-.31.41-.34l2.68-.39 1.19-2.42c.17-.34.73-.34.9 0l1.2 2.42 2.67.39c.19.03.35.16.41.34s.01.38-.13.51zM48.84 13.52l-1.34 1.31.32 1.84c.03.19-.05.38-.2.49-.16.12-.36.13-.53.04l-1.66-.87-1.67.87c-.07.04-.15.06-.23.06a.511.511 0 0 1-.5-.59l.32-1.84-1.34-1.31a.487.487 0 0 1-.13-.51c.06-.19.21-.32.4-.35l1.86-.26.84-1.69c.08-.17.26-.27.45-.27s.36.1.44.27l.84 1.69 1.86.26c.19.03.34.16.4.35.06.17.01.38-.13.51z" fill="#ffb572" data-original="#000000" class=""></path><path d="M46.13 19.67h-5.84V8.38c0-1.99-1.65-3.61-3.67-3.61H11.94c-2.04 0-3.7 1.64-3.7 3.65v4.96c-.18-.02-.35-.03-.52-.03-3.71 0-6.72 3-6.72 6.68 0 4.82 3.94 8.68 7.24 11.05v13.66c0 .18.09.34.25.43.15.09.34.09.5 0l11.7-6.75 12.52 6.76c.08.04.16.06.24.06.09 0 .18-.02.26-.07.15-.09.24-.26.24-.43V29.27h9.01c2.02 0 3.67-1.62 3.67-3.61v-5.48a.51.51 0 0 0-.5-.51zM7.92 22.61l2.2-2.18 2.1 2.09.72.72c.2.2.52.2.71 0l8.05-8.03c.01 0 .01 0 .01-.01l1.52-1.51 2.2 2.19-7.75 7.71-4.38 4.37-3.37-3.35zM33.74 6.16c-.05.05-.1.1-.14.16-.1.14-.18.3-.26.45-.03.06-.06.11-.09.17-.08.18-.14.37-.19.57l-.03.12c-.05.24-.08.48-.08.74V43.9l-12.03-6.5a.484.484 0 0 0-.48.01l-11.2 6.45v-12.1c1.79 1.19 3.2 1.87 3.36 1.94.07.04.14.05.22.05.07 0 .14-.01.21-.05.47-.22 11.62-5.58 11.62-13.68 0-.57-.09-1.14-.24-1.72l2.08-2.07a.5.5 0 0 0 .14-.35c0-.14-.05-.27-.14-.36l-2.91-2.89a.492.492 0 0 0-.7 0l-1.62 1.61c-1.02-.58-2.16-.9-3.33-.9-1.97 0-3.84.86-5.11 2.34a6.681 6.681 0 0 0-3.58-2.17v-5.1c0-1.46 1.21-2.65 2.7-2.65h22.14c0 .01-.01.02-.01.02-.13.12-.23.25-.33.38zm11.89 19.49c0 1.43-1.2 2.61-2.67 2.61s-2.67-1.18-2.67-2.61v-4.98h5.34z" fill="#ffb572" data-original="#000000" class=""></path><path d="M23.71 30.78c-.12-.25-.42-.35-.67-.22s-.35.42-.22.67l.58 1.16c.09.17.26.28.45.28a.488.488 0 0 0 .44-.72zM25.37 30.08c-.21-.18-.53-.14-.7.07s-.14.53.07.7l1.17.96c.09.08.2.11.32.11.15 0 .29-.06.39-.18.17-.21.14-.53-.07-.7zM26.61 28.47l-1.25-.34c-.27-.07-.54.09-.61.35s.09.54.35.61l1.25.34c.04.01.09.02.13.02.22 0 .42-.15.48-.37a.485.485 0 0 0-.35-.61z" fill="#ffb572" data-original="#000000" class=""></path></g></svg>