<svg xmlns="http://www.w3.org/2000/svg" version="1.1" xmlns:xlink="http://www.w3.org/1999/xlink" xmlns:svgjs="http://svgjs.com/svgjs" width="260" height="260" x="0" y="0" viewBox="0 0 55 55" style="enable-background:new 0 0 512 512" xml:space="preserve"><g><path fill="#bf7d5a" d="M48.922 29.08c.057-.547-.268-1.107-.991-1.526l-19.36-11.18c-1.34-.77-3.5-.77-4.83 0L4.5 27.554c-.66.38-.99.89-.99 1.39l-.01 3.97c0 .51.33 1.02 1.01 1.41l19.36 11.18c1.33.77 3.5.77 4.83 0l19.23-11.18c.66-.38 1-.89 1-1.39l.01-3.97c0 .039-.015.077-.02.116zm-.022.13z" data-original="#bf7d5a"></path><path fill="#bf7d5a" d="m48.936 28.96-.01 3.978c0 .497-.331 1.004-.994 1.384L28.698 45.504c-1.325.77-3.5.77-4.825 0L4.513 34.322c-.682-.39-1.014-.896-1.014-1.403l.01-3.978c0 .507.341 1.024 1.014 1.414l19.36 11.171c1.335.77 3.5.78 4.825 0l19.234-11.171c.662-.39.994-.887.994-1.394z" data-original="#bf7d5a"></path><path fill="#dba660" d="M47.93 27.556c1.332.769 1.346 2.023.016 2.795L28.71 41.531c-1.33.772-3.494.769-4.826 0L4.52 30.35c-1.338-.772-1.345-2.023-.016-2.795l19.237-11.18c1.33-.772 3.489-.772 4.827 0z" data-original="#dba660"></path><path fill="#ffde9b" d="M24.837 39.877 7.84 30.063a1.292 1.292 0 0 1-.004-2.235l16.865-9.8c.346-.202.888-.321 1.45-.321.565 0 1.11.12 1.461.323l17 9.814c.859.496.86 1.737.002 2.236l-16.864 9.8c-.729.424-2.167.427-2.913-.003z" data-original="#ffde9b"></path><path fill="#bf7d5a" d="m51.5 22.084-.01 3.98c0 .5-.33 1-1 1.38l-19.23 11.18c-1.33.77-3.5.77-4.82 0L7.07 27.444c-.68-.39-1.01-.89-1.01-1.4l.01-3.97c0-.5.34-1.01 1-1.39L26.3 9.504c1.33-.78 3.49-.78 4.83 0l19.36 11.18c.67.38 1.01.89 1.01 1.4z" data-original="#bf7d5a"></path><path fill="#bf7d5a" d="m51.499 22.084-.01 3.978c0 .497-.331 1.004-.994 1.384L31.26 38.627c-1.325.77-3.5.77-4.825 0L7.076 27.446c-.683-.39-1.014-.897-1.014-1.404l.01-3.977c0 .507.34 1.023 1.014 1.413l19.36 11.172c1.335.77 3.5.78 4.825 0l19.233-11.172c.663-.39.995-.887.995-1.394z" data-original="#bf7d5a"></path><path fill="#dba660" d="M50.493 20.68c1.332.768 1.345 2.022.016 2.795l-19.237 11.18c-1.33.772-3.494.768-4.826 0L7.083 23.474c-1.338-.772-1.345-2.023-.016-2.796L26.304 9.5c1.33-.772 3.488-.772 4.827 0z" data-original="#dba660"></path><path fill="#ffde9b" d="m27.4 33-16.997-9.813a1.292 1.292 0 0 1-.004-2.236l16.865-9.8c.729-.424 2.162-.43 2.911.003l17 9.814c.859.496.86 1.736.002 2.235l-16.864 9.8c-.73.424-2.167.428-2.913-.003z" data-original="#ffde9b"></path><path fill="#f3f1fc" d="M19.21 17.357c-.011-.332-.271-.594-.43-.886-1.01-1.864 1.775-4.062 4.842-3.437 1.064.217 2.055.76 3.137.86 2.432.227 3.427-1.585 4.62-2.473.749-.557 1.835-.863 2.597-.323.856.608.878 1.962 1.714 2.597.626.477 1.242.414 4.52.493.5.012.711.121.774.668.104.895-.022 1.862.422 2.647.238.42.614.738.962 1.07 1.285 1.232 3.198 3.97 2.824 5.685-.331 1.516-1.703 2.06-7.247 5.343-2.642 1.564-5.363 3.282-8.098 3.661-2.06.286-4.339-.236-5.704-1.804-1.457-1.671-.998-2.662-5.25-4.035-1.141-.37-2.283-.738-3.424-1.107-1.885-.609-4.14-2.064-2.66-4.316.444-.674 1.33-1.087 1.976-1.548 3.11-2.223 4.457-2.148 4.425-3.095z" data-original="#f3f1fc"></path><path fill="#ffffff" d="M20.315 19.113c1.4-.727.476-1.21.324-1.736-.582-1.738 2.236-3.503 5.047-2.337.696.238 1.408.464 2.127.357 1.866-.228 2.232-1.817 3.645-2.356.36-.139.77-.207 1.17-.1 1.241.312 1.062 2.082 2.102 2.427.631.212 1.415.115 2.144.155 1.25.018 1.533-.034 1.766.271.364.539-.006 1.892.588 2.654.999.954 2.123 2.152 2.691 3.553.855 1.873.19 2.88-1.548 3.968-5.667 3.22-8.84 5.636-12.12 5.323-1.504-.106-3.04-.895-3.8-2.233-.778-1.229-1.23-1.76-3.406-2.498-2.117-.79-5.316-1.306-5.53-3.244-.052-.768.385-1.505 1-1.92 1.224-.83 2.534-1.525 3.8-2.284zm0 0c-1.255.781-2.548 1.495-3.757 2.344-.594.413-.993 1.137-.933 1.848.23 1.843 3.428 2.316 5.49 3.044 2.265.728 2.77 1.3 3.582 2.544.75 1.261 2.156 1.94 3.585 2.029 3.275.26 6.57-2.396 11.785-5.459 1.534-.905 2.076-1.645 1.379-3.257-.55-1.37-1.477-2.391-2.575-3.496-.511-.709-.408-1.56-.464-2.25-.035-.418-.045-.539-.435-.532l-1.107-.036c-.736-.06-1.47.049-2.255-.215-.846-.326-1-1.252-1.33-1.826-.297-.664-1.073-.847-1.73-.568-1.33.472-1.79 2.104-3.715 2.297-.767.1-1.51-.153-2.196-.4-1.343-.582-2.971-.554-4.19.297-.595.403-1 1.17-.775 1.889.141.542 1.068 1.03-.359 1.747z" data-original="#ffffff"></path><path fill="#ffd06c" d="M35.868 21.682c0 2.388-2.876 4.284-6.456 4.284-3.516 0-6.392-1.896-6.392-4.284s2.876-4.284 6.392-4.284c3.58 0 6.456 1.896 6.456 4.284z" data-original="#ffd06c"></path><path fill="#febc1f" d="M29.416 25.961c-2.457 0-4.6-.92-5.662-2.285 4.053 2.51 10.778.6 10.778-3.154 0-.718-.263-1.395-.728-1.982 4.2 2.534 1.614 7.421-4.388 7.421z" data-original="#febc1f"></path></g></svg>