<svg width="24" height="24" viewBox="0 0 20 16" fill="none" xmlns="http://www.w3.org/2000/svg"><path d="M2 0C0.895 0 0 0.895 0 2V4V7V14C0 15.105 0.895 16 2 16H18C19.105 16 20 15.105 20 14V2C20 0.895 19.105 0 18 0H2ZM2 2H18V4H2V2ZM2 7H18V14H2V7ZM13 9C11.895 9 11 9.895 11 11C11 12.105 11.895 13 13 13C13.366 13 13.705 12.8937 14 12.7227C13.405 12.3757 13 11.738 13 11C13 10.262 13.405 9.62434 14 9.27734C13.705 9.10634 13.366 9 13 9ZM14 9.27734C14.595 9.62434 15 10.262 15 11C15 11.738 14.595 12.3757 14 12.7227C14.295 12.8937 14.634 13 15 13C16.105 13 17 12.105 17 11C17 9.895 16.105 9 15 9C14.634 9 14.295 9.10634 14 9.27734Z" fill="#000"></path></svg>