<svg width="24" height="24" viewBox="0 0 22 21" fill="none" xmlns="http://www.w3.org/2000/svg"><path d="M10 0L4.45117 1.58594C3.59217 1.83094 3 2.61677 3 3.50977V5H1C0.447 5 0 5.447 0 6V16C0 16.553 0.447 17 1 17H3V18C3 19.657 4.343 21 6 21H15.0273C15.5353 21 16.0255 20.807 16.3965 20.459L21.8906 15.3105L21.0762 14.3848C20.6882 13.9448 20.1372 13.707 19.5742 13.707C19.3212 13.707 19.0663 13.7545 18.8223 13.8535L16 15H2.91211C2.83749 14.7897 2.7169 14.5987 2.55911 14.4409C2.40132 14.2831 2.21031 14.1625 2 14.0879V7.91211C2.21031 7.83749 2.40132 7.7169 2.55911 7.55911C2.7169 7.40131 2.83749 7.21031 2.91211 7H3H16H17.0879C17.1625 7.21031 17.2831 7.40131 17.4409 7.55911C17.5987 7.7169 17.7897 7.83749 18 7.91211V12H20V6C20 5.447 19.553 5 19 5H16V2C16 0.895 15.105 0 14 0H10ZM10.2793 2H14V5H5V3.50977L10.2793 2ZM10 8.5C9.33696 8.5 8.70107 8.76339 8.23223 9.23223C7.76339 9.70107 7.5 10.337 7.5 11C7.5 11.663 7.76339 12.2989 8.23223 12.7678C8.70107 13.2366 9.33696 13.5 10 13.5C10.663 13.5 11.2989 13.2366 11.7678 12.7678C12.2366 12.2989 12.5 11.663 12.5 11C12.5 10.337 12.2366 9.70107 11.7678 9.23223C11.2989 8.76339 10.663 8.5 10 8.5ZM5 10C4.448 10 4 10.447 4 11C4 11.553 4.448 12 5 12C5.552 12 6 11.553 6 11C6 10.447 5.552 10 5 10ZM15 10C14.448 10 14 10.447 14 11C14 11.553 14.448 12 15 12C15.552 12 16 11.553 16 11C16 10.447 15.552 10 15 10ZM5 17H17.1621L15.0273 19H6C5.449 19 5 18.551 5 18V17Z" fill="#EA7C69"></path></svg>