<svg xmlns="http://www.w3.org/2000/svg" version="1.1" xmlns:xlink="http://www.w3.org/1999/xlink" width="24" height="24" x="0" y="0" viewBox="0 0 443.12 443.12" style="enable-background:new 0 0 512 512" xml:space="preserve" class=""><g><path d="M221.56 0C99.403 0 0 99.403 0 221.56s99.403 221.56 221.56 221.56 221.56-99.403 221.56-221.56S343.717 0 221.56 0zm0 419.168c-108.984 0-197.608-88.624-197.608-197.608S112.576 23.952 221.56 23.952s197.608 88.624 197.608 197.608-88.624 197.608-197.608 197.608z" fill="#000" data-original="#000000" class=""></path><path d="M221.56 107.786c6.587 0 11.976-5.389 11.976-11.976V59.881c0-6.587-5.389-11.976-11.976-11.976s-11.976 5.389-11.976 11.976V95.81c0 6.587 5.389 11.976 11.976 11.976zM221.56 335.334c-6.587 0-11.976 5.389-11.976 11.976v35.929c0 6.587 5.389 11.976 11.976 11.976s11.976-5.389 11.976-11.976V347.31c0-6.587-5.389-11.976-11.976-11.976zM335.334 221.56c0 6.587 5.389 11.976 11.976 11.976h35.929c6.587 0 11.976-5.389 11.976-11.976s-5.389-11.976-11.976-11.976H347.31c-6.587 0-11.976 5.389-11.976 11.976zM107.786 221.56c0-6.587-5.389-11.976-11.976-11.976H59.881c-6.587 0-11.976 5.389-11.976 11.976s5.389 11.976 11.976 11.976H95.81c6.587 0 11.976-5.389 11.976-11.976zM310.483 144.613c3.054 0 6.108-1.198 8.443-3.533l25.39-25.39c4.671-4.671 4.671-12.276 0-16.946s-12.276-4.671-16.946 0l-25.39 25.39c-4.671 4.671-4.671 12.276 0 16.946a11.924 11.924 0 0 0 8.503 3.533zM124.193 302.04l-25.39 25.39c-4.671 4.671-4.671 12.276 0 16.946 2.335 2.335 5.389 3.533 8.443 3.533s6.108-1.198 8.443-3.533l25.39-25.39c4.671-4.671 4.671-12.276 0-16.946s-12.215-4.73-16.886 0zM318.927 302.04c-4.671-4.671-12.276-4.671-16.946 0-4.671 4.671-4.671 12.276 0 16.946l25.39 25.39c2.335 2.335 5.389 3.533 8.443 3.533s6.108-1.198 8.443-3.533c4.671-4.671 4.671-12.276 0-16.946zM115.69 98.744c-4.671-4.671-12.276-4.671-16.946 0s-4.671 12.276 0 16.946l25.39 25.39c2.335 2.335 5.389 3.533 8.443 3.533s6.108-1.198 8.443-3.533c4.671-4.671 4.671-12.276 0-16.946zM272.399 150.84l-49.941 57.905-30.899-34.192c-4.431-4.91-12.036-5.27-16.946-.838-4.91 4.431-5.27 12.036-.838 16.946l32.935 36.408-9.162 10.599c-4.311 5.03-3.773 12.575 1.257 16.886 2.275 1.976 5.03 2.934 7.785 2.934 3.353 0 6.707-1.437 9.102-4.132l7.186-8.383 7.785 8.563c2.335 2.635 5.629 3.952 8.862 3.952 2.874 0 5.749-1.018 8.024-3.114 4.91-4.431 5.27-12.036.838-16.946l-9.761-10.779 51.857-60.18c4.311-5.03 3.773-12.575-1.258-16.886-4.97-4.312-12.515-3.713-16.826 1.257z" fill="#000" data-original="#000000" class=""></path></g></svg>