<svg width="24" height="24" viewBox="0 0 25 24" fill="#fff" xmlns="http://www.w3.org/2000/svg"><path d="M18.5 5C17.672 5 17 5.672 17 6.5C17 6.67612 17.036 6.84296 17.0918 7H14V9H17.3066L17.5684 9.69727L17.4941 9.65625L13.4121 17H12C11.9999 16.9344 11.9934 16.869 11.9805 16.8047L11.2188 13H12V11H7V6H0V7V13H4.25391C4.13729 13.1481 4.01786 13.2955 3.91797 13.4453C3.33263 14.3233 3 15.1667 3 16C3.00005 16.2652 3.10543 16.5195 3.29297 16.707L3.45117 16.8652C3.18772 17.3567 3.02344 17.9076 3.02344 18.5C3.02344 20.4188 4.59478 22 6.51172 22C8.25777 22 9.7029 20.6839 9.94922 19H12H14H17.0742C17.3205 20.6839 18.7657 22 20.5117 22C22.4287 22 24 20.4188 24 18.5C24 17.0321 23.0776 15.7679 21.7871 15.252L21.6914 15H24V13H20.9414L19.0664 8H21V5H18.5ZM2 8H5V11H2V8ZM18.4512 12.0527L19.6074 15.1367C18.6234 15.4063 17.813 16.0932 17.377 17H15.6992L18.4512 12.0527ZM7.26953 13H9.17969L9.98047 17H9.64648C9.08179 15.8256 7.8913 15 6.51172 15C6.06192 15 5.63419 15.0939 5.23828 15.252C5.30532 15.0501 5.40397 14.8218 5.58203 14.5547C5.96497 13.9803 6.53845 13.4086 7.26953 13ZM6.51172 17C7.34278 17 8 17.6568 8 18.5C8 19.3432 7.34278 20 6.51172 20C5.68066 20 5.02344 19.3432 5.02344 18.5C5.02344 17.6568 5.68066 17 6.51172 17ZM20.5117 17C21.3428 17 22 17.6568 22 18.5C22 19.3432 21.3428 20 20.5117 20C19.6807 20 19.0234 19.3432 19.0234 18.5C19.0234 17.6568 19.6807 17 20.5117 17Z" fill="#000"></path></svg>