<svg width="24" height="24" viewBox="0 0 24 24" fill="none" xmlns="http://www.w3.org/2000/svg"><path d="M12 3.0001C11.8675 2.99823 11.7359 3.02271 11.613 3.07212C11.49 3.12153 11.3781 3.1949 11.2837 3.28794C11.1893 3.38098 11.1144 3.49186 11.0632 3.61411C11.0121 3.73637 10.9858 3.86757 10.9858 4.0001C10.9858 4.13263 11.0121 4.26383 11.0632 4.38609C11.1144 4.50834 11.1893 4.61922 11.2837 4.71226C11.3781 4.8053 11.49 4.87867 11.613 4.92808C11.7359 4.97749 11.8675 5.00197 12 5.0001H12.1582C11.8152 5.78701 11.4577 6.76966 11.2246 7.94737C10.465 7.3624 9.52631 7.0001 8.5 7.0001C6.19751 7.0001 4.30453 8.76214 4.05078 11.0001H3C2.73479 11.0001 2.48045 11.1055 2.29292 11.293C2.10539 11.4806 2.00003 11.7349 2 12.0001V14.0001C1.99989 14.13 2.0251 14.2587 2.07422 14.379L4.5293 20.379C4.60453 20.5627 4.73275 20.7199 4.89762 20.8305C5.06249 20.9411 5.25655 21.0002 5.45508 21.0001H18.5449C18.7435 21.0002 18.9375 20.9411 19.1024 20.8305C19.2672 20.7199 19.3955 20.5627 19.4707 20.379L21.9258 14.379C21.9749 14.2587 22.0001 14.13 22 14.0001V12.0001C22 11.7349 21.8946 11.4806 21.7071 11.293C21.5195 11.1055 21.2652 11.0001 21 11.0001H20V10.0001C20 8.02544 19.3764 6.22671 18.8418 5.0001H19C19.1325 5.00197 19.2641 4.97749 19.387 4.92808C19.51 4.87867 19.6219 4.8053 19.7163 4.71226C19.8107 4.61922 19.8856 4.50834 19.9368 4.38609C19.9879 4.26383 20.0142 4.13263 20.0142 4.0001C20.0142 3.86757 19.9879 3.73637 19.9368 3.61411C19.8856 3.49186 19.8107 3.38098 19.7163 3.28794C19.6219 3.1949 19.51 3.12153 19.387 3.07212C19.2641 3.02271 19.1325 2.99823 19 3.0001H12ZM14.3867 5.0001H16.6133C16.9478 5.64233 18 7.75512 18 10.0001V11.0001H13V10.0001C13 7.75512 14.0522 5.64233 14.3867 5.0001ZM8.5 9.0001C9.72114 9.0001 10.7211 9.85144 10.9492 11.0001H6.05078C6.27894 9.85144 7.27886 9.0001 8.5 9.0001ZM4 13.0001H11.832C11.94 13.0179 12.0502 13.0179 12.1582 13.0001H18.832C18.94 13.0179 19.0502 13.0179 19.1582 13.0001H20V13.8028L17.873 19.0001H6.12695L4 13.8028V13.0001Z" fill="#000"></path></svg>