<svg xmlns="http://www.w3.org/2000/svg" version="1.1" xmlns:xlink="http://www.w3.org/1999/xlink" width="24" height="24" x="0" y="0" viewBox="0 0 64 64" style="enable-background:new 0 0 512 512" xml:space="preserve"><g><path d="M14.177 24.113a2.002 2.002 0 0 1-1.965-2.386c.311-1.583 1.183-4.495 3.526-6.205 1.834-1.338 4.323-1.912 6.658-1.542a2.001 2.001 0 0 1-.629 3.951c-1.287-.206-2.695.11-3.672.822-.907.662-1.621 2.027-1.958 3.745a2 2 0 0 1-1.96 1.615z" fill="#ffc700" data-original="#ffc700"></path><path d="M31.998 58.078c-.383 0-.771-.109-1.113-.34-3.478-2.335-6.106-4.202-8.521-6.054-6.14-4.709-13.609-11.23-16.891-19.94-2.966-7.872-1.5-18.837 7.059-23.653 6.309-3.547 14.432-2.703 20.693 2.15a2 2 0 0 1-2.451 3.162c-4.987-3.865-11.379-4.581-16.282-1.826-6.374 3.588-7.688 12.354-5.276 18.757 2.925 7.763 9.864 13.791 15.582 18.177 2.346 1.799 4.91 3.62 8.316 5.907a2 2 0 0 1-1.116 3.66z" fill="#ffc700" data-original="#ffc700"></path><path d="M32.002 58.078a2 2 0 0 1-1.117-3.66c3.406-2.287 5.97-4.108 8.315-5.907 5.719-4.386 12.658-10.414 15.583-18.177 2.412-6.402 1.098-15.169-5.277-18.757-4.903-2.755-11.293-2.04-16.281 1.826a2.002 2.002 0 0 1-2.451-3.162c6.262-4.853 14.383-5.696 20.692-2.15 8.56 4.816 10.025 15.781 7.06 23.653-3.282 8.71-10.751 15.231-16.892 19.94-2.414 1.852-5.042 3.719-8.52 6.054-.342.231-.729.34-1.112.34z" fill="#ffc700" data-original="#ffc700"></path></g></svg>