<svg xmlns="http://www.w3.org/2000/svg" version="1.1" xmlns:xlink="http://www.w3.org/1999/xlink" width="18" height="18" x="0" y="0" viewBox="0 0 24 24" style="enable-background:new 0 0 512 512" xml:space="preserve" class=""><g><path d="M7 11H4c-2.206 0-4-1.794-4-4V4c0-2.206 1.794-4 4-4h3c2.206 0 4 1.794 4 4v3c0 2.206-1.794 4-4 4zM4 3c-.551 0-1 .449-1 1v3c0 .551.449 1 1 1h3c.551 0 1-.449 1-1V4c0-.551-.449-1-1-1zm16 8h-3c-2.206 0-4-1.794-4-4V4c0-2.206 1.794-4 4-4h3c2.206 0 4 1.794 4 4v3c0 2.206-1.794 4-4 4zm-3-8c-.552 0-1 .449-1 1v3c0 .551.448 1 1 1h3c.552 0 1-.449 1-1V4c0-.551-.448-1-1-1zM7 24H4c-2.206 0-4-1.794-4-4v-3c0-2.206 1.794-4 4-4h3c2.206 0 4 1.794 4 4v3c0 2.206-1.794 4-4 4zm-3-8c-.551 0-1 .449-1 1v3c0 .551.449 1 1 1h3c.551 0 1-.449 1-1v-3c0-.551-.449-1-1-1zm13-.5v-1a1.5 1.5 0 0 0-1.5-1.5h-1a1.5 1.5 0 0 0-1.5 1.5v1a1.5 1.5 0 0 0 1.5 1.5h1a1.5 1.5 0 0 0 1.5-1.5zm3 3a1.5 1.5 0 1 0-3.001.001A1.5 1.5 0 0 0 20 18.5zm-3 4v-1a1.5 1.5 0 0 0-1.5-1.5h-1a1.5 1.5 0 0 0-1.5 1.5v1a1.5 1.5 0 0 0 1.5 1.5h1a1.5 1.5 0 0 0 1.5-1.5zm7-7v-1a1.5 1.5 0 0 0-1.5-1.5h-1a1.5 1.5 0 0 0-1.5 1.5v1a1.5 1.5 0 0 0 1.5 1.5h1a1.5 1.5 0 0 0 1.5-1.5z" fill="#ffc700" data-original="#000000" class=""></path></g></svg>