<svg xmlns="http://www.w3.org/2000/svg" version="1.1" xmlns:xlink="http://www.w3.org/1999/xlink" xmlns:svgjs="http://svgjs.com/svgjs" width="24" height="24" x="0" y="0" viewBox="0 0 32 32" style="enable-background:new 0 0 512 512" xml:space="preserve" class=""><g><g data-name="Layer 2"><g fill="#3199eb"><rect width="8" height="12" x="12" y="18" rx="2" fill="#3199eb" data-original="#3199eb" class=""></rect><rect width="8" height="9" x="2" y="21" rx="2" fill="#3199eb" data-original="#3199eb" class=""></rect><rect width="8" height="17" x="22" y="13" rx="2" fill="#3199eb" data-original="#3199eb" class=""></rect></g><path fill="#00a663" d="M27 2h-5a1 1 0 0 0 0 2h2.683a39.946 39.946 0 0 1-9.173 7.13 40.072 40.072 0 0 1-9.76 3.9A1 1 0 0 0 6 17a1.134 1.134 0 0 0 .25-.03 41.862 41.862 0 0 0 10.24-4.1A41.971 41.971 0 0 0 26 5.514V8a1 1 0 0 0 2 0V3a1 1 0 0 0-1-1z" data-original="#00a66a" class=""></path></g></g></svg>