<svg xmlns="http://www.w3.org/2000/svg" version="1.1" xmlns:xlink="http://www.w3.org/1999/xlink" width="512" height="512" x="0" y="0" viewBox="0 0 512 512" style="enable-background:new 0 0 512 512" xml:space="preserve" class=""><g><path d="M28.071 350.5h455.858v-50H28.071zM431 314.606h10v21.788h-10zm-30 0h10v21.788h-10zm-30 0h10v21.788h-10zm-30 0h10v21.788h-10zm-30 0h10v21.788h-10zm-30 0h10v21.788h-10zm-30 0h10v21.788h-10zm-30 0h10v21.788h-10zm-30 0h10v21.788h-10zm-30 0h10v21.788h-10zm-30 0h10v21.788h-10zm-30 0h10v21.788h-10zm-30 0h10v21.788H71zM472.395 102.595H39.605L256 246.649zM28.071 360.5h455.858v48.905H28.071z" fill="#000000" data-original="#000000"></path><path d="M258.771 256.817a5 5 0 0 1-5.542 0L28.071 106.93V290.5h455.858V106.93zM59.206 273h-10v-95.177h10zm0-107h-10v-14.778h10z" fill="#000000" data-original="#000000"></path></g></svg>