<svg xmlns="http://www.w3.org/2000/svg" version="1.1" xmlns:xlink="http://www.w3.org/1999/xlink" width="512" height="512" x="0" y="0" viewBox="0 0 512 512" style="enable-background:new 0 0 512 512" xml:space="preserve" class=""><g><path fill="#bacadd" d="M23 98h466v316H23z" data-name="Path" data-original="#bacadd" class=""></path><path fill="#eb7288" d="M23.07 295.5h465.86v60H23.07z" data-original="#eb7288"></path><path fill="#9fb0c1" d="M23 98h30v316H23z" data-original="#9fb0c1"></path><path fill="#d3627a" d="M23.07 295.5h30v60h-30z" data-original="#d3627a"></path><path fill="#d4e1f4" d="M488.93 97.59 256 252.66 23.07 97.59z" data-original="#d4e1f4" class=""></path><g fill="#bc516d"><path d="M190 315h12v21h-12zM160 315h12v21h-12zM130 315h12v21h-12zM100 315h12v21h-12zM70 315h12v21H70zM220 315h12v21h-12zM250 315h12v21h-12zM280 315h12v21h-12zM310 315h12v21h-12zM340 315h12v21h-12zM370 315h12v21h-12zM400 315h12v21h-12zM430 315h12v21h-12z" fill="#bc516d" data-original="#bc516d"></path></g><path fill="#ffffff" d="M48 151h12v15H48zM48 178h12v95H48z" data-original="#ffffff"></path></g></svg>