<svg xmlns="http://www.w3.org/2000/svg" version="1.1" xmlns:xlink="http://www.w3.org/1999/xlink" xmlns:svgjs="http://svgjs.dev/svgjs" width="1000" height="750" viewBox="0 0 1000 750"><rect width="1000" height="750" fill="#ffffff"></rect><g transform="matrix(0.834,0,0,0.834,82.49454545454546,268.94048708798744)"><svg viewBox="0 0 396 101" data-background-color="#ffffff" preserveAspectRatio="xMidYMid meet" height="255" width="1000" xmlns="http://www.w3.org/2000/svg" xmlns:xlink="http://www.w3.org/1999/xlink"><g id="tight-bounds" transform="matrix(1,0,0,1,0.2400000000000091,-0.13083272622714048)"><svg viewBox="0 0 395.52 101.2616654524543" height="101.2616654524543" width="395.52"><g><svg viewBox="0 0 563.2497322809947 144.20410082024307" height="101.2616654524543" width="395.52"><g transform="matrix(1,0,0,1,0,32.80522358489678)"><svg viewBox="0 0 395.52 78.59365365044951" height="78.59365365044951" width="395.52"><g id="textblocktransform"><svg viewBox="0 0 395.52 78.59365365044951" height="78.59365365044951" width="395.52" id="textblock"><g><svg viewBox="0 0 395.52 49.82639374767398" height="49.82639374767398" width="395.52"><g transform="matrix(1,0,0,1,0,0)"><svg width="395.52" viewBox="0.7799999713897705 -32.279998779296875 259.45001220703125 33.05999755859375" height="49.82639374767398" data-palette-color="#ecab55"><g class="undefined-text-0" data-fill-palette-color="primary" id="text-0"><path d="M14.04-12.55L14.04-9.55Q14.14-9.47 14.6-9.47 15.06-9.47 15.31-9.79 15.55-10.11 15.55-10.91L15.55-10.91 15.55-11.38Q15.55-12.28 15.34-12.67 15.14-13.06 14.66-13.06 14.18-13.06 14.01-12.96L14.01-12.96Q14.04-12.84 14.04-12.55L14.04-12.55ZM14.04-21.51L14.04-18.75Q14.14-18.68 14.6-18.68 15.06-18.68 15.31-19.04 15.55-19.41 15.55-20.24L15.55-20.24 15.55-20.39Q15.55-21.26 15.34-21.64 15.14-22.02 14.66-22.02 14.18-22.02 14.01-21.92L14.01-21.92Q14.04-21.8 14.04-21.51L14.04-21.51ZM0.78-5.76L0.78-28.15Q0.78-28.71 1.71-29.42L1.71-29.42Q3.66-30.91 8.59-31.74L8.59-31.74Q11.16-32.15 14.23-32.15L14.23-32.15Q21.56-32.15 25.32-29.32L25.32-29.32Q28.61-26.83 28.61-22.78L28.61-22.78Q28.61-21.31 28.1-19.91 27.59-18.51 26.64-17.8L26.64-17.8Q25.34-18.46 24.15-18.46L24.15-18.46Q23.58-18.46 23.29-18.24 23-18.02 23-17.43L23-17.43Q26.59-17.29 28.59-14.84L28.59-14.84Q30.37-12.62 30.37-9.33L30.37-9.33Q30.37-4.22 26.1-1.9L26.1-1.9Q22.09 0.27 14.04 0.27L14.04 0.27Q8.4 0.27 5.76-0.09 3.13-0.44 1.95-1.76 0.78-3.08 0.78-5.76L0.78-5.76ZM51.9-31.93L51.9-31.93Q54.83-31.93 56.98-30.35 59.13-28.76 59.13-25.83L59.13-25.83 59.13-12.26Q59.13-6.05 55.34-2.7 51.56 0.66 44.88 0.66 38.21 0.66 34.49-2.64L34.49-2.64Q30.71-5.93 30.71-12.26L30.71-12.26 30.71-29.66Q33.59-31.96 37.38-31.96L37.38-31.96Q40.55-31.96 42.4-30.29 44.26-28.61 44.26-25.22L44.26-25.22 44.26-10.99Q44.53-10.79 44.88-10.79 45.24-10.79 45.4-10.97 45.55-11.16 45.55-11.67L45.55-11.67 45.55-25.24Q45.55-26.78 45.41-27.69 45.26-28.59 44.82-29.49L44.82-29.49Q47.75-31.93 51.9-31.93ZM60.69-4.52L60.69-4.52 60.69-28.98Q60.69-30.25 62.73-31.09 64.77-31.93 67.52-31.93L67.52-31.93Q69.09-31.93 70.47-31.56 71.85-31.18 72.58-30.59L72.58-30.59Q73.58-29.32 74.41-28 75.24-26.68 78.14-21.85L78.14-21.85Q78.41-21.85 78.63-22.02 78.85-22.19 78.85-22.55 78.85-22.9 78.24-23.93L78.24-23.93 75.61-28.47 75.61-29.81Q76.85-30.83 78.63-31.4 80.41-31.96 82.32-31.96L82.32-31.96Q85.42-31.96 87.32-30.83L87.32-30.83Q89.55-29.49 89.55-26.64L89.55-26.64 89.55-3.52Q89.55-1.42 87.54-0.46L87.54-0.46Q85.83 0.39 82.98 0.39L82.98 0.39Q81.39 0.39 79.89 0.05 78.39-0.29 77.53-0.83L77.53-0.83Q75.8-3.05 74.09-5.81L74.09-5.81 71.6-9.96Q70.89-9.86 70.89-9.2L70.89-9.2Q70.89-8.79 71.6-7.62L71.6-7.62 74.65-2.69 74.65-1.39Q71.82 0.44 68.27 0.44 64.72 0.44 62.7-0.85 60.69-2.15 60.69-4.52ZM105.88-14.72L105.88-16.85Q105.88-19.29 105.66-20.2 105.44-21.12 104.85-21.12L104.85-21.12Q104.48-21.12 104.19-20.87L104.19-20.87Q104.24-20.43 104.34-19.7 104.44-18.97 104.44-16.58L104.44-16.58 104.44-14.99Q104.44-13.33 104.36-12.57 104.29-11.82 104.24-11.28L104.24-11.28Q104.22-10.99 104.19-10.69L104.19-10.69Q104.48-10.45 104.85-10.45L104.85-10.45Q105.44-10.45 105.66-11.36 105.88-12.28 105.88-14.72L105.88-14.72ZM102.95 0.02L96.77 0.02Q94.06 0.02 92.58-1.42 91.11-2.86 91.11-5.76L91.11-5.76 91.11-27.73Q91.11-29.59 94.83-30.87 98.55-32.15 103.14-32.15L103.14-32.15Q111.22-32.15 115.76-28.25L115.76-28.25Q120.65-24.05 120.65-15.72L120.65-15.72Q120.65-8.23 115.92-4.1 111.2 0.02 102.95 0.02L102.95 0.02ZM138.74-14.72L138.74-16.85Q138.74-19.29 138.52-20.2 138.3-21.12 137.71-21.12L137.71-21.12Q137.34-21.12 137.05-20.87L137.05-20.87Q137.1-20.43 137.2-19.7 137.29-18.97 137.29-16.58L137.29-16.58 137.29-14.99Q137.29-13.33 137.22-12.57 137.15-11.82 137.1-11.28L137.1-11.28Q137.07-10.99 137.05-10.69L137.05-10.69Q137.34-10.45 137.71-10.45L137.71-10.45Q138.3-10.45 138.52-11.36 138.74-12.28 138.74-14.72L138.74-14.72ZM137.76 0.78L137.76 0.78Q133.41 0.78 129.79-1.01 126.16-2.81 123.94-6.51 121.72-10.21 121.72-15.75L121.72-15.75Q121.72-23.78 126.55-28.3L126.55-28.3Q130.85-32.28 137.61-32.28L137.61-32.28Q144.96-32.28 149.25-27.72 153.53-23.17 153.53-15.75L153.53-15.75Q153.53-7.5 148.94-3.15L148.94-3.15Q144.77 0.78 137.76 0.78ZM167.98-8.89L167.98-8.89Q168.79-9.03 168.79-9.7 168.79-10.38 168.36-11.22 167.93-12.06 167.1-12.82L167.1-12.82Q164.93-14.77 161.22-14.77L161.22-14.77Q159.39-14.77 157.8-14.16L157.8-14.16Q156.12-15.01 155.11-16.87 154.11-18.73 154.11-20.87L154.11-20.87Q154.11-26.49 158.8-29.54L158.8-29.54Q162.83-32.15 168.74-32.15L168.74-32.15Q173.13-32.15 176.13-31.21 179.14-30.27 181.04-28.81L181.04-28.81Q181.6-27.2 181.6-25.46 181.6-23.73 181.14-22.31 180.68-20.9 179.8-20.04L179.8-20.04Q178.97-20.65 176.79-21.29 174.62-21.92 172.84-21.92 171.06-21.92 170.46-21.7 169.86-21.48 169.86-21.02L169.86-21.02Q169.86-20.8 169.93-20.61L169.93-20.61Q170.79-20.83 172.13-20.83L172.13-20.83Q176.89-20.83 179.89-18.58L179.89-18.58Q183.43-15.89 183.43-10.52L183.43-10.52Q183.43-5.79 179.6-2.66L179.6-2.66Q175.45 0.68 168.44 0.68L168.44 0.68Q164.59 0.68 161.76 0.11 158.92-0.46 156.24-1.9L156.24-1.9Q154.41-4.57 154.41-7.31 154.41-10.06 156.29-11.87 158.17-13.67 160.91-13.67 163.66-13.67 165.4-12.55 167.15-11.43 167.98-8.89ZM213.34-25.88L213.34-25.88 213.34-1.61Q210.61 0.44 206.33 0.44L206.33 0.44Q203.04 0.44 201.11-0.9L201.11-0.9Q199.08-2.27 199.08-4.86L199.08-4.86 199.08-9.69 200.82-9.69Q201.82-9.69 202.07-9.95 202.33-10.21 202.33-10.79L202.33-10.79 194.66-10.79Q194.66-10.21 194.88-9.95 195.1-9.69 195.93-9.69L195.93-9.69 197.79-9.69 197.79-1.61Q195.91-0.39 194.22 0.02 192.54 0.44 190.78 0.44L190.78 0.44Q187.49 0.44 185.56-0.9L185.56-0.9Q183.53-2.27 183.53-4.86L183.53-4.86 183.53-29.15Q184.8-30.49 186.67-31.21 188.53-31.93 190.56-31.93L190.56-31.93Q193.52-31.93 195.57-30.47L195.57-30.47Q197.79-28.81 197.79-25.88L197.79-25.88 197.79-21.53 200.89-21.53Q200.89-22.17 200.66-22.4 200.42-22.63 199.91-22.63L199.91-22.63 199.08-22.63 199.08-29.15Q200.35-30.49 202.22-31.21 204.09-31.93 206.11-31.93L206.11-31.93Q209.07-31.93 211.12-30.47L211.12-30.47Q213.34-28.81 213.34-25.88ZM229.16-26.86L229.16-26.86 229.16-25.76Q228.18-23.73 227.67-22.6 227.16-21.46 227.16-21.04L227.16-21.04Q227.16-20.34 227.96-20.34L227.96-20.34 232.77-30.88Q234.46-31.98 237.37-31.98 240.29-31.98 242.39-30.37L242.39-30.37Q244.68-28.56 244.68-25.44L244.68-25.44Q244.68-22.83 242.9-20.3 241.12-17.77 238.24-15.92L238.24-15.92Q236.9-16.67 235.82-16.67 234.75-16.67 234.75-15.63L234.75-15.63Q235.87-15.41 236.79-15 237.7-14.6 238.95-13.45L238.95-13.45 245.44-7.47Q244.73 0.44 237.53 0.44L237.53 0.44Q234.87 0.44 232.97-0.93L232.97-0.93Q230.72-2.51 229.45-5.76L229.45-5.76 227.18-11.43 227.06-11.43Q226.25-11.43 226.25-10.74L226.25-10.74Q226.25-10.3 226.94-8.62L226.94-8.62Q227.62-6.79 228.99-3.74L228.99-3.74 228.99-1.86Q226.42 0.44 221.54 0.44L221.54 0.44Q218.9 0.44 217.02-0.76L217.02-0.76Q214.9-2.05 214.9-4.44L214.9-4.44 214.9-29.64Q217.41-31.93 222.54-31.93L222.54-31.93Q225.2-31.93 227.06-30.81L227.06-30.81Q229.16-29.47 229.16-26.86ZM260.23-27.08L260.23-27.08 260.23-1.86Q259.11-0.88 257.23-0.22 255.35 0.44 252.67 0.44 249.98 0.44 248.1-0.76L248.1-0.76Q245.98-2.05 245.98-4.42L245.98-4.42 245.98-29.64Q247.1-30.62 248.98-31.27 250.86-31.93 253.52-31.93 256.18-31.93 258.13-30.76L258.13-30.76Q260.23-29.42 260.23-27.08Z" fill="#ecab55" data-fill-palette-color="primary"></path></g></svg></g></svg></g><g transform="matrix(1,0,0,1,163.310208,61.58920947804987)"><svg viewBox="0 0 232.209792 17.004444172399637" height="17.004444172399637" width="232.209792"><g transform="matrix(1,0,0,1,0,0)"><svg width="232.209792" viewBox="4.349999904632568 -35.599998474121094 608.9900512695312 44.599998474121094" height="17.004444172399637" data-palette-color="#ea7c69"><path d="M8.4 0L4.35 0 4.35-35.25 26.15-35.25 26.15-31.8 8.4-31.8 8.4-19.65 25.15-19.65 25.15-16.2 8.4-16.2 8.4 0ZM41.2 0.35Q37.75 0.35 35.12-1.2 32.5-2.75 31.07-5.63 29.65-8.5 29.65-12.3L29.65-12.3Q29.65-16.1 31.07-18.98 32.5-21.85 35.12-23.4 37.75-24.95 41.2-24.95L41.2-24.95Q44.65-24.95 47.3-23.4 49.95-21.85 51.37-18.98 52.8-16.1 52.8-12.3L52.8-12.3Q52.8-8.5 51.37-5.63 49.95-2.75 47.3-1.2 44.65 0.35 41.2 0.35L41.2 0.35ZM41.2-3Q44.8-3 46.72-5.38 48.65-7.75 48.65-12.3L48.65-12.3Q48.65-16.75 46.7-19.18 44.75-21.6 41.2-21.6L41.2-21.6Q37.65-21.6 35.7-19.18 33.75-16.75 33.75-12.3L33.75-12.3Q33.75-7.8 35.67-5.4 37.6-3 41.2-3L41.2-3ZM68.94 0.35Q65.5 0.35 62.87-1.2 60.24-2.75 58.82-5.63 57.39-8.5 57.39-12.3L57.39-12.3Q57.39-16.1 58.82-18.98 60.24-21.85 62.87-23.4 65.5-24.95 68.94-24.95L68.94-24.95Q72.39-24.95 75.05-23.4 77.69-21.85 79.12-18.98 80.55-16.1 80.55-12.3L80.55-12.3Q80.55-8.5 79.12-5.63 77.69-2.75 75.05-1.2 72.39 0.35 68.94 0.35L68.94 0.35ZM68.94-3Q72.55-3 74.47-5.38 76.39-7.75 76.39-12.3L76.39-12.3Q76.39-16.75 74.44-19.18 72.5-21.6 68.94-21.6L68.94-21.6Q65.39-21.6 63.45-19.18 61.49-16.75 61.49-12.3L61.49-12.3Q61.49-7.8 63.42-5.4 65.34-3 68.94-3L68.94-3ZM104.14-35.25L108.19-35.25 108.19 0 104.14 0 104.14-4.45Q103.04-2.15 100.92-0.9 98.79 0.35 95.94 0.35L95.94 0.35Q92.74 0.35 90.29-1.25 87.84-2.85 86.49-5.73 85.14-8.6 85.14-12.4L85.14-12.4Q85.14-16.15 86.49-19 87.84-21.85 90.29-23.4 92.74-24.95 95.94-24.95L95.94-24.95Q98.79-24.95 100.92-23.7 103.04-22.45 104.14-20.15L104.14-20.15 104.14-35.25ZM96.74-3Q100.29-3 102.22-5.43 104.14-7.85 104.14-12.3L104.14-12.3Q104.14-16.75 102.22-19.15 100.29-21.55 96.74-21.55L96.74-21.55Q93.19-21.55 91.22-19.15 89.24-16.75 89.24-12.4L89.24-12.4Q89.24-7.95 91.22-5.48 93.19-3 96.74-3L96.74-3ZM129.19 0L129.19-35.25 141.04-35.25Q149.49-35.25 154.11-30.68 158.74-26.1 158.74-17.65L158.74-17.65Q158.74-9.2 154.11-4.6 149.49 0 141.04 0L141.04 0 129.19 0ZM133.29-3.5L140.79-3.5Q154.49-3.5 154.49-17.65L154.49-17.65Q154.49-31.75 140.79-31.75L140.79-31.75 133.29-31.75 133.29-3.5ZM185.94-13.05L185.94-11.55 168.14-11.55Q168.34-7.3 170.44-5.13 172.54-2.95 176.39-2.95L176.39-2.95Q180.64-2.95 184.19-5.85L184.19-5.85 185.54-2.9Q183.94-1.4 181.44-0.53 178.94 0.35 176.34 0.35L176.34 0.35Q170.64 0.35 167.36-3 164.09-6.35 164.09-12.25L164.09-12.25Q164.09-16 165.54-18.88 166.99-21.75 169.61-23.35 172.24-24.95 175.59-24.95L175.59-24.95Q180.44-24.95 183.19-21.78 185.94-18.6 185.94-13.05L185.94-13.05ZM175.64-21.8Q172.44-21.8 170.51-19.8 168.59-17.8 168.24-14.15L168.24-14.15 182.39-14.15Q182.29-17.85 180.54-19.83 178.79-21.8 175.64-21.8L175.64-21.8ZM195.93 0L191.88 0 191.88-35.25 195.93-35.25 195.93 0ZM207.53 0L203.48 0 203.48-24.35 207.53-24.35 207.53 0ZM203.08-30.35L203.08-34.9 207.98-34.9 207.98-30.35 203.08-30.35ZM224.28-4.4L232.53-24.3 236.58-24.3 226.08 0 222.28 0 211.83-24.3 216.13-24.3 224.28-4.4ZM260.88-13.05L260.88-11.55 243.08-11.55Q243.28-7.3 245.38-5.13 247.48-2.95 251.33-2.95L251.33-2.95Q255.58-2.95 259.13-5.85L259.13-5.85 260.48-2.9Q258.88-1.4 256.38-0.53 253.88 0.35 251.28 0.35L251.28 0.35Q245.58 0.35 242.3-3 239.03-6.35 239.03-12.25L239.03-12.25Q239.03-16 240.48-18.88 241.93-21.75 244.55-23.35 247.18-24.95 250.53-24.95L250.53-24.95Q255.38-24.95 258.13-21.78 260.88-18.6 260.88-13.05L260.88-13.05ZM250.58-21.8Q247.38-21.8 245.45-19.8 243.53-17.8 243.18-14.15L243.18-14.15 257.33-14.15Q257.23-17.85 255.48-19.83 253.73-21.8 250.58-21.8L250.58-21.8ZM280.27-24.95L280.62-21.45 277.97-21.2Q274.22-20.85 272.55-18.85 270.87-16.85 270.87-13.9L270.87-13.9 270.87 0 266.82 0 266.82-24.35 270.77-24.35 270.77-20.1Q272.82-24.35 278.82-24.85L278.82-24.85 280.27-24.95ZM295.17-4.4L303.42-24.3 307.47-24.3 293.07 9 288.92 9 293.02-0.3 282.72-24.3 287.02-24.3 295.17-4.4ZM354.46 0L349.62 0 345.51-4.45Q343.37-2.1 340.67-0.88 337.96 0.35 334.76 0.35L334.76 0.35Q331.42 0.35 328.84-0.8 326.26-1.95 324.84-4.05 323.42-6.15 323.42-8.85L323.42-8.85Q323.42-12.05 325.34-14.58 327.26-17.1 331.56-19.7L331.56-19.7Q329.26-22.35 328.37-24.15 327.46-25.95 327.46-27.9L327.46-27.9Q327.46-31.4 329.84-33.5 332.21-35.6 336.12-35.6L336.12-35.6Q339.76-35.6 341.89-33.68 344.01-31.75 344.01-28.5L344.01-28.5Q344.01-25.9 342.46-23.83 340.92-21.75 336.92-19.2L336.92-19.2 345.26-10.05Q347.51-14.5 347.67-20.7L347.67-20.7 351.21-20.7Q351.01-12.85 347.71-7.4L347.71-7.4 354.46 0ZM336.17-32.5Q333.96-32.5 332.64-31.25 331.31-30 331.31-27.9L331.31-27.9Q331.31-26.45 332.01-25.13 332.71-23.8 334.71-21.55L334.71-21.55Q338.01-23.6 339.24-25.1 340.46-26.6 340.46-28.3L340.46-28.3Q340.46-30.2 339.29-31.35 338.12-32.5 336.17-32.5L336.17-32.5ZM334.87-2.95Q337.37-2.95 339.51-3.98 341.67-5 343.26-6.9L343.26-6.9 333.76-17.3Q330.26-15.15 328.84-13.25 327.42-11.35 327.42-8.95L327.42-8.95Q327.42-6.2 329.44-4.58 331.46-2.95 334.87-2.95L334.87-2.95ZM388.01-9.7L401.21-35.25 404.56-35.25 404.56 0 400.81 0 400.86-27.3 389.41-5.6 386.51-5.6 375.01-27.1 375.06 0 371.26 0 371.26-35.25 374.66-35.25 388.01-9.7ZM429.16-24.35L433.21-24.35 433.21 0 429.26 0 429.26-4.15Q428.11-1.95 426.03-0.8 423.96 0.35 421.36 0.35L421.36 0.35Q417.01 0.35 414.81-2.08 412.61-4.5 412.61-9.25L412.61-9.25 412.61-24.35 416.66-24.35 416.66-9.35Q416.66-6.1 417.96-4.58 419.26-3.05 422.06-3.05L422.06-3.05Q425.26-3.05 427.21-5.13 429.16-7.2 429.16-10.6L429.16-10.6 429.16-24.35ZM451.06 0.35Q447.45 0.35 444.81-1.2 442.15-2.75 440.73-5.58 439.31-8.4 439.31-12.2L439.31-12.2Q439.31-16 440.78-18.88 442.25-21.75 444.93-23.35 447.61-24.95 451.2-24.95L451.2-24.95Q453.65-24.95 456-24.08 458.36-23.2 459.81-21.75L459.81-21.75 458.45-18.75Q455-21.55 451.45-21.55L451.45-21.55Q447.7-21.55 445.61-19.1 443.5-16.65 443.5-12.2L443.5-12.2Q443.5-7.8 445.61-5.4 447.7-3 451.45-3L451.45-3Q455-3 458.45-5.8L458.45-5.8 459.81-2.8Q458.25-1.35 455.9-0.5 453.56 0.35 451.06 0.35L451.06 0.35ZM476.95-24.95Q485.7-24.95 485.7-15.3L485.7-15.3 485.7 0 481.65 0 481.65-15.05Q481.65-18.45 480.33-20 479-21.55 476.1-21.55L476.1-21.55Q472.75-21.55 470.75-19.5 468.75-17.45 468.75-13.95L468.75-13.95 468.75 0 464.7 0 464.7-35.25 468.75-35.25 468.75-20.45Q469.95-22.65 472.08-23.8 474.2-24.95 476.95-24.95L476.95-24.95ZM523.35-9.7L536.55-35.25 539.9-35.25 539.9 0 536.15 0 536.2-27.3 524.75-5.6 521.85-5.6 510.35-27.1 510.4 0 506.6 0 506.6-35.25 510-35.25 523.35-9.7ZM558.14 0.35Q554.69 0.35 552.07-1.2 549.44-2.75 548.02-5.63 546.59-8.5 546.59-12.3L546.59-12.3Q546.59-16.1 548.02-18.98 549.44-21.85 552.07-23.4 554.69-24.95 558.14-24.95L558.14-24.95Q561.59-24.95 564.24-23.4 566.89-21.85 568.32-18.98 569.74-16.1 569.74-12.3L569.74-12.3Q569.74-8.5 568.32-5.63 566.89-2.75 564.24-1.2 561.59 0.35 558.14 0.35L558.14 0.35ZM558.14-3Q561.74-3 563.67-5.38 565.59-7.75 565.59-12.3L565.59-12.3Q565.59-16.75 563.64-19.18 561.69-21.6 558.14-21.6L558.14-21.6Q554.59-21.6 552.64-19.18 550.69-16.75 550.69-12.3L550.69-12.3Q550.69-7.8 552.62-5.4 554.54-3 558.14-3L558.14-3ZM589.24-24.95L589.59-21.45 586.94-21.2Q583.19-20.85 581.52-18.85 579.84-16.85 579.84-13.9L579.84-13.9 579.84 0 575.79 0 575.79-24.35 579.74-24.35 579.74-20.1Q581.79-24.35 587.79-24.85L587.79-24.85 589.24-24.95ZM613.34-13.05L613.34-11.55 595.54-11.55Q595.74-7.3 597.84-5.13 599.94-2.95 603.79-2.95L603.79-2.95Q608.04-2.95 611.59-5.85L611.59-5.85 612.94-2.9Q611.34-1.4 608.84-0.53 606.34 0.35 603.74 0.35L603.74 0.35Q598.04 0.35 594.76-3 591.49-6.35 591.49-12.25L591.49-12.25Q591.49-16 592.94-18.88 594.39-21.75 597.01-23.35 599.64-24.95 602.99-24.95L602.99-24.95Q607.84-24.95 610.59-21.78 613.34-18.6 613.34-13.05L613.34-13.05ZM603.04-21.8Q599.84-21.8 597.91-19.8 595.99-17.8 595.64-14.15L595.64-14.15 609.79-14.15Q609.69-17.85 607.94-19.83 606.19-21.8 603.04-21.8L603.04-21.8Z" opacity="1" transform="matrix(1,0,0,1,0,0)" fill="#ea7c69" class="undefined-text-1" data-fill-palette-color="secondary" id="text-1"></path></svg></g></svg></g></svg></g></svg></g><g transform="matrix(1,0,0,1,419.04563146075174,0)"><svg viewBox="0 0 144.20410082024307 144.20410082024307" height="144.20410082024307" width="144.20410082024307"><g><svg></svg></g><g id="icon-0"><svg viewBox="0 0 144.20410082024307 144.20410082024307" height="144.20410082024307" width="144.20410082024307"><g><path d="M0 72.102c0-39.821 32.281-72.102 72.102-72.102 39.821 0 72.102 32.281 72.102 72.102 0 39.821-32.281 72.102-72.102 72.102-39.821 0-72.102-32.281-72.102-72.102zM72.102 139.711c37.339 0 67.609-30.269 67.609-67.609 0-37.339-30.269-67.609-67.609-67.609-37.339 0-67.609 30.269-67.609 67.609 0 37.339 30.269 67.609 67.609 67.609z" data-fill-palette-color="accent" fill="#ecab55" stroke="transparent"></path></g><g transform="matrix(1,0,0,1,29.751499936342192,33.6287326194677)"><svg viewBox="0 0 84.70110094755869 76.94663558130767" height="76.94663558130767" width="84.70110094755869"><g><svg xmlns="http://www.w3.org/2000/svg" xmlns:xlink="http://www.w3.org/1999/xlink" version="1.1" x="0" y="0" viewBox="7.596000671386719 10.376382827758789 86.03302001953125 78.1566162109375" enable-background="new 0 0 100 100" xml:space="preserve" height="76.94663558130767" width="84.70110094755869" class="icon-s-0" data-fill-palette-color="accent" id="s-0"><g fill="#ecab55" data-fill-palette-color="accent"><g fill="#ecab55" data-fill-palette-color="accent"><path d="M81.313 88.533L81.313 88.533c-0.001 0-0.005 0-0.006 0l-61.431-0.05c-1.75-0.001-3.395-0.685-4.632-1.923-1.236-1.238-1.916-2.885-1.915-4.635 0.001-1.118 0.294-2.206 0.834-3.168-4.201-4.029-6.572-9.546-6.567-15.419 0.01-11.78 9.602-21.364 21.381-21.364 2.291 0.002 4.54 0.369 6.713 1.092 4.236-3.411 9.49-5.275 14.924-5.275 5.459 0.004 10.718 1.878 14.954 5.3 2.169-0.718 4.41-1.082 6.68-1.082 11.807 0.01 21.391 9.609 21.381 21.399-0.005 5.873-2.385 11.387-6.591 15.407 0.538 0.963 0.829 2.051 0.828 3.169C87.863 85.596 84.924 88.533 81.313 88.533zM28.992 45.975c-9.591 0-17.388 7.791-17.396 17.368-0.004 5.313 2.388 10.271 6.562 13.601 0.465 0.37 0.74 0.928 0.753 1.521 0.012 0.594-0.24 1.162-0.688 1.552-0.575 0.5-0.892 1.179-0.893 1.912-0.001 0.683 0.265 1.323 0.746 1.806s1.122 0.748 1.805 0.749l61.431 0.05 0.002 2v-2c1.406 0 2.552-1.144 2.553-2.551 0.001-0.733-0.315-1.413-0.89-1.912-0.448-0.391-0.699-0.96-0.686-1.554 0.013-0.594 0.289-1.151 0.755-1.521 4.18-3.322 6.579-8.275 6.583-13.591 0.004-4.643-1.801-9.009-5.081-12.294-3.28-3.286-7.644-5.097-12.287-5.101-2.18 0-4.318 0.41-6.371 1.217-0.701 0.278-1.501 0.135-2.065-0.37-3.648-3.263-8.334-5.062-13.194-5.065-4.869 0-9.552 1.792-13.201 5.044-0.564 0.502-1.363 0.644-2.067 0.367C33.308 46.39 31.164 45.977 28.992 45.975z" fill="#ecab55" data-fill-palette-color="accent"></path><path d="M43.487 56.871c-1.053 0-1.935-0.823-1.995-1.888-0.289-5.122-6.148-7.787-6.207-7.813-1.01-0.449-1.464-1.631-1.015-2.64 0.448-1.01 1.632-1.463 2.64-1.014 0.333 0.148 8.15 3.71 8.576 11.243 0.062 1.103-0.781 2.047-1.885 2.109C43.563 56.87 43.525 56.871 43.487 56.871z" fill="#ecab55" data-fill-palette-color="accent"></path><path d="M71.625 57.418c-0.924 0-1.754-0.644-1.954-1.583-1.463-6.863-8.771-11.147-8.844-11.19-0.955-0.551-1.286-1.773-0.736-2.729 0.551-0.957 1.768-1.288 2.726-0.741 0.363 0.208 8.926 5.191 10.767 13.827 0.23 1.08-0.459 2.143-1.539 2.373C71.903 57.404 71.763 57.418 71.625 57.418z" fill="#ecab55" data-fill-palette-color="accent"></path><path d="M40.607 34.375c-0.299 0-0.603-0.067-0.889-0.21-0.181-0.091-4.439-2.271-4.439-6.789s4.259-6.698 4.439-6.789c0.009-0.004 2.228-1.183 2.228-3.211s-2.219-3.207-2.241-3.218c-0.975-0.507-1.365-1.708-0.866-2.687 0.5-0.978 1.688-1.375 2.669-0.884 0.181 0.091 4.438 2.271 4.438 6.789s-4.258 6.698-4.438 6.789c-0.009 0.004-2.229 1.183-2.229 3.211s2.22 3.207 2.242 3.218c0.974 0.507 1.365 1.708 0.866 2.687C42.033 33.973 41.334 34.375 40.607 34.375z" fill="#ecab55" data-fill-palette-color="accent"></path><path d="M60.607 34.375c-0.299 0-0.603-0.067-0.889-0.21-0.181-0.091-4.439-2.271-4.439-6.789s4.259-6.698 4.439-6.789c0.009-0.004 2.228-1.183 2.228-3.211s-2.219-3.207-2.241-3.218c-0.975-0.507-1.365-1.708-0.866-2.687 0.5-0.978 1.688-1.375 2.669-0.884 0.181 0.091 4.438 2.271 4.438 6.789s-4.258 6.698-4.438 6.789c-0.009 0.004-2.229 1.183-2.229 3.211s2.22 3.207 2.242 3.218c0.974 0.507 1.365 1.708 0.866 2.687C62.033 33.973 61.334 34.375 60.607 34.375z" fill="#ecab55" data-fill-palette-color="accent"></path><path d="M50.607 34.375c-0.299 0-0.603-0.067-0.889-0.21-0.181-0.091-4.439-2.271-4.439-6.789s4.259-6.698 4.439-6.789c0.009-0.004 2.228-1.183 2.228-3.211s-2.219-3.207-2.241-3.218c-0.975-0.507-1.365-1.708-0.866-2.687 0.501-0.978 1.687-1.375 2.669-0.884 0.181 0.091 4.438 2.271 4.438 6.789s-4.258 6.698-4.438 6.789c-0.009 0.004-2.229 1.183-2.229 3.211s2.22 3.207 2.242 3.218c0.974 0.507 1.365 1.708 0.866 2.687C52.033 33.973 51.334 34.375 50.607 34.375z" fill="#ecab55" data-fill-palette-color="accent"></path></g></g></svg></g></svg></g></svg></g></svg></g></svg></g><defs></defs></svg><rect width="395.52" height="101.2616654524543" fill="none" stroke="none" visibility="hidden"></rect></g></svg></g></svg>