<svg xmlns="http://www.w3.org/2000/svg" version="1.1" xmlns:xlink="http://www.w3.org/1999/xlink" width="32" height="32" x="0" y="0" viewBox="0 0 416.982 416.982" style="enable-background:new 0 0 512 512" xml:space="preserve" class=""><g transform="matrix(-1,2.4492935982947064e-16,2.4492935982947064e-16,1,416.98009109497065,-5.684341886080802e-14)"><path d="M87.892 59.101c4.443 7.698 9.974 14.928 16.916 20.542 5.491 4.44 11.952 7.854 18.966 9.014 0 0 10.089 1.73 19.493-3.08 5.305-2.713 10.484-7.556 13.502-13.271 3.285-6.218 4.451-13.345 4.201-20.322-.313-8.788-2.763-17.417-6.233-25.454-3.049-7.056-6.872-14.052-12.646-19.262-4.688-4.229-10.535-6.846-16.859-7.217-7.673-.448-15.244 2.099-22.027 5.479-6.944 3.462-13.734 8.036-18.197 14.517-3.607 5.237-5.2 11.468-4.703 17.798.599 7.608 3.818 14.726 7.587 21.256zM388.092 240.417l-35.331-62.037c-2.489-4.373-8.054-5.899-12.428-3.408l-23.055 13.129-2.996-5.264c-2.448-4.297-6.998-6.66-11.627-6.539a18.88 18.88 0 0 0-1.813-4.333c-.944-1.633-23.291-40.169-36.904-57.609-25.076-32.124-75.489-32.59-81.158-32.59-1.681 0-6.489.136-7.297.201-11.588.946-20.83-.005-22.523-.753l-1.555 19.255 34.501 59.6c.117.2.132.47.044.749l-6.723 21.249a1.606 1.606 0 0 1-.667.852c-.313.197-.653.25-.915.143l-16.435-6.7a.656.656 0 0 1-.399-.526l-11.891-73.945-13.328-11.124s-29.182 56.487-91.502 67.062c-10.294 1.747-17.613 10.9-16.227 21.25 1.273 9.496 9.389 16.396 18.714 16.396.836 0 1.683-.057 2.535-.17 35.444-4.75 61.769-23.018 78.356-38.605l26.707 90.026a38.84 38.84 0 0 0 3.006 7.287l-40.71 49.849a23.474 23.474 0 0 0-5.297 14.856v74.775c0 12.973 10.517 23.488 23.488 23.488s23.488-10.517 23.488-23.488V327.09l41.222-50.471a48.289 48.289 0 0 0 7.045-.922l35.182 63.408a23.513 23.513 0 0 0 10.943 10.043s14.615 6.539 29.242 13.078a17173.09 17173.09 0 0 0 26.832 11.967c3.379 1.5 7.107 3.152 12.016 3.152 1.396 0 2.893-.136 4.499-.443 12.737-2.457 21.071-14.775 18.614-27.513-1.562-8.104-7.116-14.426-14.229-17.317-3.529-1.543-29.81-13.287-50.64-22.605L240.722 240.7a37.38 37.38 0 0 0-1.266-15.398l-30.309-102.168c9.677 2.783 19.384 7.313 24.982 14.488 12.009 15.383 33.77 52.907 33.987 53.286a18.952 18.952 0 0 0 2.785 3.678c-2.292 3.877-2.512 8.84-.127 13.027l2.998 5.264-23.056 13.129c-4.374 2.49-5.898 8.055-3.41 12.426l35.331 62.039c2.491 4.373 8.056 5.9 12.429 3.408l89.612-51.035a9.109 9.109 0 0 0 3.414-12.427zm-104.3-33.246-2.998-5.264a1.428 1.428 0 0 1 .421-1.861c1.081.191 2.18.295 3.284.295 3.213 0 6.473-.818 9.453-2.545a18.83 18.83 0 0 0 8.23-9.726l.118-.067a1.443 1.443 0 0 1 1.966.539l2.997 5.263-23.471 13.366z" fill="#00000" data-original="#000000" class=""></path></g></svg>