<svg xmlns="http://www.w3.org/2000/svg" version="1.1" xmlns:xlink="http://www.w3.org/1999/xlink" width="24" height="24" x="0" y="0" viewBox="0 0 32 32" style="enable-background:new 0 0 512 512" xml:space="preserve"><g><path d="M16 32C13.166 32 4 18.82 4 12.065 4 5.413 9.383 0 16 0s12 5.413 12 12.065C28 18.82 18.834 32 16 32zm0-30C10.486 2 6 6.515 6 12.065c0 6.088 8.074 16.967 10 17.904 1.926-.937 10-11.816 10-17.904C26 6.515 21.514 2 16 2zm0 15.147c-2.757 0-5-2.243-5-5s2.243-5 5-5 5 2.244 5 5-2.243 5-5 5zm0-8c-1.654 0-3 1.346-3 3s1.346 3 3 3 3-1.345 3-3-1.346-3-3-3z" fill="#ffc700" data-original="#000000"></path></g></svg>