<svg xmlns="http://www.w3.org/2000/svg" version="1.1" xmlns:xlink="http://www.w3.org/1999/xlink" width="512" height="512" x="0" y="0" viewBox="0 0 32 32" style="enable-background:new 0 0 512 512" xml:space="preserve" class=""><g><path d="M16 2c-3.307 0-6 2.693-6 6v1H8c-1.645 0-2.881 1.31-3 3-.307 3.938-.672 8.707-.996 12.924C3.786 27.759 6.245 30 9 30h14c2.755 0 5.214-2.241 4.996-5.076C27.67 20.707 27.31 15.938 27 12c-.141-1.593-1.355-3-3-3h-2V8c0-3.307-2.693-6-6-6zm4 6v1h-5a1 1 0 0 0 0 2h5v4a1 1 0 1 0 2 0v-4h2c.564 0 .944.47 1 1 .33 4.352.669 8.719 1.004 13.076C26.126 26.66 24.677 28 23 28H9c-1.677 0-3.126-1.34-3.004-2.924C6.33 20.72 6.671 16.352 7 12c.072-.571.436-1 1-1h2v4a1 1 0 1 0 2 0V8c0-2.233 1.767-4 4-4s4 1.767 4 4z" fill="#000000" data-original="#000000"></path></g></svg>