<svg xmlns="http://www.w3.org/2000/svg" version="1.1" xmlns:xlink="http://www.w3.org/1999/xlink" width="124" height="124" x="0" y="0" viewBox="0 0 512 512" style="enable-background:new 0 0 512 512" xml:space="preserve"><g><linearGradient id="a" x1="256" x2="256" y1="0" y2="512" gradientUnits="userSpaceOnUse"><stop offset="0" stop-color="#2af598"></stop><stop offset="1" stop-color="#009efd"></stop></linearGradient><path fill="url(#a)" d="M512 428h-84v84h-40v-84h-84v-40h84v-84h40v84h84zM299.305 223.437A113.12 113.12 0 0 1 302 248c0 34.55-15.594 65.527-40.105 86.27.699.277 1.406.546 2.105.832V379.3C242.586 367.633 218.055 361 192 361v-.04c-.332.009-.668.009-1 .017V361c-83.262 0-151 67.738-151 151H0c0-79.371 48.672-147.582 117.73-176.379C92.281 314.887 76 283.31 76 248c0-62.309 50.691-113 113-113 7.406 0 14.645.723 21.656 2.09A112.644 112.644 0 0 1 208 112.746C208 50.578 258.578 0 320.746 0c62.168 0 112.746 50.578 112.746 112.746 0 34.895-15.937 66.137-40.91 86.832 33.012 13.11 61.465 35.117 82.305 63.422h-53.848c-24.848-22.023-56.976-36-92.273-37.797-2.653.188-5.325.29-8.02.29-7.332 0-14.5-.712-21.441-2.055zM248 112.748c0 40.112 32.633 72.745 72.746 72.745 40.11 0 72.746-32.633 72.746-72.746 0-40.113-32.637-72.746-72.746-72.746C280.633 40 248 72.633 248 112.746zM262 248c0-40.254-32.746-73-73-73s-73 32.746-73 73 32.746 73 73 73 73-32.746 73-73zm0 0" data-original="url(#a)"></path></g></svg>